<svg width="241" height="194" viewBox="0 0 241 194" fill="none" xmlns="http://www.w3.org/2000/svg">
<path d="M236.521 179.463L236.732 178.338C236.791 178.024 236.84 177.712 236.861 177.401L236.931 176.276C236.938 176.168 236.915 176.038 236.837 175.865L236.591 175.303L236.333 174.74C236.019 174.042 235.963 173.283 236.205 172.537L236.38 171.975L236.568 171.412C236.638 171.196 236.669 170.994 236.662 170.803L236.615 169.678C236.6 169.291 236.596 168.904 236.591 168.518L236.58 167.955V167.393C236.576 167.051 236.559 166.703 236.533 166.361L236.439 165.236C236.412 164.895 236.382 164.548 236.333 164.205L236.169 163.08C236.079 162.442 236.156 161.812 236.38 161.217L236.802 160.092C236.84 159.99 236.842 159.926 236.826 159.858L236.685 159.295L236.556 158.733C236.434 158.234 236.369 157.719 236.38 157.209L236.404 156.084C236.409 155.825 236.388 155.565 236.333 155.299L236.216 154.736L236.111 154.174C235.954 153.406 236.103 152.665 236.462 152.018L236.779 151.455L237.083 150.893C237.225 150.637 237.312 150.407 237.353 150.201L237.458 149.639L237.576 149.076C237.613 148.89 237.61 148.711 237.576 148.526L237.482 147.963L237.376 147.401C237.335 147.179 237.251 146.935 237.119 146.674L236.837 146.111L236.544 145.549C236.167 144.801 236.123 143.964 236.451 143.17L236.919 142.045C236.978 141.902 236.979 141.795 236.966 141.705L236.884 141.143L236.814 140.58C236.751 140.128 236.723 139.675 236.732 139.221L236.755 138.096C236.765 137.604 236.823 137.112 236.943 136.631L237.224 135.506C237.28 135.28 237.297 135.063 237.283 134.85L237.212 133.725C237.204 133.603 237.166 133.441 237.048 133.233L236.416 132.108C236.078 131.508 235.896 130.833 235.958 130.115L236.052 128.99C236.083 128.64 236.109 128.286 236.123 127.936L236.169 126.811C236.186 126.38 236.22 125.95 236.287 125.522L236.38 124.959L236.462 124.397C236.531 123.954 236.627 123.509 236.755 123.072L237.083 121.947C237.135 121.772 237.153 121.611 237.13 121.455L236.966 120.33C236.916 119.976 236.855 119.618 236.791 119.264L236.685 118.701L236.591 118.139C236.471 117.477 236.539 116.823 236.779 116.205L237.001 115.643L237.212 115.08C237.295 114.868 237.33 114.679 237.33 114.506V113.381C237.329 113.299 237.305 113.168 237.201 112.983L236.568 111.858C236.224 111.249 236.04 110.561 236.123 109.83L236.193 109.268L236.251 108.705C236.306 108.217 236.418 107.736 236.58 107.264L236.779 106.701L236.966 106.139C237.06 105.866 237.116 105.598 237.142 105.342L237.259 104.217C237.274 104.075 237.262 103.924 237.201 103.748L236.802 102.623C236.529 101.848 236.603 101.054 236.955 100.338L237.224 99.7755L237.505 99.213C237.601 99.0172 237.632 98.8603 237.634 98.7325L237.646 98.17V97.6075C237.646 97.5746 237.64 97.4779 237.529 97.3029L237.177 96.7404L236.814 96.1779C236.436 95.5822 236.219 94.89 236.275 94.1388L236.31 93.5763L236.357 93.0138C236.4 92.4335 236.562 91.8754 236.814 91.3497L237.353 90.2247C237.441 90.0419 237.462 89.9014 237.458 89.7911L237.447 89.2286L237.423 88.6661C237.417 88.4503 237.376 88.2261 237.294 87.9865L236.919 86.8615C236.714 86.2579 236.656 85.6201 236.767 84.9865L236.955 83.8615C236.996 83.6253 237.004 83.3907 236.978 83.1583L236.861 82.0333C236.798 81.459 236.854 80.8889 237.013 80.3341L237.166 79.7716L237.33 79.2091C237.364 79.088 237.369 78.9832 237.341 78.8693L237.06 77.7443C236.984 77.4427 236.872 77.1299 236.744 76.8185L236.521 76.256L236.287 75.6935C235.98 74.9483 235.987 74.1616 236.298 73.42L236.767 72.295L236.322 71.17C235.967 70.2671 236.153 69.3734 236.65 68.6505L237.423 67.5255C237.482 67.4396 237.507 67.3798 237.517 67.3497C237.523 67.3312 237.528 67.3201 237.529 67.3146L237.482 66.1896C237.468 65.8564 237.442 65.5158 237.4 65.1818L237.259 64.0568C237.238 63.8839 237.172 63.6804 237.048 63.4474L236.755 62.8849L236.451 62.3224C236.234 61.9131 236.112 61.4386 236.158 60.9279C236.203 60.4235 236.397 59.9832 236.65 59.6271L237.06 59.0646L237.458 58.5021L237.353 58.0216L237.224 57.4591C237.098 56.912 237.068 56.3514 237.142 55.795L237.224 55.2325L237.294 54.67C237.303 54.5996 237.299 54.5047 237.236 54.3654L236.72 53.2404C236.462 52.6719 236.328 52.057 236.357 51.424L236.392 50.8615L236.416 50.299C236.437 49.8304 236.505 49.3656 236.615 48.9044L236.744 48.3419L236.884 47.7794C236.982 47.37 237.096 46.9565 237.224 46.549L237.576 45.424C237.612 45.3077 237.613 45.2101 237.587 45.1075L237.306 43.9825C237.161 43.3958 237.141 42.7949 237.259 42.2013L237.376 41.6388L237.47 41.0997C237.464 41.086 237.465 41.0585 237.447 41.0294L237.107 40.4669L236.755 39.9044C236.395 39.3154 236.187 38.6404 236.228 37.9122L236.263 37.3497L236.287 36.7872C236.314 36.2973 236.396 35.8115 236.533 35.3341L236.861 34.2091C236.937 33.9443 236.979 33.6871 236.99 33.4357L237.037 32.3107C237.057 31.8387 237.126 31.369 237.236 30.9044L237.365 30.3419L237.47 29.8615L237.072 29.299L236.685 28.7365C236.422 28.3599 236.216 27.8855 236.205 27.3419C236.193 26.796 236.382 26.3142 236.638 25.924L237.001 25.3615L237.224 25.0099L237.048 24.6935L236.72 24.131C236.417 23.6093 236.201 23.0419 236.123 22.4435L235.982 21.3185C235.922 20.8588 235.903 20.3974 235.923 19.9357L235.97 18.8107C236.001 18.1016 236.256 17.4569 236.638 16.9005L237.025 16.338L237.271 15.963L237.107 15.6583L236.802 15.0958C236.472 14.4944 236.289 13.8176 236.357 13.1036L236.474 11.9786C236.513 11.5658 236.567 11.148 236.638 10.7365L236.826 9.61145C236.837 9.54055 236.844 9.4567 236.791 9.3302L236.544 8.7677L236.31 8.2052C236.026 7.53131 235.966 6.80196 236.169 6.08411L236.498 4.95911C236.6 4.59637 236.696 4.23181 236.791 3.86926L236.873 3.5177L236.392 3.35364L235.83 3.62317L235.267 3.90442C234.759 4.1543 234.217 4.32535 233.662 4.39661L232.537 4.53723C231.861 4.62335 231.208 4.50763 230.603 4.23254L230.041 3.97473L229.478 3.72864C229.273 3.63551 229.098 3.60165 228.951 3.59973L227.826 3.57629C227.346 3.56979 226.868 3.51778 226.396 3.41223L225.271 3.15442C225.163 3.13053 225.058 3.13804 224.931 3.17786L224.369 3.35364L223.806 3.54114C223.209 3.73092 222.587 3.7677 221.966 3.65833L221.404 3.56458L220.841 3.45911H220.806C220.792 3.46175 220.751 3.47271 220.689 3.50598L219.564 4.11536C218.938 4.45322 218.228 4.6053 217.49 4.49036L216.927 4.40833L216.365 4.31458C216.036 4.26357 215.707 4.22948 215.38 4.20911L214.255 4.13879C213.766 4.10823 213.279 4.02018 212.802 3.88098L211.677 3.55286C211.59 3.52776 211.513 3.53531 211.419 3.56458L210.294 3.91614C209.712 4.09836 209.108 4.14863 208.501 4.05676L207.939 3.97473L207.376 3.88098C207.046 3.83069 206.71 3.7954 206.38 3.77551L205.818 3.75208L205.255 3.71692C205.075 3.70643 204.887 3.72168 204.681 3.78723L204.119 3.97473L203.556 4.15051C202.736 4.41287 201.924 4.27374 201.224 3.86926L200.662 3.55286L200.099 3.22473C200.072 3.20915 200.051 3.20546 200.041 3.20129L200.029 3.18958L199.501 3.31848L198.939 3.45911C198.52 3.55628 198.095 3.62439 197.673 3.68176L197.111 3.76379L196.548 3.83411C195.879 3.92468 195.231 3.81731 194.626 3.55286L193.501 3.06067L192.962 3.28333L192.4 3.50598C191.843 3.72761 191.257 3.83812 190.654 3.81067L189.529 3.76379C189.143 3.74622 188.754 3.71968 188.369 3.69348L187.244 3.62317C186.904 3.60014 186.564 3.58816 186.224 3.58801H185.099C184.926 3.58795 184.738 3.62133 184.525 3.7052L183.4 4.15051C182.542 4.48815 181.672 4.35511 180.939 3.90442L180.376 3.55286L179.978 3.29504L179.615 3.50598L179.052 3.81067C178.491 4.11046 177.875 4.29084 177.224 4.29114H176.099C175.624 4.29131 175.15 4.24399 174.681 4.15051L174.119 4.03333L173.556 3.92786C173.363 3.88934 173.173 3.88249 172.982 3.91614L172.419 4.00989L171.857 4.11536C171.296 4.2139 170.728 4.20636 170.169 4.09192L169.044 3.85754C168.686 3.7841 168.324 3.72003 167.966 3.65833L167.404 3.56458L166.841 3.45911C166.65 3.42652 166.461 3.43231 166.267 3.47083L165.705 3.57629L165.142 3.69348C164.62 3.79714 164.088 3.82048 163.56 3.76379L162.435 3.64661C162.052 3.60546 161.67 3.55487 161.287 3.50598L160.162 3.36536C159.857 3.32644 159.551 3.30312 159.248 3.30676L158.123 3.3302C157.88 3.33328 157.629 3.36576 157.373 3.43567L156.248 3.74036C155.792 3.86512 155.329 3.95432 154.865 3.99817L154.302 4.04504L153.74 4.10364C153.175 4.15694 152.61 4.10472 152.064 3.95129L151.501 3.78723L150.939 3.63489C150.921 3.63012 150.911 3.62307 150.904 3.62317C150.896 3.62375 150.866 3.62792 150.822 3.64661L149.697 4.13879C148.857 4.50026 147.98 4.41074 147.224 3.97473L146.662 3.64661L146.099 3.3302C146.037 3.29428 145.999 3.27575 145.982 3.27161H145.958L145.396 3.35364L144.833 3.44739C144.364 3.52006 143.888 3.54891 143.416 3.52942L142.291 3.48254C141.91 3.46661 141.523 3.44417 141.142 3.42395L140.58 3.38879L140.017 3.36536C139.912 3.36016 139.781 3.37805 139.607 3.45911L139.044 3.71692L138.482 3.98645C137.717 4.34237 136.888 4.34458 136.115 3.99817L135.552 3.75208L134.99 3.49426C134.855 3.43371 134.763 3.43738 134.697 3.44739L133.572 3.61145C133.236 3.66255 132.901 3.73306 132.564 3.81067L131.439 4.06848C131.04 4.1605 130.632 4.24352 130.232 4.31458L129.669 4.40833L129.107 4.51379C128.349 4.64722 127.621 4.48278 126.986 4.12708L126.423 3.81067L125.873 3.49426L125.38 3.67004L124.818 3.85754C124.335 4.01645 123.841 4.11185 123.341 4.15051L122.216 4.24426C121.702 4.28382 121.188 4.24139 120.681 4.13879L120.119 4.03333L119.556 3.91614C119.466 3.89784 119.366 3.89328 119.24 3.93958L118.115 4.36145C117.464 4.60005 116.778 4.64243 116.099 4.46692L115.537 4.31458L114.974 4.17395C114.556 4.06562 114.135 3.93376 113.72 3.78723L112.595 3.38879C112.538 3.36922 112.507 3.37131 112.455 3.38879L111.33 3.76379C110.865 3.92025 110.39 4.03175 109.912 4.09192L108.787 4.23254C108.09 4.32013 107.415 4.18145 106.806 3.88098L106.244 3.61145L105.681 3.3302C105.483 3.23304 105.319 3.20384 105.189 3.20129L104.064 3.17786C103.85 3.17425 103.628 3.20325 103.396 3.27161L102.271 3.59973C101.686 3.77189 101.082 3.81725 100.478 3.71692L99.353 3.52942C99.137 3.49354 98.924 3.49523 98.7085 3.52942L98.146 3.61145L97.5835 3.7052C97.1106 3.78016 96.6301 3.80802 96.1538 3.78723L95.0288 3.74036C94.5229 3.71786 94.0183 3.62088 93.5288 3.47083L92.9663 3.30676L92.4038 3.13098C92.3077 3.1023 92.2267 3.10438 92.1343 3.13098L91.5718 3.28333L91.0093 3.44739C90.5218 3.58743 90.0228 3.67636 89.521 3.69348L88.9585 3.7052L88.396 3.72864C87.8611 3.74643 87.3313 3.67607 86.814 3.52942L86.2515 3.37708L85.689 3.21301C85.4716 3.1515 85.267 3.13156 85.0679 3.1427L84.5054 3.17786L83.9429 3.20129C83.4713 3.22908 82.9943 3.21837 82.5249 3.15442L81.9624 3.07239L81.4233 3.00208C81.4061 3.01155 81.3832 3.03868 81.353 3.06067L80.228 3.88098C79.8671 4.14251 79.4167 4.34795 78.8921 4.38489C78.3572 4.42254 77.8689 4.27199 77.4624 4.03333L76.3374 3.37708C76.2008 3.29702 76.1366 3.29345 76.1147 3.29504L75.5522 3.34192L74.9897 3.40051C74.5227 3.44312 74.0504 3.44514 73.5835 3.40051L72.4585 3.28333C72.3527 3.27317 72.2241 3.29557 72.0601 3.36536L70.9351 3.83411C70.3244 4.09389 69.6715 4.19301 69.0015 4.09192L67.8765 3.92786C67.5328 3.8759 67.1882 3.82908 66.8452 3.79895L65.7202 3.7052C65.5404 3.68942 65.3474 3.70402 65.146 3.76379L64.5835 3.92786L64.021 4.10364C63.4068 4.28487 62.7734 4.30342 62.146 4.16223L61.5835 4.03333L61.021 3.91614C60.9039 3.88975 60.7896 3.88793 60.6577 3.92786L60.0952 4.09192L59.5327 4.2677C58.9326 4.44916 58.3118 4.491 57.6929 4.37317L57.1304 4.25598L56.5679 4.15051C56.2213 4.08451 55.8707 4.03189 55.5249 3.98645L54.9624 3.91614L54.3999 3.83411C54.2731 3.81808 54.1388 3.83658 53.978 3.8927L52.853 4.29114C52.1471 4.54008 51.4093 4.52542 50.7085 4.2677L50.146 4.06848L49.5835 3.85754C49.5032 3.82797 49.4548 3.82856 49.396 3.84583L48.271 4.17395C47.7837 4.31694 47.2847 4.39922 46.7827 4.42004L45.6577 4.46692C45.3021 4.4817 44.947 4.51052 44.5913 4.53723L44.0288 4.57239L43.4663 4.61926C42.919 4.66044 42.3691 4.60791 41.8374 4.46692L40.7124 4.16223C40.338 4.06294 39.9618 3.96944 39.5874 3.86926L38.4624 3.56458C38.1299 3.47563 37.7962 3.39908 37.4663 3.34192L36.9038 3.24817L36.3765 3.15442C36.3644 3.15877 36.3384 3.17305 36.2944 3.20129L35.1694 3.92786C34.7992 4.16774 34.3494 4.34228 33.8452 4.36145C33.336 4.37992 32.8672 4.23605 32.4741 4.00989L31.9116 3.69348L31.3491 3.36536C31.2057 3.28299 31.1436 3.29329 31.1265 3.29504L30.564 3.34192L30.0015 3.40051C29.6928 3.43214 29.3769 3.49048 29.064 3.56458L28.5015 3.69348L27.939 3.83411C27.3494 3.97273 26.7501 3.97395 26.1577 3.84583L25.5952 3.72864L25.0327 3.59973H25.021C25.016 3.60052 24.9831 3.60566 24.9272 3.63489L24.3647 3.93958L23.8022 4.23254C23.0298 4.64171 22.1655 4.68566 21.353 4.31458L20.228 3.79895C19.9362 3.66532 19.6454 3.57071 19.3726 3.50598L18.8101 3.36536L18.2476 3.23645C17.9814 3.17372 17.7195 3.14447 17.4624 3.1427L16.8999 3.13098H16.3374C16.1588 3.12993 15.9658 3.16762 15.7515 3.24817L14.6265 3.67004C14.191 3.83368 13.7457 3.96751 13.3022 4.06848L12.1772 4.32629C11.7032 4.43384 11.2178 4.48476 10.7358 4.49036L10.1733 4.50208H9.61084C9.0206 4.50813 8.4442 4.39758 7.8999 4.17395L6.7749 3.7052C6.47911 3.58395 6.18979 3.49691 5.90771 3.43567L5.34521 3.30676L4.78271 3.18958C4.66921 3.16498 4.55205 3.17119 4.41943 3.21301L4.13818 3.29504V3.31848L3.95068 3.76379L3.7749 4.19739C3.68707 4.40891 3.59803 4.67476 3.51709 4.99426L3.23584 6.11926L3.22412 6.13098C3.22435 6.13293 3.23395 6.16159 3.25928 6.21301L3.52881 6.77551L3.81006 7.33801C4.05685 7.83938 4.23537 8.36269 4.31396 8.90833L4.38428 9.47083L4.46631 10.0333C4.53672 10.5224 4.55693 11.0186 4.51318 11.5099L4.46631 12.0724L4.40771 12.6349C4.37252 13.0295 4.3308 13.4241 4.27881 13.8185L4.2085 14.381L4.12646 14.9435C4.05771 15.4648 3.91531 15.9757 3.70459 16.4669L3.47021 17.0294L3.22412 17.5919C3.1536 17.7572 3.14429 17.8836 3.15381 17.9904L3.24756 19.1154C3.26774 19.3412 3.32616 19.5778 3.42334 19.8302L3.63428 20.3927L3.85693 20.9552C4.03781 21.4239 4.16763 21.9101 4.24365 22.3966L4.3374 22.9591L4.41943 23.5216C4.50849 24.0958 4.47801 24.6694 4.3374 25.2325L4.05615 26.3575C3.98158 26.6548 3.93914 26.9575 3.91553 27.2482L3.82178 28.3732C3.79292 28.7287 3.76863 29.0841 3.75146 29.4396L3.72803 30.0021L3.69287 30.5646C3.68111 30.809 3.69876 31.0624 3.75146 31.3146L3.86865 31.8771L3.99756 32.4396C4.14374 33.1374 4.05023 33.8278 3.7749 34.4669L3.52881 35.0294L3.29443 35.5919C3.20142 35.8078 3.15848 35.9974 3.15381 36.1661L3.13037 37.2911C3.11988 37.6701 3.09862 38.0489 3.0835 38.4279L3.03662 39.5529C3.0297 39.7259 3.05735 39.921 3.13037 40.1271L3.52881 41.2521C3.69074 41.7097 3.81909 42.1762 3.89209 42.6466L4.05615 43.7716C4.10889 44.1111 4.17893 44.4504 4.25537 44.7911L4.51318 45.9161L4.5835 46.5372C4.58287 47.1439 4.3793 47.7115 4.05615 48.2013L3.68115 48.7638L3.38818 49.1857L3.56396 49.5607L3.82178 50.1232C4.1527 50.843 4.20385 51.6258 3.92725 52.3849L3.71631 52.9474L3.51709 53.5099C3.40424 53.818 3.30905 54.1249 3.24756 54.424L3.13037 54.9865L3.0249 55.549C3.03017 55.5626 3.04245 55.589 3.06006 55.6193L3.71631 56.7443C4.19105 57.5603 4.21861 58.4913 3.76318 59.3341L3.44678 59.8966L3.14209 60.4591C3.04975 60.629 3.04549 60.7425 3.04834 60.8107L3.09521 61.9357C3.11118 62.3176 3.11982 62.7021 3.13037 63.0841L3.14209 63.6466L3.16553 64.2091C3.16827 64.2935 3.19458 64.4293 3.30615 64.6193L3.9624 65.7443C4.34073 66.3902 4.5193 67.1388 4.36084 67.924L4.12646 69.049C4.07878 69.2873 4.07349 69.5206 4.09131 69.7521L4.12646 70.3146L4.17334 70.8771C4.2183 71.451 4.14573 72.0271 3.97412 72.5763L3.62256 73.7013C3.58189 73.8346 3.57618 73.9496 3.59912 74.0646L3.8335 75.1896C3.9255 75.6343 3.99451 76.0884 4.021 76.5372L4.04443 77.0997L4.07959 77.6622C4.11261 78.2265 4.03807 78.7865 3.86865 79.3263L3.51709 80.4513V80.463C3.51884 80.4698 3.51997 80.4899 3.52881 80.5099L3.78662 81.0724L4.03271 81.6349C4.35401 82.3532 4.39938 83.1323 4.12646 83.8849L3.91553 84.4474L3.71631 85.0099C3.60044 85.3291 3.50824 85.6459 3.43506 85.9591L3.30615 86.5216L3.16553 87.0841C3.10853 87.3288 3.09628 87.5764 3.10693 87.8107L3.15381 88.9357C3.17069 89.3067 3.18357 89.6779 3.20068 90.049L3.23584 90.6115L3.25928 91.174C3.26546 91.308 3.30484 91.4826 3.41162 91.6896L3.69287 92.2521L3.98584 92.8146C4.29412 93.4133 4.45134 94.0772 4.38428 94.7716L4.32568 95.3341L4.27881 95.8966C4.22553 96.4438 4.071 96.9715 3.84521 97.4786L3.59912 98.0411L3.34131 98.6036L3.32959 98.6271L3.34131 98.6154V98.6036L3.76318 99.7286C3.97921 100.31 4.05688 100.923 3.98584 101.545L3.92725 102.108L3.85693 102.67C3.83344 102.878 3.84566 103.087 3.89209 103.303L4.021 103.865L4.13818 104.428C4.30092 105.179 4.17095 105.91 3.8335 106.561L3.24756 107.686C3.15548 107.863 3.12888 107.993 3.13037 108.084L3.15381 108.647L3.16553 109.209C3.16684 109.265 3.17585 109.385 3.29443 109.572L3.65771 110.135L4.00928 110.697C4.39293 111.302 4.6116 112.007 4.53662 112.772L4.48975 113.334L4.43115 113.897C4.39478 114.268 4.35989 114.639 4.32568 115.01L4.26709 115.572L4.22021 116.135C4.19804 116.375 4.21254 116.617 4.25537 116.861L4.44287 117.986C4.52861 118.475 4.56668 118.97 4.53662 119.463L4.46631 120.588C4.43184 121.15 4.29249 121.697 4.06787 122.217L3.57568 123.342C3.45869 123.612 3.3819 123.87 3.34131 124.115L3.24756 124.678L3.16553 125.24C3.11323 125.557 3.07545 125.875 3.06006 126.19L3.03662 126.752L3.00146 127.315C2.98616 127.632 2.99203 127.958 3.01318 128.276L3.0835 129.401C3.1069 129.752 3.13757 130.104 3.17725 130.455L3.24756 131.018L3.30615 131.58C3.35492 132.012 3.3779 132.448 3.37646 132.881V134.006C3.37614 134.202 3.40459 134.415 3.48193 134.639L3.88037 135.764C4.05088 136.26 4.15589 136.769 4.18506 137.287L4.2085 137.85L4.24365 138.412C4.267 138.829 4.26843 139.249 4.25537 139.666L4.24365 140.229L4.22021 140.791C4.20804 141.176 4.19404 141.566 4.17334 141.951L4.13818 142.514L4.11475 143.076C4.09805 143.387 4.10296 143.703 4.12646 144.014L4.16162 144.576L4.2085 145.139C4.242 145.584 4.23992 146.029 4.2085 146.475L4.17334 147.037L4.12646 147.6C4.09055 148.105 3.99476 148.613 3.8335 149.1L3.4585 150.225C3.42677 150.323 3.42481 150.398 3.44678 150.483L3.75146 151.608C3.86744 152.041 3.96059 152.482 4.021 152.92L4.09131 153.483L4.17334 154.045C4.25052 154.607 4.22259 155.169 4.09131 155.721L3.95068 156.283L3.82178 156.846C3.75951 157.107 3.72649 157.368 3.72803 157.619V158.182L3.73975 158.744C3.74253 159.31 3.63167 159.865 3.43506 160.397L3.23584 160.959L3.0249 161.498L3.29443 162.049L3.56396 162.611C3.82963 163.176 3.96937 163.783 3.95068 164.416L3.93896 164.979L3.91553 165.541C3.89874 166.099 3.77955 166.647 3.57568 167.17L3.36475 167.733L3.14209 168.272L3.63428 169.397C3.83669 169.862 3.99283 170.341 4.09131 170.826L4.2085 171.389L4.31396 171.951C4.41521 172.45 4.46045 172.957 4.43115 173.463L4.36084 174.588C4.33604 175.015 4.28964 175.441 4.22021 175.865L4.03271 176.99C4.00606 177.154 4.01105 177.319 4.05615 177.494L4.2085 178.057L4.34912 178.619C4.55799 179.424 4.4119 180.209 4.021 180.881L3.36475 182.006C3.27749 182.157 3.28072 182.228 3.28271 182.252L3.37646 183.377C3.39893 183.65 3.4488 183.926 3.52881 184.209L3.68115 184.772L3.84521 185.334C4.01428 185.93 4.04506 186.552 3.92725 187.162L3.82178 187.725L3.70459 188.287C3.64792 188.582 3.61924 188.875 3.61084 189.166L3.59912 189.729L3.5874 189.799L4.09131 189.986C4.22487 190.038 4.38301 190.073 4.57178 190.068L5.69678 190.045C6.11457 190.036 6.53316 190.04 6.95068 190.068L7.51318 190.104L8.07568 190.151C8.31029 190.166 8.54793 190.143 8.79053 190.092L9.91553 189.858C10.3311 189.77 10.7521 189.698 11.1694 189.647L12.2944 189.506C12.6616 189.46 13.0289 189.415 13.396 189.365L13.9585 189.295L14.521 189.213C14.9717 189.153 15.4277 189.132 15.8804 189.143L17.0054 189.166C17.502 189.178 17.9974 189.248 18.4819 189.377L19.6069 189.682C20.0473 189.799 20.4872 189.949 20.9194 190.127L21.4819 190.361L22.0444 190.584C22.1179 190.614 22.1503 190.617 22.1851 190.608L23.3101 190.279C23.7358 190.159 24.1695 190.071 24.5991 189.998L25.1616 189.904L25.7241 189.799C26.0908 189.737 26.4589 189.679 26.8257 189.611L27.9507 189.401C28.5334 189.293 29.1208 189.31 29.6968 189.447L30.2593 189.576L30.8218 189.717C31.0037 189.76 31.1755 189.757 31.3491 189.729L31.9116 189.647L32.4741 189.553C33.195 189.434 33.8974 189.565 34.5249 189.881L35.6499 190.443C35.7533 190.495 35.7948 190.494 35.814 190.49L36.3765 190.373L36.939 190.268C37.2183 190.214 37.5125 190.137 37.8062 190.022L38.9312 189.576C39.4951 189.355 40.0915 189.255 40.7007 189.295L41.8257 189.365C42.3679 189.401 42.8984 189.525 43.4077 189.729L44.5327 190.174C44.679 190.232 44.7868 190.246 44.8843 190.233L46.0093 190.068C46.2644 190.032 46.5312 189.964 46.8062 189.858L47.3687 189.647L47.9312 189.424C48.827 189.077 49.7171 189.253 50.439 189.74L51.0015 190.127L51.353 190.361L51.6812 190.186L52.2437 189.881C52.8773 189.526 53.596 189.364 54.353 189.494L55.478 189.682C55.6468 189.711 55.8158 189.702 55.9937 189.658L56.5562 189.518L57.1187 189.389C57.5538 189.282 57.9917 189.204 58.4312 189.154L58.9937 189.084L59.5562 189.026C60.2244 188.95 60.8684 189.07 61.4663 189.342L62.5913 189.858C62.8741 189.986 63.1504 190.07 63.4116 190.127L63.9741 190.256L64.5366 190.373C64.5834 190.383 64.6418 190.384 64.7476 190.338L65.8726 189.846C66.3878 189.622 66.9336 189.49 67.4897 189.447L68.6147 189.354C69.2036 189.309 69.7816 189.395 70.3374 189.588L70.8999 189.787L71.4624 189.975C71.6398 190.037 71.7989 190.059 71.9429 190.045L73.0679 189.928C73.3765 189.897 73.6926 189.849 74.0054 189.776L74.5679 189.647L75.1304 189.506C75.5311 189.412 75.9358 189.332 76.3374 189.26L76.8999 189.154L77.4624 189.061L78.0952 189.026C78.7107 189.06 79.2661 189.3 79.7358 189.647L80.2983 190.057L80.5796 190.268L81.3882 189.729C81.9382 189.362 82.5659 189.105 83.2515 189.061L84.3765 188.99C85.0466 188.948 85.6908 189.107 86.2749 189.401L87.3999 189.963C87.5024 190.014 87.5388 190.001 87.5522 189.998L88.6772 189.764C89.2762 189.643 89.8796 189.67 90.4702 189.822L91.0327 189.963L91.5952 190.115C91.9151 190.198 92.2403 190.259 92.5562 190.303L93.1187 190.373L93.6812 190.455C93.8108 190.473 93.9524 190.464 94.1147 190.408L94.6772 190.209L95.2397 190.022C95.662 189.876 96.0903 189.745 96.5171 189.647L97.6421 189.389C98.3434 189.228 99.046 189.312 99.6929 189.588L100.255 189.822L100.818 190.068C100.948 190.123 101.037 190.127 101.111 190.115L102.236 189.928C102.653 189.861 103.071 189.817 103.49 189.787L104.052 189.74L104.615 189.705C105.175 189.666 105.739 189.733 106.279 189.893L106.841 190.057L107.357 190.209C107.364 190.206 107.38 190.204 107.392 190.197L107.955 189.904L108.517 189.6C109.091 189.291 109.722 189.111 110.392 189.131L110.955 189.154L111.517 189.166C112.108 189.184 112.679 189.333 113.216 189.576L113.779 189.834L114.341 190.08C114.549 190.174 114.728 190.218 114.88 190.221H115.443L116.005 190.233C116.229 190.237 116.458 190.216 116.697 190.151L117.259 189.986L117.822 189.834C118.483 189.652 119.165 189.671 119.814 189.881L120.376 190.068L120.939 190.244C121.167 190.317 121.379 190.351 121.583 190.35H122.146L122.708 190.338C122.999 190.335 123.293 190.307 123.587 190.256L124.15 190.162L124.712 190.057C125.007 190.005 125.311 189.937 125.615 189.834L126.177 189.635L126.74 189.447L127.314 189.307C127.893 189.231 128.468 189.342 129.001 189.6L130.126 190.139H130.138L130.689 189.963L131.251 189.776C132.023 189.518 132.807 189.593 133.513 189.94L134.076 190.209L134.462 190.397L134.896 190.151L135.458 189.822C136.073 189.459 136.78 189.272 137.533 189.365L138.658 189.506C138.997 189.548 139.339 189.581 139.677 189.6L140.24 189.623L140.802 189.658C141.287 189.684 141.77 189.763 142.244 189.893L143.369 190.197C143.693 190.286 144.021 190.357 144.341 190.408L145.466 190.596C145.611 190.619 145.759 190.609 145.923 190.561L146.486 190.397L147.048 190.221C147.658 190.04 148.288 190.016 148.912 190.151L149.474 190.279L150.037 190.397C150.337 190.462 150.643 190.497 150.939 190.514L151.501 190.549L152.052 190.572C152.071 190.566 152.132 190.552 152.216 190.49L153.341 189.67C153.801 189.334 154.339 189.089 154.935 189.037L155.544 189.049L156.107 189.131L156.669 189.201C157.064 189.253 157.459 189.308 157.853 189.377L158.416 189.483L158.978 189.576C159.264 189.626 159.552 189.648 159.833 189.647H160.958C161.499 189.643 162.034 189.728 162.552 189.893L163.677 190.244C163.862 190.303 164.034 190.32 164.193 190.303L165.318 190.186C165.61 190.154 165.909 190.092 166.208 190.01L167.333 189.705C167.815 189.574 168.304 189.5 168.798 189.483L169.923 189.436C170.491 189.416 171.049 189.508 171.587 189.693L172.15 189.893L172.712 190.08C172.924 190.153 173.117 190.179 173.298 190.174L174.423 190.151C174.875 190.137 175.332 190.153 175.783 190.209L176.908 190.35C177.165 190.382 177.424 190.389 177.681 190.361L178.244 190.291L178.806 190.233C179.132 190.197 179.463 190.149 179.791 190.08L180.353 189.963L180.916 189.834C181.535 189.704 182.161 189.741 182.767 189.916L183.33 190.068L183.892 190.233C183.959 190.252 184.018 190.263 184.103 190.233L184.666 190.033L185.228 189.822C185.775 189.629 186.347 189.547 186.927 189.576L188.052 189.623C188.339 189.637 188.631 189.636 188.919 189.6L190.044 189.459C190.489 189.404 190.934 189.379 191.38 189.389L192.505 189.412C192.817 189.419 193.131 189.409 193.443 189.377L194.568 189.26C195.04 189.211 195.514 189.205 195.986 189.248L196.548 189.307L197.111 189.354C197.631 189.401 198.14 189.527 198.634 189.717L199.197 189.928L199.759 190.151C199.842 190.182 199.894 190.177 199.947 190.162L200.509 190.01L201.072 189.846C201.532 189.716 201.997 189.629 202.466 189.588L203.591 189.494C204.122 189.448 204.652 189.484 205.173 189.6L205.736 189.717L206.298 189.846C206.377 189.863 206.465 189.865 206.58 189.822L207.705 189.401L208.349 189.248C208.774 189.2 209.189 189.256 209.58 189.401L210.142 189.682L211.267 190.385C211.414 190.477 211.486 190.48 211.501 190.479L212.064 190.443L212.626 190.397C212.833 190.383 213.055 190.338 213.294 190.244L214.419 189.799C214.882 189.616 215.358 189.486 215.837 189.401L216.4 189.295L216.962 189.201C217.432 189.118 217.906 189.075 218.38 189.084L219.505 189.108C219.922 189.116 220.343 189.146 220.759 189.19L224.134 189.541C224.399 189.57 224.666 189.571 224.931 189.541L225.494 189.471L226.056 189.412C226.662 189.344 227.264 189.416 227.837 189.611L228.927 189.975L230.052 189.412C230.656 189.109 231.326 188.971 232.021 189.049L233.146 189.166C233.553 189.212 233.959 189.279 234.365 189.354L234.927 189.459L235.49 189.553C235.76 189.603 236.033 189.631 236.298 189.623L236.861 189.6L236.955 189.588L237.083 189.248C237.121 189.143 237.164 188.983 237.166 188.744V187.619L237.048 187.197L236.755 186.635L236.451 186.072C236.114 185.436 235.976 184.718 236.111 183.975L236.205 183.412L236.31 182.85C236.362 182.563 236.392 182.276 236.392 181.994V180.869C236.392 180.4 236.433 179.927 236.521 179.463ZM1.30225 178.807L1.16162 178.244C1.01417 177.674 0.984766 177.093 1.07959 176.51L1.16162 175.947L1.25537 175.385C1.3083 175.061 1.34216 174.734 1.36084 174.412L1.43115 173.287C1.44523 173.044 1.42327 172.799 1.37256 172.549L1.26709 171.986L1.1499 171.424C1.09608 171.159 1.0045 170.877 0.880371 170.592L0.634277 170.029L0.399902 169.467C0.0827568 168.737 0.0502986 167.954 0.341309 167.205L0.786621 166.08C0.875162 165.853 0.909763 165.639 0.915527 165.447L0.938965 164.885L0.950684 164.322C0.953226 164.209 0.930594 164.07 0.845215 163.889L0.587402 163.326L0.317871 162.764C-0.0239879 162.04 -0.0718294 161.247 0.212402 160.479L0.411621 159.916L0.622559 159.354C0.702771 159.137 0.74086 158.939 0.739746 158.756L0.728027 158.193V157.631C0.725107 157.134 0.788027 156.642 0.903809 156.154L1.03271 155.592L1.17334 155.029C1.22023 154.833 1.2223 154.642 1.19678 154.455L1.12646 153.893L1.04443 153.33C1.00144 153.018 0.941576 152.697 0.856934 152.381L0.552246 151.256C0.376201 150.595 0.396975 149.922 0.61084 149.276L0.98584 148.151C1.07251 147.888 1.12083 147.633 1.13818 147.389L1.17334 146.826L1.22021 146.264C1.24143 145.963 1.24296 145.662 1.22021 145.361L1.12646 144.236C1.09324 143.797 1.0911 143.352 1.11475 142.912L1.1499 142.35L1.17334 141.787C1.19279 141.425 1.20877 141.06 1.22021 140.697L1.24365 140.135L1.25537 139.572C1.26571 139.242 1.26214 138.907 1.24365 138.576L1.22021 138.014L1.18506 137.451C1.1718 137.224 1.13028 136.986 1.04443 136.736L0.645996 135.611C0.556054 135.35 0.492788 135.083 0.446777 134.815L0.376465 133.994V132.869L0.32959 131.92L0.259277 131.358L0.200684 130.795C0.155874 130.398 0.121688 129.997 0.0952148 129.6L0.0249023 128.475C-0.00385473 128.043 -0.00764996 127.606 0.0131836 127.174L0.0600586 126.049C0.080989 125.616 0.129576 125.179 0.200684 124.748L0.388184 123.623C0.471323 123.123 0.616694 122.634 0.821777 122.158L1.31396 121.033C1.41211 120.806 1.45423 120.597 1.46631 120.412L1.53662 119.287C1.55232 119.031 1.5355 118.763 1.48975 118.502L1.396 117.94L1.29053 117.377C1.20317 116.876 1.1858 116.371 1.23193 115.865L1.29053 115.303L1.3374 114.74C1.37218 114.363 1.40589 113.981 1.44287 113.604L1.56006 112.479C1.56032 112.476 1.55336 112.462 1.54834 112.443C1.54127 112.42 1.52283 112.374 1.47803 112.303L1.12646 111.74L0.763184 111.178C0.406637 110.615 0.181809 109.973 0.165527 109.279L0.14209 108.154C0.127369 107.497 0.291149 106.872 0.587402 106.303L1.17334 105.178C1.2019 105.122 1.20747 105.091 1.2085 105.084V105.061L1.07959 104.498L0.962402 103.936C0.848056 103.406 0.819158 102.868 0.880371 102.33L0.938965 101.768L1.00928 101.205C1.02362 101.08 1.01309 100.939 0.950684 100.772L0.528809 99.6466C0.247501 98.8928 0.276231 98.1086 0.599121 97.3849L0.856934 96.8224L1.10303 96.2599C1.2101 96.0198 1.27125 95.8033 1.29053 95.6036L1.3374 95.0411L1.396 94.4786C1.4012 94.4243 1.40235 94.3349 1.32568 94.1857L0.739746 93.0607C0.45982 92.5178 0.287689 91.9304 0.259277 91.3146L0.212402 90.1896C0.195124 89.8151 0.170844 89.4391 0.153809 89.0646L0.106934 87.9396C0.0836518 87.4244 0.129969 86.9092 0.247559 86.4044L0.505371 85.2794C0.60629 84.8466 0.737389 84.4171 0.89209 83.9904L1.10303 83.4279L1.30225 82.8654L1.04443 82.3029L0.79834 81.7404C0.488389 81.0475 0.424998 80.2904 0.657715 79.549L1.00928 78.424C1.07482 78.2151 1.10199 78.0225 1.09131 77.838L1.021 76.713C1.00322 76.4118 0.966978 76.1043 0.903809 75.799L0.669434 74.674C0.539466 74.0436 0.572315 73.4098 0.763184 72.799L1.11475 71.674C1.17713 71.4737 1.19882 71.2871 1.18506 71.1115L1.09131 69.9865C1.05142 69.4723 1.08277 68.9585 1.18506 68.4513L1.30225 67.8888L1.41943 67.3497L1.40771 67.3263C1.40229 67.3124 1.39049 67.2865 1.37256 67.256L0.716309 66.131C0.389182 65.5736 0.184187 64.9557 0.165527 64.2911L0.153809 63.7286L0.130371 63.1661C0.120239 62.7995 0.11052 62.4313 0.0952148 62.0646L0.0483398 60.9396C0.0198529 60.2579 0.190209 59.6094 0.505371 59.0294L0.821777 58.4669L1.03271 58.0802L0.79834 57.6935L0.470215 57.131C0.0931025 56.4838 -0.076373 55.7351 0.0834961 54.9513L0.317871 53.8263C0.410507 53.3755 0.531095 52.9203 0.692871 52.4786L0.903809 51.9161L1.10303 51.3654L0.845215 50.8146L0.587402 50.2521C0.176515 49.3583 0.307471 48.4356 0.810059 47.674L1.17334 47.1115L1.54834 46.549C1.5606 46.5304 1.56633 46.5125 1.57178 46.5021L1.45459 46.0099L1.32568 45.4474C1.23471 45.0418 1.15444 44.6355 1.09131 44.2286L0.927246 43.1036C0.884043 42.8252 0.807779 42.5394 0.70459 42.2482L0.306152 41.1232C0.113593 40.5794 0.0252911 40.0124 0.0483398 39.4357L0.0717773 38.8732L0.0834961 38.3107C0.0981665 37.9434 0.120204 37.5764 0.130371 37.2091L0.153809 36.0841C0.169865 35.5035 0.310893 34.9419 0.540527 34.4083L0.774902 33.8458L1.021 33.2833C1.0673 33.1758 1.06624 33.1117 1.05615 33.0607L0.821777 31.9357C0.717566 31.4385 0.6803 30.9289 0.70459 30.424L0.751465 29.299C0.770287 28.9081 0.80175 28.5178 0.833496 28.1271L0.880371 27.5646L0.915527 27.0021C0.952851 26.5427 1.03634 26.0837 1.1499 25.631L1.43115 24.506C1.47667 24.3232 1.48144 24.1504 1.45459 23.9786L1.37256 23.4161L1.27881 22.8536C1.23759 22.5905 1.16452 22.3142 1.05615 22.0333L0.845215 21.4708L0.622559 20.9083C0.432263 20.414 0.306059 19.9056 0.259277 19.3849L0.165527 18.2599C0.108177 17.6172 0.219954 16.9919 0.470215 16.4083L0.70459 15.8458L0.950684 15.2833C1.06102 15.0261 1.13123 14.7842 1.16162 14.5568L1.30225 13.4318C1.34893 13.0778 1.38793 12.719 1.41943 12.3654L1.47803 11.8029L1.5249 11.2404C1.54779 10.9833 1.5384 10.7261 1.50146 10.4669L1.3374 9.34192C1.30808 9.13824 1.23694 8.91029 1.11475 8.66223L0.845215 8.09973L0.563965 7.53723C0.235699 6.87083 0.128787 6.12978 0.317871 5.38098L0.470215 4.81848L0.61084 4.25598C0.719692 3.82631 0.843553 3.42018 0.997559 3.04895L1.05615 2.90833C0.860353 2.47248 0.897467 2.01998 1.04443 1.68958C1.18099 1.38332 1.38046 1.20376 1.44287 1.15051C1.53038 1.07587 1.61062 1.02424 1.65381 0.998169C1.74135 0.945475 1.82451 0.910484 1.86475 0.8927C2.01767 0.825465 2.22445 0.761756 2.40381 0.7052L3.52881 0.353638C4.14485 0.160047 4.7805 0.122388 5.41553 0.259888L5.97803 0.377075L6.54053 0.505981C7.0065 0.606964 7.47128 0.742126 7.92334 0.927856L9.04834 1.39661C9.25049 1.47908 9.43074 1.5039 9.5874 1.50208H10.1499L10.7124 1.49036C10.9766 1.48688 11.2489 1.45857 11.521 1.39661L12.646 1.13879C12.9505 1.0692 13.2594 0.974977 13.5718 0.857544L14.6968 0.435669C15.2317 0.23465 15.7901 0.127052 16.3608 0.130981H16.9233L17.4858 0.1427C17.9766 0.146187 18.4691 0.20425 18.9507 0.318481L19.5132 0.447388L20.0757 0.588013C20.5494 0.700797 21.0152 0.860383 21.4702 1.06848L22.0327 1.32629L22.478 1.53723L22.9585 1.29114L23.521 0.98645C24.1727 0.641338 24.9081 0.506479 25.6655 0.670044L26.228 0.79895L26.7905 0.916138C26.9459 0.949747 27.101 0.95362 27.2593 0.916138L27.8218 0.775513L28.3843 0.646606C28.8197 0.543722 29.2571 0.468999 29.6968 0.42395L30.8218 0.306763C31.5544 0.231789 32.2433 0.415203 32.8491 0.763794L33.4116 1.09192L33.728 1.27942L34.0913 1.04504L34.6538 0.681763C35.1288 0.373998 35.6757 0.175163 36.2593 0.154419L36.8569 0.201294L37.9819 0.388794C38.4015 0.461543 38.8189 0.558504 39.2358 0.670044L40.3608 0.974731C40.7346 1.07472 41.1121 1.16859 41.4858 1.2677L42.0483 1.42004L42.6108 1.56067C42.8271 1.61793 43.031 1.64555 43.2319 1.63098L44.3569 1.53723C44.7487 1.50776 45.1487 1.49489 45.5405 1.47864L46.6655 1.43176C46.9123 1.42125 47.1661 1.37942 47.4272 1.30286L47.9897 1.13879L48.5522 0.963013C49.2424 0.760945 49.946 0.799176 50.6147 1.04504L51.1772 1.24426L51.7397 1.4552C51.7757 1.46843 51.7948 1.46689 51.7983 1.46692C51.8018 1.46695 51.8145 1.46565 51.8452 1.4552L52.9702 1.05676C53.556 0.850201 54.1774 0.787665 54.7983 0.869263L55.9233 1.00989C56.326 1.06287 56.7285 1.13255 57.1304 1.20911L58.2554 1.42004C58.3859 1.44485 58.5162 1.44181 58.6655 1.39661L59.228 1.22083L59.7905 1.05676C60.4081 0.869906 61.0448 0.844127 61.6772 0.98645L62.2397 1.11536L62.8022 1.23254C62.9225 1.25964 63.0436 1.26049 63.1772 1.22083L64.3022 0.8927C64.8491 0.730872 65.4098 0.667321 65.978 0.716919L67.103 0.810669C67.5091 0.846295 67.9164 0.90176 68.3218 0.963013L69.4468 1.12708C69.5264 1.13912 69.6241 1.13938 69.7632 1.0802L70.3257 0.834106L70.8882 0.599731C71.4732 0.351008 72.0966 0.245401 72.7397 0.306763L73.3022 0.353638L73.8647 0.412231C74.1453 0.439172 74.428 0.437547 74.7085 0.412231L75.271 0.365356L75.8335 0.306763C76.5672 0.239824 77.2588 0.433815 77.8608 0.787231L78.4233 1.11536L78.7046 1.29114L79.0327 1.04504L79.5952 0.634888C80.2077 0.189279 80.9589 -0.0881657 81.7983 0.0255127L82.3608 0.107544L82.9233 0.177856C83.2006 0.215804 83.4803 0.228858 83.7554 0.213013L84.8804 0.1427C85.4293 0.110359 85.9789 0.179845 86.5093 0.3302L87.0718 0.482544L87.6343 0.646606C87.865 0.711867 88.089 0.735911 88.3022 0.728638L88.8647 0.7052L89.4272 0.693481C89.6729 0.684753 89.9291 0.639377 90.189 0.564575L90.7515 0.400513L91.314 0.248169C91.969 0.0602423 92.6439 0.0604712 93.2944 0.259888L94.4194 0.61145C94.676 0.689519 94.9291 0.729864 95.1694 0.740356L96.2944 0.787231C96.5662 0.798769 96.8396 0.784021 97.1147 0.740356L97.6772 0.646606L98.2397 0.564575C98.7741 0.479804 99.3114 0.475936 99.8452 0.564575L100.97 0.752075C101.115 0.776184 101.263 0.776974 101.427 0.728638L101.99 0.552856L102.552 0.388794C103.067 0.237394 103.6 0.167377 104.134 0.177856L105.259 0.201294C105.876 0.214325 106.469 0.376416 107.017 0.646606L107.58 0.916138L108.142 1.19739C108.28 1.26472 108.359 1.26258 108.412 1.25598L109.537 1.11536C109.807 1.08136 110.085 1.02316 110.369 0.927856L110.931 0.740356L111.494 0.541138C112.188 0.307417 112.914 0.320901 113.603 0.564575L114.728 0.963013C115.062 1.08081 115.394 1.18198 115.724 1.2677L116.287 1.40833L116.849 1.56067C116.919 1.57875 116.986 1.57325 117.083 1.53723L117.646 1.33801L118.208 1.12708C118.83 0.899071 119.485 0.842286 120.142 0.974731L121.267 1.20911C121.508 1.25801 121.748 1.26207 121.982 1.24426L122.544 1.20911L123.107 1.16223C123.355 1.14313 123.615 1.09725 123.88 1.00989L125.005 0.634888C125.818 0.3674 126.632 0.485757 127.337 0.880981L128.462 1.51379C128.523 1.54735 128.557 1.55868 128.568 1.56067H128.591L129.154 1.4552L129.716 1.36145C130.064 1.29962 130.411 1.21909 130.759 1.13879L131.884 0.880981C132.296 0.786242 132.714 0.709399 133.126 0.646606L133.689 0.564575L134.251 0.470825C134.933 0.367845 135.595 0.4887 136.208 0.763794L136.771 1.00989L137.263 1.24426L137.779 0.998169L138.341 0.740356C138.916 0.472648 139.537 0.331107 140.181 0.365356L140.744 0.400513L141.306 0.42395C141.673 0.443457 142.04 0.467154 142.408 0.482544L143.533 0.529419C143.807 0.540912 144.087 0.52524 144.365 0.482544L144.927 0.388794L145.49 0.306763C146.249 0.189146 146.972 0.367128 147.599 0.728638L148.162 1.05676L148.63 1.32629L149.064 1.13879L149.626 0.8927C150.301 0.602423 151.037 0.537434 151.759 0.740356L152.322 0.904419L152.884 1.05676C153.086 1.11313 153.275 1.13275 153.458 1.11536L154.021 1.05676L154.583 1.00989C154.869 0.982873 155.157 0.926092 155.451 0.845825L156.576 0.541138C157.068 0.406472 157.57 0.337005 158.076 0.3302L159.201 0.306763C159.645 0.301118 160.094 0.332352 160.537 0.388794L161.662 0.529419C162.027 0.576034 162.398 0.619138 162.763 0.658325L163.326 0.716919L163.888 0.787231C164.108 0.810427 164.33 0.796934 164.556 0.752075L165.119 0.634888L165.681 0.529419C166.236 0.419279 166.8 0.410001 167.357 0.505981L168.482 0.693481C168.872 0.760696 169.264 0.836234 169.654 0.916138L170.779 1.15051C170.969 1.18905 171.154 1.19517 171.341 1.16223L171.904 1.05676L172.466 0.963013C173.024 0.864956 173.586 0.864155 174.142 0.974731L175.267 1.20911C175.547 1.26485 175.825 1.29126 176.099 1.29114H177.224C177.321 1.29099 177.459 1.26209 177.646 1.16223L178.208 0.857544L178.771 0.564575L179.427 0.306763C180.096 0.150466 180.777 0.283806 181.384 0.658325L181.947 0.998169L182.427 1.30286L182.861 1.12708L183.423 0.916138C183.96 0.704715 184.522 0.587868 185.099 0.588013H186.224C186.633 0.588169 187.046 0.595403 187.455 0.623169L188.017 0.670044L188.58 0.7052C188.942 0.729812 189.307 0.747283 189.669 0.763794L190.232 0.787231L190.794 0.822388C190.94 0.828703 191.107 0.804796 191.298 0.728638L191.861 0.494263L192.423 0.271606C193.175 -0.0262323 193.962 -0.00222675 194.697 0.318481L195.822 0.810669C195.966 0.873634 196.07 0.880103 196.15 0.869263L196.712 0.787231L197.275 0.716919C197.602 0.67229 197.93 0.605798 198.259 0.529419L199.384 0.271606C200.176 0.088085 200.94 0.242888 201.599 0.623169L202.162 0.951294L202.701 1.27942L203.205 1.11536L203.767 0.927856C204.31 0.754496 204.874 0.682583 205.443 0.716919L206.568 0.787231C206.986 0.812606 207.405 0.852796 207.822 0.916138L208.384 1.00989L208.947 1.09192C209.088 1.11335 209.239 1.10857 209.404 1.05676L209.966 0.880981L210.529 0.693481C211.183 0.489302 211.862 0.489359 212.521 0.681763L213.646 1.00989C213.918 1.089 214.184 1.13437 214.443 1.15051L215.568 1.22083C215.989 1.24709 216.414 1.29605 216.833 1.36145L217.958 1.52551C217.974 1.528 218.02 1.54004 218.134 1.47864L219.259 0.869263C219.893 0.527097 220.611 0.374979 221.357 0.505981L221.919 0.61145L222.482 0.7052C222.609 0.727646 222.742 0.728805 222.892 0.681763L223.455 0.494263L224.017 0.318481C224.639 0.121019 225.287 0.0933309 225.927 0.23645L226.49 0.353638L227.052 0.482544C227.328 0.544208 227.604 0.572806 227.873 0.576294L228.998 0.599731C229.599 0.608132 230.176 0.750587 230.72 0.998169L231.283 1.24426L231.845 1.50208C231.99 1.56786 232.088 1.5701 232.162 1.56067L233.287 1.42004C233.48 1.39483 233.691 1.32683 233.931 1.20911L234.494 0.939575L235.056 0.658325C235.795 0.294765 236.604 0.249826 237.376 0.5177L238.572 0.939575C238.969 1.07745 239.472 1.34605 239.791 1.88879C240.123 2.4548 240.107 3.05433 239.99 3.50598L239.837 4.06848L239.697 4.63098C239.597 5.01421 239.489 5.39638 239.38 5.77942L239.216 6.34192L239.064 6.90442C239.055 6.93601 239.044 6.96938 239.076 7.04504L239.31 7.60754L239.556 8.17004C239.816 8.78804 239.907 9.45228 239.791 10.1271L239.685 10.6896L239.591 11.2521C239.533 11.5879 239.482 11.9253 239.451 12.2599L239.404 12.8224L239.345 13.3849C239.342 13.421 239.346 13.5059 239.427 13.6544L239.732 14.2169L240.048 14.7794C240.269 15.1817 240.4 15.652 240.365 16.1622C240.33 16.6688 240.133 17.1128 239.884 17.4747L239.111 18.5997C238.98 18.7908 238.972 18.9005 238.97 18.9396L238.947 19.5021L238.912 20.0646C238.899 20.3516 238.921 20.6428 238.958 20.9318L239.099 22.0568C239.119 22.2074 239.179 22.3933 239.31 22.6193L239.966 23.7443C240.195 24.1377 240.337 24.6032 240.318 25.1154C240.299 25.6249 240.128 26.0803 239.884 26.4513L239.509 27.0138L239.322 27.2833L239.533 27.5763L239.931 28.1388C240.387 28.7918 240.628 29.6027 240.423 30.4708L240.283 31.0333L240.154 31.5958C240.087 31.8804 240.049 32.1623 240.037 32.4396L239.99 33.5646C239.968 34.0616 239.882 34.5576 239.744 35.0411L239.58 35.6036L239.427 36.1661C239.35 36.437 239.301 36.7045 239.287 36.963L239.216 38.088C239.216 38.1147 239.223 38.1901 239.31 38.3341L239.662 38.8966L240.001 39.4591C240.396 40.1035 240.582 40.8626 240.423 41.6622L240.318 42.2247L240.201 42.7872C240.17 42.9411 240.173 43.0956 240.212 43.256L240.494 44.381C240.654 45.028 240.634 45.6933 240.435 46.3263L240.083 47.4513C239.977 47.7921 239.883 48.1319 239.802 48.4708L239.662 49.0333L239.533 49.5958C239.465 49.8808 239.417 50.162 239.404 50.4396L239.357 51.5646C239.352 51.6788 239.37 51.8202 239.451 51.9982L239.966 53.1232C240.242 53.7299 240.361 54.3908 240.271 55.0685L240.189 55.631L240.119 56.1935C240.093 56.3864 240.095 56.5889 240.142 56.7911L240.283 57.3536L240.412 57.9161C240.611 58.7871 240.356 59.5881 239.896 60.2365L239.498 60.799L239.228 61.1622L239.404 61.4786L239.697 62.0411C239.97 62.5559 240.163 63.1068 240.236 63.6818L240.376 64.8068C240.428 65.2223 240.453 65.6443 240.47 66.0607L240.517 67.1857C240.548 67.949 240.298 68.6406 239.896 69.2247L239.509 69.7872L239.181 70.256L239.333 70.631L239.556 71.1935C239.85 71.9368 239.841 72.7226 239.533 73.4552L239.298 74.0177L239.064 74.5685L239.287 75.1193L239.521 75.6818C239.701 76.1189 239.854 76.5591 239.966 77.006L240.248 78.131C240.407 78.7648 240.392 79.4143 240.212 80.0411L240.048 80.6036L239.896 81.1661C239.841 81.3574 239.819 81.533 239.837 81.7052L239.908 82.2677L239.966 82.8302C240.023 83.3453 240.008 83.8658 239.919 84.3771L239.814 84.9396L239.72 85.5021C239.7 85.6184 239.705 85.7423 239.755 85.8888L239.943 86.4513L240.142 87.0138C240.315 87.5224 240.408 88.0514 240.423 88.5841L240.447 89.1466L240.458 89.7091C240.476 90.3471 240.332 90.9598 240.06 91.5255L239.521 92.6505C239.414 92.8745 239.358 93.0671 239.345 93.2365L239.31 93.799L239.263 94.3615C239.263 94.3691 239.268 94.3843 239.275 94.4083C239.283 94.4373 239.296 94.4948 239.345 94.5724L239.708 95.1349L240.06 95.6974C240.425 96.2721 240.655 96.9261 240.646 97.6427V98.2052L240.634 98.7677C240.626 99.3891 240.471 99.9856 240.201 100.537L239.919 101.1L239.65 101.662L239.837 102.19L240.037 102.752C240.237 103.322 240.309 103.917 240.248 104.522L240.13 105.647C240.079 106.141 239.966 106.634 239.802 107.111L239.615 107.674L239.416 108.236C239.321 108.512 239.269 108.785 239.24 109.045L239.169 109.608L239.111 110.17C239.109 110.192 239.108 110.251 239.181 110.381L239.814 111.506C240.133 112.071 240.327 112.702 240.33 113.369V114.494C240.332 115.07 240.222 115.633 240.013 116.17L239.791 116.733L239.58 117.295C239.53 117.423 239.518 117.515 239.533 117.6L239.744 118.725C239.816 119.118 239.875 119.515 239.931 119.908L240.095 121.033C240.18 121.626 240.134 122.218 239.966 122.791L239.638 123.916C239.546 124.23 239.475 124.546 239.427 124.854L239.345 125.416L239.251 125.979C239.202 126.296 239.17 126.612 239.158 126.928L239.134 127.49L239.123 128.053C239.107 128.45 239.075 128.851 239.041 129.248L238.947 130.373C238.944 130.405 238.945 130.482 239.029 130.631L239.662 131.756C239.967 132.297 240.158 132.898 240.201 133.526L240.248 134.088L240.283 134.651C240.319 135.183 240.271 135.713 240.142 136.233L239.861 137.358C239.794 137.626 239.76 137.896 239.755 138.154L239.732 139.279C239.726 139.574 239.737 139.874 239.779 140.17L239.943 141.295C240.034 141.951 239.933 142.592 239.685 143.193L239.451 143.756L239.24 144.236L239.509 144.764L239.791 145.326C240.037 145.815 240.22 146.322 240.318 146.85L240.529 147.975C240.633 148.536 240.629 149.102 240.517 149.662L240.4 150.225L240.294 150.787C240.186 151.33 239.982 151.853 239.708 152.346L239.392 152.908L239.087 153.471C239.059 153.522 239.043 153.555 239.041 153.565V153.576L239.275 154.701C239.373 155.182 239.415 155.667 239.404 156.154L239.38 157.279C239.375 157.519 239.401 157.767 239.462 158.018L239.744 159.143C239.909 159.821 239.856 160.502 239.615 161.147L239.193 162.272C239.136 162.423 239.119 162.549 239.134 162.658L239.298 163.783C239.356 164.188 239.396 164.597 239.427 165.002L239.521 166.127C239.553 166.535 239.575 166.949 239.58 167.358V167.92L239.591 168.483C239.595 168.844 239.601 169.211 239.615 169.572L239.638 170.135L239.65 170.697C239.67 171.255 239.599 171.806 239.427 172.338L239.052 173.463L239.064 173.51L239.58 174.635C239.839 175.211 239.961 175.833 239.919 176.475L239.849 177.6C239.821 178.035 239.767 178.468 239.685 178.901L239.474 180.026C239.42 180.309 239.392 180.591 239.392 180.869V181.994C239.392 182.46 239.347 182.928 239.263 183.389L239.052 184.514C239.051 184.52 239.042 184.557 239.099 184.666L239.404 185.229L239.697 185.791C239.996 186.356 240.169 186.977 240.166 187.631V188.756C240.162 189.262 240.088 189.767 239.919 190.244L239.767 190.69L239.603 191.123C239.451 191.554 239.165 191.952 238.736 192.225C238.328 192.484 237.888 192.576 237.517 192.588L236.955 192.6L236.392 192.623C235.91 192.638 235.428 192.594 234.951 192.506L234.388 192.401L233.826 192.307C233.485 192.244 233.145 192.192 232.806 192.154L232.244 192.084L231.681 192.026C231.628 192.02 231.544 192.023 231.4 192.096L230.275 192.658C229.564 193.017 228.771 193.1 227.99 192.834L227.427 192.647L226.865 192.447C226.691 192.388 226.539 192.373 226.396 192.389L225.833 192.459L225.271 192.518C224.788 192.573 224.301 192.581 223.818 192.529L223.255 192.471L222.693 192.401L220.443 192.166C220.111 192.132 219.778 192.114 219.447 192.108L218.322 192.084C218.047 192.079 217.769 192.105 217.49 192.154L216.927 192.248L216.365 192.354C216.094 192.402 215.808 192.475 215.521 192.588L214.396 193.033C213.887 193.234 213.355 193.362 212.814 193.397L211.689 193.467C210.949 193.513 210.264 193.298 209.673 192.928L209.111 192.576L208.607 192.26L208.185 192.424L207.623 192.635C206.988 192.871 206.312 192.925 205.642 192.776L205.08 192.647L204.517 192.529C204.292 192.48 204.076 192.464 203.861 192.483L202.736 192.576C202.457 192.601 202.168 192.659 201.88 192.74L201.318 192.893L200.755 193.057C200.059 193.253 199.348 193.208 198.681 192.951L198.119 192.729L197.556 192.518C197.304 192.421 197.068 192.363 196.841 192.342L196.279 192.295L195.716 192.236C195.44 192.211 195.161 192.22 194.884 192.248L193.759 192.365C193.322 192.411 192.874 192.422 192.435 192.412L191.31 192.389C191.01 192.382 190.709 192.398 190.408 192.436L189.283 192.576C188.823 192.633 188.361 192.646 187.9 192.623L187.337 192.6L186.775 192.565C186.608 192.556 186.425 192.587 186.224 192.658L185.099 193.057C184.436 193.292 183.741 193.312 183.06 193.115L181.935 192.787C181.793 192.746 181.665 192.749 181.537 192.776L180.412 193.01C179.99 193.099 179.559 193.174 179.134 193.221L178.009 193.338C177.519 193.392 177.023 193.388 176.533 193.326L175.408 193.186C175.111 193.149 174.812 193.13 174.517 193.139L173.955 193.162L173.392 193.174C172.827 193.191 172.275 193.1 171.74 192.916L171.177 192.729L170.615 192.529C170.405 192.457 170.209 192.43 170.029 192.436L168.904 192.483C168.649 192.491 168.386 192.527 168.119 192.6L166.994 192.904C166.544 193.027 166.091 193.113 165.634 193.162L165.072 193.221L164.509 193.291C163.918 193.355 163.328 193.284 162.763 193.104L161.638 192.752C161.408 192.679 161.19 192.645 160.982 192.647H159.857C159.391 192.65 158.924 192.61 158.462 192.529L157.337 192.342C156.985 192.28 156.634 192.224 156.283 192.178L155.72 192.108L155.205 192.026C155.189 192.033 155.16 192.06 155.111 192.096L153.986 192.916C153.399 193.345 152.686 193.63 151.888 193.584L150.763 193.514C150.309 193.488 149.853 193.424 149.404 193.326L148.841 193.209L148.279 193.08C148.157 193.054 148.04 193.064 147.904 193.104L146.779 193.432C146.195 193.605 145.59 193.646 144.986 193.549L144.423 193.467L143.861 193.373C143.432 193.304 142.997 193.209 142.572 193.092L141.447 192.787C141.173 192.713 140.901 192.661 140.638 192.647L140.076 192.623L139.513 192.588C139.104 192.566 138.691 192.534 138.283 192.483L137.158 192.342C137.15 192.341 137.137 192.338 137.123 192.342C137.1 192.348 137.051 192.36 136.982 192.401L136.419 192.74L135.857 193.068C135.071 193.531 134.163 193.601 133.314 193.186L132.189 192.623L132.201 192.611H132.154L132.166 192.623L131.638 192.811L131.076 192.998C130.311 193.255 129.531 193.185 128.826 192.846L128.263 192.565L127.701 192.295L127.689 192.283L127.15 192.483L126.587 192.67C126.142 192.821 125.682 192.942 125.228 193.022L124.103 193.209C123.652 193.288 123.199 193.334 122.744 193.338L122.181 193.35H121.619C121.075 193.355 120.533 193.271 120.013 193.104L119.451 192.916L118.888 192.74C118.788 192.708 118.708 192.704 118.619 192.729L117.494 193.033C116.986 193.173 116.47 193.242 115.947 193.233L114.822 193.209C114.225 193.198 113.653 193.055 113.111 192.811L112.548 192.565L111.986 192.307C111.773 192.211 111.582 192.171 111.423 192.166L110.861 192.154L110.298 192.131C110.221 192.129 110.106 192.145 109.935 192.236L108.81 192.846C108.121 193.216 107.338 193.337 106.548 193.104L105.986 192.928L105.423 192.764C105.214 192.702 105.015 192.68 104.826 192.693L104.263 192.74L103.701 192.776C103.373 192.799 103.045 192.84 102.716 192.893L102.154 192.986L101.591 193.068C100.916 193.178 100.25 193.085 99.6343 192.822L99.0718 192.588L98.5093 192.342C98.4093 192.3 98.3566 192.308 98.3101 192.318L97.1851 192.576C96.8635 192.65 96.5386 192.745 96.2124 192.858L95.6499 193.045L95.0874 193.244C94.5017 193.446 93.8895 193.517 93.271 193.432L92.146 193.268C91.7119 193.208 91.2754 193.121 90.8452 193.01L89.7202 192.729C89.5645 192.688 89.4223 192.676 89.2749 192.705L88.1499 192.94C87.4136 193.089 86.6967 192.958 86.0522 192.635L84.9272 192.072C84.7618 191.989 84.6437 191.985 84.564 191.99L83.439 192.061C83.3741 192.066 83.2462 192.084 83.0522 192.213L82.4897 192.588L81.9272 192.975C81.5336 193.236 81.043 193.416 80.4858 193.397C79.93 193.377 79.4511 193.167 79.0796 192.893L78.5171 192.471L77.9546 192.061C77.9296 192.042 77.9094 192.033 77.896 192.026L77.4272 192.108L76.8647 192.213C76.5184 192.275 76.1689 192.343 75.8218 192.424L75.2593 192.565L74.6968 192.693C74.2601 192.796 73.8133 192.872 73.3726 192.916L72.2476 193.033C71.6441 193.094 71.0475 193.009 70.478 192.811L69.9155 192.611L69.353 192.424C69.1625 192.358 68.9948 192.33 68.8374 192.342L67.7124 192.436C67.5188 192.451 67.3022 192.498 67.0679 192.6L65.9429 193.092C65.3012 193.37 64.6051 193.454 63.9038 193.303L63.3413 193.186L62.7788 193.057C62.2928 192.951 61.8134 192.8 61.3491 192.588L60.2241 192.072C60.0756 192.005 59.9756 191.993 59.896 192.002L59.3335 192.072L58.771 192.131C58.4617 192.166 58.1471 192.218 57.8335 192.295L56.7085 192.576C56.1374 192.717 55.5543 192.734 54.9741 192.635L53.8491 192.447H53.8257C53.8132 192.45 53.7731 192.458 53.7085 192.494L52.5835 193.127C52.1835 193.351 51.7127 193.485 51.2007 193.455C50.6938 193.425 50.2529 193.233 49.8882 192.986L49.3257 192.611L48.8452 192.283L48.4585 192.436L47.896 192.658C47.4211 192.842 46.9259 192.975 46.4312 193.045L45.8687 193.127L45.3062 193.197C44.6559 193.289 44.02 193.203 43.4194 192.963L42.2944 192.518C42.0549 192.422 41.833 192.367 41.6265 192.354L40.5015 192.283C40.3624 192.274 40.2056 192.293 40.021 192.365L38.896 192.811C38.4401 192.99 37.9716 193.131 37.5015 193.221L36.3765 193.432C35.6469 193.571 34.9395 193.447 34.3022 193.127L33.7397 192.846L33.1772 192.553C33.0551 192.492 32.9954 192.501 32.9663 192.506L31.8413 192.693C31.2688 192.788 30.6945 192.769 30.1304 192.635L29.5679 192.494L29.0054 192.365C28.8328 192.324 28.6673 192.324 28.5015 192.354L27.939 192.459L27.3765 192.553C26.9951 192.623 26.6094 192.699 26.228 192.764L25.103 192.951C24.7826 193.006 24.4547 193.082 24.1304 193.174L23.5679 193.326L23.0054 193.49C22.2949 193.691 21.5783 193.637 20.9077 193.361L19.7827 192.893C19.465 192.762 19.1432 192.659 18.8335 192.576L17.7085 192.272C17.4462 192.202 17.1854 192.172 16.9351 192.166L15.8101 192.143C15.5153 192.136 15.2162 192.15 14.9194 192.19L14.3569 192.26L13.7944 192.342C13.4159 192.393 13.0362 192.436 12.6577 192.483L11.5327 192.623C11.2017 192.664 10.8693 192.717 10.5366 192.787L9.97412 192.916L9.41162 193.033C8.90563 193.14 8.39044 193.173 7.87646 193.139L6.75146 193.068C6.42061 193.046 6.08596 193.038 5.75537 193.045L4.63037 193.068C4.07255 193.08 3.52399 192.99 3.00146 192.787L2.50928 192.588L2.01709 192.401C1.61193 192.243 1.20862 191.964 0.927246 191.522C0.651614 191.086 0.564577 190.616 0.575684 190.209L0.599121 189.647L0.61084 189.084C0.624033 188.627 0.675718 188.166 0.763184 187.713L0.974121 186.588C1.0011 186.448 1.00612 186.309 0.962402 186.154L0.634277 185.029C0.503126 184.566 0.415381 184.097 0.376465 183.623L0.341309 183.061L0.294434 182.498C0.234997 181.773 0.426969 181.092 0.774902 180.494L1.09131 179.932L1.41943 179.369C1.43207 179.348 1.43946 179.331 1.44287 179.322L1.30225 178.807Z" fill="black"/>
</svg>
