<svg width="363" height="109" viewBox="0 0 363 109" fill="none" xmlns="http://www.w3.org/2000/svg">
<path d="M28.7984 96.0002C25.9824 96.0002 23.3371 95.2749 20.8624 93.8242C18.3878 92.3735 16.4251 90.4109 14.9744 87.9362C13.5238 85.4615 12.7984 82.8162 12.7984 80.0002C12.7984 77.1842 13.5238 74.5389 14.9744 72.0642C16.4251 69.5895 18.3878 67.6269 20.8624 66.1762C23.3371 64.7255 25.9824 64.0002 28.7984 64.0002C31.6144 64.0002 34.2598 64.7255 36.7344 66.1762C39.2091 67.6269 41.1718 69.5895 42.6224 72.0642C44.0731 74.5389 44.7984 77.1842 44.7984 80.0002C44.7984 82.8162 44.0731 85.4615 42.6224 87.9362C41.1718 90.4109 39.2091 92.3735 36.7344 93.8242C34.2598 95.2749 31.6144 96.0002 28.7984 96.0002ZM28.7984 102.4C25.9824 102.4 23.3371 101.675 20.8624 100.224C18.3878 98.7735 16.4251 96.8109 14.9744 94.3362C13.5238 91.8615 12.7984 89.2162 12.7984 86.4002C12.7984 83.5842 13.5238 80.9389 14.9744 78.4642C16.4251 75.9895 18.3878 74.0269 20.8624 72.5762C23.3371 71.1255 25.9824 70.4002 28.7984 70.4002C31.6144 70.4002 34.2598 71.1255 36.7344 72.5762C39.2091 74.0269 41.1718 75.9895 42.6224 78.4642C44.0731 80.9389 44.7984 83.5842 44.7984 86.4002C44.7984 89.2162 44.0731 91.8615 42.6224 94.3362C41.1718 96.8109 39.2091 98.7735 36.7344 100.224C34.2598 101.675 31.6144 102.4 28.7984 102.4ZM28.7984 89.6002C25.9824 89.6002 23.3371 88.8749 20.8624 87.4242C18.3878 85.9735 16.4251 84.0109 14.9744 81.5362C13.5238 79.0615 12.7984 76.4162 12.7984 73.6002C12.7984 70.7842 13.5238 68.1389 14.9744 65.6642C16.4251 63.1895 18.3878 61.2269 20.8624 59.7762C23.3371 58.3255 25.9824 57.6002 28.7984 57.6002C31.6144 57.6002 34.2598 58.3255 36.7344 59.7762C39.2091 61.2269 41.1718 63.1895 42.6224 65.6642C44.0731 68.1389 44.7984 70.7842 44.7984 73.6002C44.7984 76.4162 44.0731 79.0615 42.6224 81.5362C41.1718 84.0109 39.2091 85.9735 36.7344 87.4242C34.2598 88.8749 31.6144 89.6002 28.7984 89.6002ZM28.7984 83.2002C25.9824 83.2002 23.3371 82.4749 20.8624 81.0242C18.3878 79.5735 16.4251 77.6109 14.9744 75.1362C13.5238 72.6615 12.7984 70.0162 12.7984 67.2002C12.7984 64.3842 13.5238 61.7389 14.9744 59.2642C16.4251 56.7895 18.3878 54.8269 20.8624 53.3762C23.3371 51.9255 25.9824 51.2002 28.7984 51.2002C31.6144 51.2002 34.2598 51.9255 36.7344 53.3762C39.2091 54.8269 41.1718 56.7895 42.6224 59.2642C44.0731 61.7389 44.7984 64.3842 44.7984 67.2002C44.7984 70.0162 44.0731 72.6615 42.6224 75.1362C41.1718 77.6109 39.2091 79.5735 36.7344 81.0242C34.2598 82.4749 31.6144 83.2002 28.7984 83.2002ZM28.7984 76.8002C25.9824 76.8002 23.3371 76.0749 20.8624 74.6242C18.3878 73.1735 16.4251 71.2109 14.9744 68.7362C13.5238 66.2615 12.7984 63.6162 12.7984 60.8002C12.7984 57.9842 13.5238 55.3389 14.9744 52.8642C16.4251 50.3895 18.3878 48.4269 20.8624 46.9762C23.3371 45.5255 25.9824 44.8002 28.7984 44.8002C31.6144 44.8002 34.2598 45.5255 36.7344 46.9762C39.2091 48.4269 41.1718 50.3895 42.6224 52.8642C44.0731 55.3389 44.7984 57.9842 44.7984 60.8002C44.7984 63.6162 44.0731 66.2615 42.6224 68.7362C41.1718 71.2109 39.2091 73.1735 36.7344 74.6242C34.2598 76.0749 31.6144 76.8002 28.7984 76.8002ZM28.7984 64.0002C25.9824 64.0002 23.3371 63.2749 20.8624 61.8242C18.3878 60.3735 16.4251 58.4109 14.9744 55.9362C13.5238 53.4615 12.7984 50.8162 12.7984 48.0002C12.7984 45.1842 13.5238 42.5389 14.9744 40.0642C16.4251 37.5895 18.3878 35.6269 20.8624 34.1762C23.3371 32.7255 25.9824 32.0002 28.7984 32.0002C31.6144 32.0002 34.2598 32.7255 36.7344 34.1762C39.2091 35.6269 41.1718 37.5895 42.6224 40.0642C44.0731 42.5389 44.7984 45.1842 44.7984 48.0002C44.7984 50.8162 44.0731 53.4615 42.6224 55.9362C41.1718 58.4109 39.2091 60.3735 36.7344 61.8242C34.2598 63.2749 31.6144 64.0002 28.7984 64.0002ZM22.3984 32.0002C19.5824 32.0002 16.9371 31.2749 14.4624 29.8242C11.9878 28.3735 10.0251 26.4109 8.57444 23.9362C7.12377 21.4615 6.39844 18.8162 6.39844 16.0002C6.39844 13.1842 7.12377 10.5389 8.57444 8.06419C10.0251 5.58952 11.9878 3.62686 14.4624 2.17619C16.9371 0.725525 19.5824 0.000190735 22.3984 0.000190735C25.2144 0.000190735 27.8598 0.725525 30.3344 2.17619C32.8091 3.62686 34.7718 5.58952 36.2224 8.06419C37.6731 10.5389 38.3984 13.1842 38.3984 16.0002C38.3984 18.8162 37.6731 21.4615 36.2224 23.9362C34.7718 26.4109 32.8091 28.3735 30.3344 29.8242C27.8598 31.2749 25.2144 32.0002 22.3984 32.0002ZM15.9984 32.0002C13.1824 32.0002 10.5371 31.2749 8.06244 29.8242C5.58777 28.3735 3.6251 26.4109 2.17444 23.9362C0.723771 21.4615 -0.0015626 18.8162 -0.0015626 16.0002C-0.0015626 13.1842 0.723771 10.5389 2.17444 8.06419C3.6251 5.58952 5.58777 3.62686 8.06244 2.17619C10.5371 0.725525 13.1824 0.000190735 15.9984 0.000190735C18.8144 0.000190735 21.4598 0.725525 23.9344 2.17619C26.4091 3.62686 28.3718 5.58952 29.8224 8.06419C31.2731 10.5389 31.9984 13.1842 31.9984 16.0002C31.9984 18.8162 31.2731 21.4615 29.8224 23.9362C28.3718 26.4109 26.4091 28.3735 23.9344 29.8242C21.4598 31.2749 18.8144 32.0002 15.9984 32.0002ZM22.3984 108.8C19.5824 108.8 16.9371 108.075 14.4624 106.624C11.9878 105.174 10.0251 103.211 8.57444 100.736C7.12377 98.2615 6.39844 95.6162 6.39844 92.8002C6.39844 89.9842 7.12377 87.3389 8.57444 84.8642C10.0251 82.3895 11.9878 80.4269 14.4624 78.9762C16.9371 77.5255 19.5824 76.8002 22.3984 76.8002C25.2144 76.8002 27.8598 77.5255 30.3344 78.9762C32.8091 80.4269 34.7718 82.3895 36.2224 84.8642C37.6731 87.3389 38.3984 89.9842 38.3984 92.8002C38.3984 95.6162 37.6731 98.2615 36.2224 100.736C34.7718 103.211 32.8091 105.174 30.3344 106.624C27.8598 108.075 25.2144 108.8 22.3984 108.8ZM15.9984 108.8C13.1824 108.8 10.5371 108.075 8.06244 106.624C5.58777 105.174 3.6251 103.211 2.17444 100.736C0.723771 98.2615 -0.0015626 95.6162 -0.0015626 92.8002C-0.0015626 89.9842 0.723771 87.3389 2.17444 84.8642C3.6251 82.3895 5.58777 80.4269 8.06244 78.9762C10.5371 77.5255 13.1824 76.8002 15.9984 76.8002C18.8144 76.8002 21.4598 77.5255 23.9344 78.9762C26.4091 80.4269 28.3718 82.3895 29.8224 84.8642C31.2731 87.3389 31.9984 89.9842 31.9984 92.8002C31.9984 95.6162 31.2731 98.2615 29.8224 100.736C28.3718 103.211 26.4091 105.174 23.9344 106.624C21.4598 108.075 18.8144 108.8 15.9984 108.8ZM35.1984 108.8C32.3824 108.8 29.7371 108.075 27.2624 106.624C24.7878 105.174 22.8251 103.211 21.3744 100.736C19.9238 98.2615 19.1984 95.6162 19.1984 92.8002C19.1984 89.9842 19.9238 87.3389 21.3744 84.8642C22.8251 82.3895 24.7878 80.4269 27.2624 78.9762C29.7371 77.5255 32.3824 76.8002 35.1984 76.8002C38.0144 76.8002 40.6598 77.5255 43.1344 78.9762C45.6091 80.4269 47.5718 82.3895 49.0224 84.8642C50.4731 87.3389 51.1984 89.9842 51.1984 92.8002C51.1984 95.6162 50.4731 98.2615 49.0224 100.736C47.5718 103.211 45.6091 105.174 43.1344 106.624C40.6598 108.075 38.0144 108.8 35.1984 108.8ZM28.7984 70.4002C25.9824 70.4002 23.3371 69.6749 20.8624 68.2242C18.3878 66.7735 16.4251 64.8109 14.9744 62.3362C13.5238 59.8615 12.7984 57.2162 12.7984 54.4002C12.7984 51.5842 13.5238 48.9389 14.9744 46.4642C16.4251 43.9895 18.3878 42.0269 20.8624 40.5762C23.3371 39.1255 25.9824 38.4002 28.7984 38.4002C31.6144 38.4002 34.2598 39.1255 36.7344 40.5762C39.2091 42.0269 41.1718 43.9895 42.6224 46.4642C44.0731 48.9389 44.7984 51.5842 44.7984 54.4002C44.7984 57.2162 44.0731 59.8615 42.6224 62.3362C41.1718 64.8109 39.2091 66.7735 36.7344 68.2242C34.2598 69.6749 31.6144 70.4002 28.7984 70.4002ZM41.5984 108.8C38.7824 108.8 36.1371 108.075 33.6624 106.624C31.1878 105.174 29.2251 103.211 27.7744 100.736C26.3238 98.2615 25.5984 95.6162 25.5984 92.8002C25.5984 89.9842 26.3238 87.3389 27.7744 84.8642C29.2251 82.3895 31.1878 80.4269 33.6624 78.9762C36.1371 77.5255 38.7824 76.8002 41.5984 76.8002C44.4144 76.8002 47.0598 77.5255 49.5344 78.9762C52.0091 80.4269 53.9718 82.3895 55.4224 84.8642C56.8731 87.3389 57.5984 89.9842 57.5984 92.8002C57.5984 95.6162 56.8731 98.2615 55.4224 100.736C53.9718 103.211 52.0091 105.174 49.5344 106.624C47.0598 108.075 44.4144 108.8 41.5984 108.8ZM28.7984 57.6002C25.9824 57.6002 23.3371 56.8749 20.8624 55.4242C18.3878 53.9735 16.4251 52.0109 14.9744 49.5362C13.5238 47.0615 12.7984 44.4162 12.7984 41.6002C12.7984 38.7842 13.5238 36.1389 14.9744 33.6642C16.4251 31.1895 18.3878 29.2269 20.8624 27.7762C23.3371 26.3255 25.9824 25.6002 28.7984 25.6002C31.6144 25.6002 34.2598 26.3255 36.7344 27.7762C39.2091 29.2269 41.1718 31.1895 42.6224 33.6642C44.0731 36.1389 44.7984 38.7842 44.7984 41.6002C44.7984 44.4162 44.0731 47.0615 42.6224 49.5362C41.1718 52.0109 39.2091 53.9735 36.7344 55.4242C34.2598 56.8749 31.6144 57.6002 28.7984 57.6002ZM28.7984 51.2002C25.9824 51.2002 23.3371 50.4749 20.8624 49.0242C18.3878 47.5735 16.4251 45.6109 14.9744 43.1362C13.5238 40.6615 12.7984 38.0162 12.7984 35.2002C12.7984 32.3842 13.5238 29.7389 14.9744 27.2642C16.4251 24.7895 18.3878 22.8269 20.8624 21.3762C23.3371 19.9255 25.9824 19.2002 28.7984 19.2002C31.6144 19.2002 34.2598 19.9255 36.7344 21.3762C39.2091 22.8269 41.1718 24.7895 42.6224 27.2642C44.0731 29.7389 44.7984 32.3842 44.7984 35.2002C44.7984 38.0162 44.0731 40.6615 42.6224 43.1362C41.1718 45.6109 39.2091 47.5735 36.7344 49.0242C34.2598 50.4749 31.6144 51.2002 28.7984 51.2002ZM28.7984 44.8002C25.9824 44.8002 23.3371 44.0749 20.8624 42.6242C18.3878 41.1735 16.4251 39.2109 14.9744 36.7362C13.5238 34.2615 12.7984 31.6162 12.7984 28.8002C12.7984 25.9842 13.5238 23.3389 14.9744 20.8642C16.4251 18.3895 18.3878 16.4269 20.8624 14.9762C23.3371 13.5255 25.9824 12.8002 28.7984 12.8002C31.6144 12.8002 34.2598 13.5255 36.7344 14.9762C39.2091 16.4269 41.1718 18.3895 42.6224 20.8642C44.0731 23.3389 44.7984 25.9842 44.7984 28.8002C44.7984 31.6162 44.0731 34.2615 42.6224 36.7362C41.1718 39.2109 39.2091 41.1735 36.7344 42.6242C34.2598 44.0749 31.6144 44.8002 28.7984 44.8002ZM28.7984 38.4002C25.9824 38.4002 23.3371 37.6749 20.8624 36.2242C18.3878 34.7735 16.4251 32.8109 14.9744 30.3362C13.5238 27.8615 12.7984 25.2162 12.7984 22.4002C12.7984 19.5842 13.5238 16.9389 14.9744 14.4642C16.4251 11.9895 18.3878 10.0269 20.8624 8.57619C23.3371 7.12553 25.9824 6.40019 28.7984 6.40019C31.6144 6.40019 34.2598 7.12553 36.7344 8.57619C39.2091 10.0269 41.1718 11.9895 42.6224 14.4642C44.0731 16.9389 44.7984 19.5842 44.7984 22.4002C44.7984 25.2162 44.0731 27.8615 42.6224 30.3362C41.1718 32.8109 39.2091 34.7735 36.7344 36.2242C34.2598 37.6749 31.6144 38.4002 28.7984 38.4002ZM41.5984 32.0002C38.7824 32.0002 36.1371 31.2749 33.6624 29.8242C31.1878 28.3735 29.2251 26.4109 27.7744 23.9362C26.3238 21.4615 25.5984 18.8162 25.5984 16.0002C25.5984 13.1842 26.3238 10.5389 27.7744 8.06419C29.2251 5.58952 31.1878 3.62686 33.6624 2.17619C36.1371 0.725525 38.7824 0.000190735 41.5984 0.000190735C44.4144 0.000190735 47.0598 0.725525 49.5344 2.17619C52.0091 3.62686 53.9718 5.58952 55.4224 8.06419C56.8731 10.5389 57.5984 13.1842 57.5984 16.0002C57.5984 18.8162 56.8731 21.4615 55.4224 23.9362C53.9718 26.4109 52.0091 28.3735 49.5344 29.8242C47.0598 31.2749 44.4144 32.0002 41.5984 32.0002ZM35.1984 32.0002C32.3824 32.0002 29.7371 31.2749 27.2624 29.8242C24.7878 28.3735 22.8251 26.4109 21.3744 23.9362C19.9238 21.4615 19.1984 18.8162 19.1984 16.0002C19.1984 13.1842 19.9238 10.5389 21.3744 8.06419C22.8251 5.58952 24.7878 3.62686 27.2624 2.17619C29.7371 0.725525 32.3824 0.000190735 35.1984 0.000190735C38.0144 0.000190735 40.6598 0.725525 43.1344 2.17619C45.6091 3.62686 47.5718 5.58952 49.0224 8.06419C50.4731 10.5389 51.1984 13.1842 51.1984 16.0002C51.1984 18.8162 50.4731 21.4615 49.0224 23.9362C47.5718 26.4109 45.6091 28.3735 43.1344 29.8242C40.6598 31.2749 38.0144 32.0002 35.1984 32.0002ZM28.7984 32.0002C25.9824 32.0002 23.3371 31.2749 20.8624 29.8242C18.3878 28.3735 16.4251 26.4109 14.9744 23.9362C13.5238 21.4615 12.7984 18.8162 12.7984 16.0002C12.7984 13.1842 13.5238 10.5389 14.9744 8.06419C16.4251 5.58952 18.3878 3.62686 20.8624 2.17619C23.3371 0.725525 25.9824 0.000190735 28.7984 0.000190735C31.6144 0.000190735 34.2598 0.725525 36.7344 2.17619C39.2091 3.62686 41.1718 5.58952 42.6224 8.06419C44.0731 10.5389 44.7984 13.1842 44.7984 16.0002C44.7984 18.8162 44.0731 21.4615 42.6224 23.9362C41.1718 26.4109 39.2091 28.3735 36.7344 29.8242C34.2598 31.2749 31.6144 32.0002 28.7984 32.0002ZM28.7984 108.8C25.9824 108.8 23.3371 108.075 20.8624 106.624C18.3878 105.174 16.4251 103.211 14.9744 100.736C13.5238 98.2615 12.7984 95.6162 12.7984 92.8002C12.7984 89.9842 13.5238 87.3389 14.9744 84.8642C16.4251 82.3895 18.3878 80.4269 20.8624 78.9762C23.3371 77.5255 25.9824 76.8002 28.7984 76.8002C31.6144 76.8002 34.2598 77.5255 36.7344 78.9762C39.2091 80.4269 41.1718 82.3895 42.6224 84.8642C44.0731 87.3389 44.7984 89.9842 44.7984 92.8002C44.7984 95.6162 44.0731 98.2615 42.6224 100.736C41.1718 103.211 39.2091 105.174 36.7344 106.624C34.2598 108.075 31.6144 108.8 28.7984 108.8ZM60.7984 108.8C57.9824 108.8 55.3371 108.075 52.8624 106.624C50.3878 105.174 48.4251 103.211 46.9744 100.736C45.5238 98.2615 44.7984 95.6162 44.7984 92.8002C44.7984 89.9842 45.5238 87.3389 46.9744 84.8642C48.4251 82.3895 50.3878 80.4269 52.8624 78.9762C55.3371 77.5255 57.9824 76.8002 60.7984 76.8002C63.6144 76.8002 66.2598 77.5255 68.7344 78.9762C71.2091 80.4269 73.1718 82.3895 74.6224 84.8642C76.0731 87.3389 76.7984 89.9842 76.7984 92.8002C76.7984 95.6162 76.0731 98.2615 74.6224 100.736C73.1718 103.211 71.2091 105.174 68.7344 106.624C66.2598 108.075 63.6144 108.8 60.7984 108.8ZM76.7984 92.8002C73.9824 92.8002 71.3371 92.0749 68.8624 90.6242C66.3878 89.1735 64.4251 87.2109 62.9744 84.7362C61.5238 82.2615 60.7984 79.6162 60.7984 76.8002C60.7984 73.9842 61.5238 71.3389 62.9744 68.8642C64.4251 66.3895 66.3878 64.4269 68.8624 62.9762C71.3371 61.5255 73.9824 60.8002 76.7984 60.8002C79.6144 60.8002 82.2598 61.5255 84.7344 62.9762C87.2091 64.4269 89.1718 66.3895 90.6224 68.8642C92.0731 71.3389 92.7984 73.9842 92.7984 76.8002C92.7984 79.6162 92.0731 82.2615 90.6224 84.7362C89.1718 87.2109 87.2091 89.1735 84.7344 90.6242C82.2598 92.0749 79.6144 92.8002 76.7984 92.8002ZM47.9984 32.0002C45.1824 32.0002 42.5371 31.2749 40.0624 29.8242C37.5878 28.3735 35.6251 26.4109 34.1744 23.9362C32.7238 21.4615 31.9984 18.8162 31.9984 16.0002C31.9984 13.1842 32.7238 10.5389 34.1744 8.06419C35.6251 5.58952 37.5878 3.62686 40.0624 2.17619C42.5371 0.725525 45.1824 0.000190735 47.9984 0.000190735C50.8144 0.000190735 53.4598 0.725525 55.9344 2.17619C58.4091 3.62686 60.3718 5.58952 61.8224 8.06419C63.2731 10.5389 63.9984 13.1842 63.9984 16.0002C63.9984 18.8162 63.2731 21.4615 61.8224 23.9362C60.3718 26.4109 58.4091 28.3735 55.9344 29.8242C53.4598 31.2749 50.8144 32.0002 47.9984 32.0002ZM54.3984 32.0002C51.5824 32.0002 48.9371 31.2749 46.4624 29.8242C43.9878 28.3735 42.0251 26.4109 40.5744 23.9362C39.1238 21.4615 38.3984 18.8162 38.3984 16.0002C38.3984 13.1842 39.1238 10.5389 40.5744 8.06419C42.0251 5.58952 43.9878 3.62686 46.4624 2.17619C48.9371 0.725525 51.5824 0.000190735 54.3984 0.000190735C57.2144 0.000190735 59.8598 0.725525 62.3344 2.17619C64.8091 3.62686 66.7718 5.58952 68.2224 8.06419C69.6731 10.5389 70.3984 13.1842 70.3984 16.0002C70.3984 18.8162 69.6731 21.4615 68.2224 23.9362C66.7718 26.4109 64.8091 28.3735 62.3344 29.8242C59.8598 31.2749 57.2144 32.0002 54.3984 32.0002ZM70.3984 38.4002C67.5824 38.4002 64.9371 37.6749 62.4624 36.2242C59.9878 34.7735 58.0251 32.8109 56.5744 30.3362C55.1238 27.8615 54.3984 25.2162 54.3984 22.4002C54.3984 19.5842 55.1238 16.9389 56.5744 14.4642C58.0251 11.9895 59.9878 10.0269 62.4624 8.57619C64.9371 7.12553 67.5824 6.40019 70.3984 6.40019C73.2144 6.40019 75.8598 7.12553 78.3344 8.57619C80.8091 10.0269 82.7718 11.9895 84.2224 14.4642C85.6731 16.9389 86.3984 19.5842 86.3984 22.4002C86.3984 25.2162 85.6731 27.8615 84.2224 30.3362C82.7718 32.8109 80.8091 34.7735 78.3344 36.2242C75.8598 37.6749 73.2144 38.4002 70.3984 38.4002ZM73.5984 44.8002C70.7824 44.8002 68.1371 44.0749 65.6624 42.6242C63.1878 41.1735 61.2251 39.2109 59.7744 36.7362C58.3238 34.2615 57.5984 31.6162 57.5984 28.8002C57.5984 25.9842 58.3238 23.3389 59.7744 20.8642C61.2251 18.3895 63.1878 16.4269 65.6624 14.9762C68.1371 13.5255 70.7824 12.8002 73.5984 12.8002C76.4144 12.8002 79.0598 13.5255 81.5344 14.9762C84.0091 16.4269 85.9718 18.3895 87.4224 20.8642C88.8731 23.3389 89.5984 25.9842 89.5984 28.8002C89.5984 31.6162 88.8731 34.2615 87.4224 36.7362C85.9718 39.2109 84.0091 41.1735 81.5344 42.6242C79.0598 44.0749 76.4144 44.8002 73.5984 44.8002ZM70.3984 105.6C67.5824 105.6 64.9371 104.875 62.4624 103.424C59.9878 101.974 58.0251 100.011 56.5744 97.5362C55.1238 95.0615 54.3984 92.4162 54.3984 89.6002C54.3984 86.7842 55.1238 84.1389 56.5744 81.6642C58.0251 79.1895 59.9878 77.2269 62.4624 75.7762C64.9371 74.3255 67.5824 73.6002 70.3984 73.6002C73.2144 73.6002 75.8598 74.3255 78.3344 75.7762C80.8091 77.2269 82.7718 79.1895 84.2224 81.6642C85.6731 84.1389 86.3984 86.7842 86.3984 89.6002C86.3984 92.4162 85.6731 95.0615 84.2224 97.5362C82.7718 100.011 80.8091 101.974 78.3344 103.424C75.8598 104.875 73.2144 105.6 70.3984 105.6ZM47.9984 108.8C45.1824 108.8 42.5371 108.075 40.0624 106.624C37.5878 105.174 35.6251 103.211 34.1744 100.736C32.7238 98.2615 31.9984 95.6162 31.9984 92.8002C31.9984 89.9842 32.7238 87.3389 34.1744 84.8642C35.6251 82.3895 37.5878 80.4269 40.0624 78.9762C42.5371 77.5255 45.1824 76.8002 47.9984 76.8002C50.8144 76.8002 53.4598 77.5255 55.9344 78.9762C58.4091 80.4269 60.3718 82.3895 61.8224 84.8642C63.2731 87.3389 63.9984 89.9842 63.9984 92.8002C63.9984 95.6162 63.2731 98.2615 61.8224 100.736C60.3718 103.211 58.4091 105.174 55.9344 106.624C53.4598 108.075 50.8144 108.8 47.9984 108.8ZM54.3984 108.8C51.5824 108.8 48.9371 108.075 46.4624 106.624C43.9878 105.174 42.0251 103.211 40.5744 100.736C39.1238 98.2615 38.3984 95.6162 38.3984 92.8002C38.3984 89.9842 39.1238 87.3389 40.5744 84.8642C42.0251 82.3895 43.9878 80.4269 46.4624 78.9762C48.9371 77.5255 51.5824 76.8002 54.3984 76.8002C57.2144 76.8002 59.8598 77.5255 62.3344 78.9762C64.8091 80.4269 66.7718 82.3895 68.2224 84.8642C69.6731 87.3389 70.3984 89.9842 70.3984 92.8002C70.3984 95.6162 69.6731 98.2615 68.2224 100.736C66.7718 103.211 64.8091 105.174 62.3344 106.624C59.8598 108.075 57.2144 108.8 54.3984 108.8ZM63.9984 35.2002C61.1824 35.2002 58.5371 34.4749 56.0624 33.0242C53.5878 31.5735 51.6251 29.6109 50.1744 27.1362C48.7238 24.6615 47.9984 22.0162 47.9984 19.2002C47.9984 16.3842 48.7238 13.7389 50.1744 11.2642C51.6251 8.78953 53.5878 6.82686 56.0624 5.37619C58.5371 3.92552 61.1824 3.20019 63.9984 3.20019C66.8144 3.20019 69.4598 3.92552 71.9344 5.37619C74.4091 6.82686 76.3718 8.78953 77.8224 11.2642C79.2731 13.7389 79.9984 16.3842 79.9984 19.2002C79.9984 22.0162 79.2731 24.6615 77.8224 27.1362C76.3718 29.6109 74.4091 31.5735 71.9344 33.0242C69.4598 34.4749 66.8144 35.2002 63.9984 35.2002ZM35.1984 70.4002C32.3824 70.4002 29.7371 69.6749 27.2624 68.2242C24.7878 66.7735 22.8251 64.8109 21.3744 62.3362C19.9238 59.8615 19.1984 57.2162 19.1984 54.4002C19.1984 51.5842 19.9238 48.9389 21.3744 46.4642C22.8251 43.9895 24.7878 42.0269 27.2624 40.5762C29.7371 39.1255 32.3824 38.4002 35.1984 38.4002C38.0144 38.4002 40.6598 39.1255 43.1344 40.5762C45.6091 42.0269 47.5718 43.9895 49.0224 46.4642C50.4731 48.9389 51.1984 51.5842 51.1984 54.4002C51.1984 57.2162 50.4731 59.8615 49.0224 62.3362C47.5718 64.8109 45.6091 66.7735 43.1344 68.2242C40.6598 69.6749 38.0144 70.4002 35.1984 70.4002ZM41.5984 70.4002C38.7824 70.4002 36.1371 69.6749 33.6624 68.2242C31.1878 66.7735 29.2251 64.8109 27.7744 62.3362C26.3238 59.8615 25.5984 57.2162 25.5984 54.4002C25.5984 51.5842 26.3238 48.9389 27.7744 46.4642C29.2251 43.9895 31.1878 42.0269 33.6624 40.5762C36.1371 39.1255 38.7824 38.4002 41.5984 38.4002C44.4144 38.4002 47.0598 39.1255 49.5344 40.5762C52.0091 42.0269 53.9718 43.9895 55.4224 46.4642C56.8731 48.9389 57.5984 51.5842 57.5984 54.4002C57.5984 57.2162 56.8731 59.8615 55.4224 62.3362C53.9718 64.8109 52.0091 66.7735 49.5344 68.2242C47.0598 69.6749 44.4144 70.4002 41.5984 70.4002ZM47.9984 70.4002C45.1824 70.4002 42.5371 69.6749 40.0624 68.2242C37.5878 66.7735 35.6251 64.8109 34.1744 62.3362C32.7238 59.8615 31.9984 57.2162 31.9984 54.4002C31.9984 51.5842 32.7238 48.9389 34.1744 46.4642C35.6251 43.9895 37.5878 42.0269 40.0624 40.5762C42.5371 39.1255 45.1824 38.4002 47.9984 38.4002C50.8144 38.4002 53.4598 39.1255 55.9344 40.5762C58.4091 42.0269 60.3718 43.9895 61.8224 46.4642C63.2731 48.9389 63.9984 51.5842 63.9984 54.4002C63.9984 57.2162 63.2731 59.8615 61.8224 62.3362C60.3718 64.8109 58.4091 66.7735 55.9344 68.2242C53.4598 69.6749 50.8144 70.4002 47.9984 70.4002ZM54.3984 70.4002C51.5824 70.4002 48.9371 69.6749 46.4624 68.2242C43.9878 66.7735 42.0251 64.8109 40.5744 62.3362C39.1238 59.8615 38.3984 57.2162 38.3984 54.4002C38.3984 51.5842 39.1238 48.9389 40.5744 46.4642C42.0251 43.9895 43.9878 42.0269 46.4624 40.5762C48.9371 39.1255 51.5824 38.4002 54.3984 38.4002C57.2144 38.4002 59.8598 39.1255 62.3344 40.5762C64.8091 42.0269 66.7718 43.9895 68.2224 46.4642C69.6731 48.9389 70.3984 51.5842 70.3984 54.4002C70.3984 57.2162 69.6731 59.8615 68.2224 62.3362C66.7718 64.8109 64.8091 66.7735 62.3344 68.2242C59.8598 69.6749 57.2144 70.4002 54.3984 70.4002ZM67.1984 73.6002C64.3824 73.6002 61.7371 72.8749 59.2624 71.4242C56.7878 69.9735 54.8251 68.0109 53.3744 65.5362C51.9238 63.0615 51.1984 60.4162 51.1984 57.6002C51.1984 54.7842 51.9238 52.1389 53.3744 49.6642C54.8251 47.1895 56.7878 45.2269 59.2624 43.7762C61.7371 42.3255 64.3824 41.6002 67.1984 41.6002C70.0144 41.6002 72.6598 42.3255 75.1344 43.7762C77.6091 45.2269 79.5718 47.1895 81.0224 49.6642C82.4731 52.1389 83.1984 54.7842 83.1984 57.6002C83.1984 60.4162 82.4731 63.0615 81.0224 65.5362C79.5718 68.0109 77.6091 69.9735 75.1344 71.4242C72.6598 72.8749 70.0144 73.6002 67.1984 73.6002ZM63.9984 67.2002C61.1824 67.2002 58.5371 66.4749 56.0624 65.0242C53.5878 63.5735 51.6251 61.6109 50.1744 59.1362C48.7238 56.6615 47.9984 54.0162 47.9984 51.2002C47.9984 48.3842 48.7238 45.7389 50.1744 43.2642C51.6251 40.7895 53.5878 38.8269 56.0624 37.3762C58.5371 35.9255 61.1824 35.2002 63.9984 35.2002C66.8144 35.2002 69.4598 35.9255 71.9344 37.3762C74.4091 38.8269 76.3718 40.7895 77.8224 43.2642C79.2731 45.7389 79.9984 48.3842 79.9984 51.2002C79.9984 54.0162 79.2731 56.6615 77.8224 59.1362C76.3718 61.6109 74.4091 63.5735 71.9344 65.0242C69.4598 66.4749 66.8144 67.2002 63.9984 67.2002ZM73.5984 80.0002C70.7824 80.0002 68.1371 79.2749 65.6624 77.8242C63.1878 76.3735 61.2251 74.4109 59.7744 71.9362C58.3238 69.4615 57.5984 66.8162 57.5984 64.0002C57.5984 61.1842 58.3238 58.5389 59.7744 56.0642C61.2251 53.5895 63.1878 51.6269 65.6624 50.1762C68.1371 48.7255 70.7824 48.0002 73.5984 48.0002C76.4144 48.0002 79.0598 48.7255 81.5344 50.1762C84.0091 51.6269 85.9718 53.5895 87.4224 56.0642C88.8731 58.5389 89.5984 61.1842 89.5984 64.0002C89.5984 66.8162 88.8731 69.4615 87.4224 71.9362C85.9718 74.4109 84.0091 76.3735 81.5344 77.8242C79.0598 79.2749 76.4144 80.0002 73.5984 80.0002ZM76.7984 86.4002C73.9824 86.4002 71.3371 85.6749 68.8624 84.2242C66.3878 82.7735 64.4251 80.8109 62.9744 78.3362C61.5238 75.8615 60.7984 73.2162 60.7984 70.4002C60.7984 67.5842 61.5238 64.9389 62.9744 62.4642C64.4251 59.9895 66.3878 58.0269 68.8624 56.5762C71.3371 55.1255 73.9824 54.4002 76.7984 54.4002C79.6144 54.4002 82.2598 55.1255 84.7344 56.5762C87.2091 58.0269 89.1718 59.9895 90.6224 62.4642C92.0731 64.9389 92.7984 67.5842 92.7984 70.4002C92.7984 73.2162 92.0731 75.8615 90.6224 78.3362C89.1718 80.8109 87.2091 82.7735 84.7344 84.2242C82.2598 85.6749 79.6144 86.4002 76.7984 86.4002ZM73.5984 54.4002C70.7824 54.4002 68.1371 53.6749 65.6624 52.2242C63.1878 50.7735 61.2251 48.8109 59.7744 46.3362C58.3238 43.8615 57.5984 41.2162 57.5984 38.4002C57.5984 35.5842 58.3238 32.9389 59.7744 30.4642C61.2251 27.9895 63.1878 26.0269 65.6624 24.5762C68.1371 23.1255 70.7824 22.4002 73.5984 22.4002C76.4144 22.4002 79.0598 23.1255 81.5344 24.5762C84.0091 26.0269 85.9718 27.9895 87.4224 30.4642C88.8731 32.9389 89.5984 35.5842 89.5984 38.4002C89.5984 41.2162 88.8731 43.8615 87.4224 46.3362C85.9718 48.8109 84.0091 50.7735 81.5344 52.2242C79.0598 53.6749 76.4144 54.4002 73.5984 54.4002ZM70.3984 60.8002C67.5824 60.8002 64.9371 60.0749 62.4624 58.6242C59.9878 57.1735 58.0251 55.2109 56.5744 52.7362C55.1238 50.2615 54.3984 47.6162 54.3984 44.8002C54.3984 41.9842 55.1238 39.3389 56.5744 36.8642C58.0251 34.3895 59.9878 32.4269 62.4624 30.9762C64.9371 29.5255 67.5824 28.8002 70.3984 28.8002C73.2144 28.8002 75.8598 29.5255 78.3344 30.9762C80.8091 32.4269 82.7718 34.3895 84.2224 36.8642C85.6731 39.3389 86.3984 41.9842 86.3984 44.8002C86.3984 47.6162 85.6731 50.2615 84.2224 52.7362C82.7718 55.2109 80.8091 57.1735 78.3344 58.6242C75.8598 60.0749 73.2144 60.8002 70.3984 60.8002ZM73.5984 99.2002C70.7824 99.2002 68.1371 98.4749 65.6624 97.0242C63.1878 95.5735 61.2251 93.6109 59.7744 91.1362C58.3238 88.6615 57.5984 86.0162 57.5984 83.2002C57.5984 80.3842 58.3238 77.7389 59.7744 75.2642C61.2251 72.7895 63.1878 70.8269 65.6624 69.3762C68.1371 67.9255 70.7824 67.2002 73.5984 67.2002C76.4144 67.2002 79.0598 67.9255 81.5344 69.3762C84.0091 70.8269 85.9718 72.7895 87.4224 75.2642C88.8731 77.7389 89.5984 80.3842 89.5984 83.2002C89.5984 86.0162 88.8731 88.6615 87.4224 91.1362C85.9718 93.6109 84.0091 95.5735 81.5344 97.0242C79.0598 98.4749 76.4144 99.2002 73.5984 99.2002ZM60.7984 70.4002C57.9824 70.4002 55.3371 69.6749 52.8624 68.2242C50.3878 66.7735 48.4251 64.8109 46.9744 62.3362C45.5238 59.8615 44.7984 57.2162 44.7984 54.4002C44.7984 51.5842 45.5238 48.9389 46.9744 46.4642C48.4251 43.9895 50.3878 42.0269 52.8624 40.5762C55.3371 39.1255 57.9824 38.4002 60.7984 38.4002C63.6144 38.4002 66.2598 39.1255 68.7344 40.5762C71.2091 42.0269 73.1718 43.9895 74.6224 46.4642C76.0731 48.9389 76.7984 51.5842 76.7984 54.4002C76.7984 57.2162 76.0731 59.8615 74.6224 62.3362C73.1718 64.8109 71.2091 66.7735 68.7344 68.2242C66.2598 69.6749 63.6144 70.4002 60.7984 70.4002ZM60.7984 32.0002C57.9824 32.0002 55.3371 31.2749 52.8624 29.8242C50.3878 28.3735 48.4251 26.4109 46.9744 23.9362C45.5238 21.4615 44.7984 18.8162 44.7984 16.0002C44.7984 13.1842 45.5238 10.5389 46.9744 8.06419C48.4251 5.58952 50.3878 3.62686 52.8624 2.17619C55.3371 0.725525 57.9824 0.000190735 60.7984 0.000190735C63.6144 0.000190735 66.2598 0.725525 68.7344 2.17619C71.2091 3.62686 73.1718 5.58952 74.6224 8.06419C76.0731 10.5389 76.7984 13.1842 76.7984 16.0002C76.7984 18.8162 76.0731 21.4615 74.6224 23.9362C73.1718 26.4109 71.2091 28.3735 68.7344 29.8242C66.2598 31.2749 63.6144 32.0002 60.7984 32.0002ZM99.8384 67.2002C97.0224 67.2002 94.3771 66.4749 91.9024 65.0242C89.4278 63.5735 87.4651 61.6109 86.0144 59.1362C84.5638 56.6615 83.8384 54.0162 83.8384 51.2002C83.8384 48.3842 84.5638 45.7389 86.0144 43.2642C87.4651 40.7895 89.4278 38.8269 91.9024 37.3762C94.3771 35.9255 97.0224 35.2002 99.8384 35.2002C102.654 35.2002 105.3 35.9255 107.774 37.3762C110.249 38.8269 112.212 40.7895 113.662 43.2642C115.113 45.7389 115.838 48.3842 115.838 51.2002C115.838 54.0162 115.113 56.6615 113.662 59.1362C112.212 61.6109 110.249 63.5735 107.774 65.0242C105.3 66.4749 102.654 67.2002 99.8384 67.2002ZM99.8384 60.8002C97.0224 60.8002 94.3771 60.0749 91.9024 58.6242C89.4278 57.1735 87.4651 55.2109 86.0144 52.7362C84.5638 50.2615 83.8384 47.6162 83.8384 44.8002C83.8384 41.9842 84.5638 39.3389 86.0144 36.8642C87.4651 34.3895 89.4278 32.4269 91.9024 30.9762C94.3771 29.5255 97.0224 28.8002 99.8384 28.8002C102.654 28.8002 105.3 29.5255 107.774 30.9762C110.249 32.4269 112.212 34.3895 113.662 36.8642C115.113 39.3389 115.838 41.9842 115.838 44.8002C115.838 47.6162 115.113 50.2615 113.662 52.7362C112.212 55.2109 110.249 57.1735 107.774 58.6242C105.3 60.0749 102.654 60.8002 99.8384 60.8002ZM103.038 54.4002C100.222 54.4002 97.5771 53.6749 95.1024 52.2242C92.6278 50.7735 90.6651 48.8109 89.2144 46.3362C87.7638 43.8615 87.0384 41.2162 87.0384 38.4002C87.0384 35.5842 87.7638 32.9389 89.2144 30.4642C90.6651 27.9895 92.6278 26.0269 95.1024 24.5762C97.5771 23.1255 100.222 22.4002 103.038 22.4002C105.854 22.4002 108.5 23.1255 110.974 24.5762C113.449 26.0269 115.412 27.9895 116.862 30.4642C118.313 32.9389 119.038 35.5842 119.038 38.4002C119.038 41.2162 118.313 43.8615 116.862 46.3362C115.412 48.8109 113.449 50.7735 110.974 52.2242C108.5 53.6749 105.854 54.4002 103.038 54.4002ZM109.438 44.8002C106.622 44.8002 103.977 44.0749 101.502 42.6242C99.0278 41.1735 97.0651 39.2109 95.6144 36.7362C94.1638 34.2615 93.4384 31.6162 93.4384 28.8002C93.4384 25.9842 94.1638 23.3389 95.6144 20.8642C97.0651 18.3895 99.0278 16.4269 101.502 14.9762C103.977 13.5255 106.622 12.8002 109.438 12.8002C112.254 12.8002 114.9 13.5255 117.374 14.9762C119.849 16.4269 121.812 18.3895 123.262 20.8642C124.713 23.3389 125.438 25.9842 125.438 28.8002C125.438 31.6162 124.713 34.2615 123.262 36.7362C121.812 39.2109 119.849 41.1735 117.374 42.6242C114.9 44.0749 112.254 44.8002 109.438 44.8002ZM115.838 38.4002C113.022 38.4002 110.377 37.6749 107.902 36.2242C105.428 34.7735 103.465 32.8109 102.014 30.3362C100.564 27.8615 99.8384 25.2162 99.8384 22.4002C99.8384 19.5842 100.564 16.9389 102.014 14.4642C103.465 11.9895 105.428 10.0269 107.902 8.57619C110.377 7.12553 113.022 6.40019 115.838 6.40019C118.654 6.40019 121.3 7.12553 123.774 8.57619C126.249 10.0269 128.212 11.9895 129.662 14.4642C131.113 16.9389 131.838 19.5842 131.838 22.4002C131.838 25.2162 131.113 27.8615 129.662 30.3362C128.212 32.8109 126.249 34.7735 123.774 36.2242C121.3 37.6749 118.654 38.4002 115.838 38.4002ZM119.038 35.2002C116.222 35.2002 113.577 34.4749 111.102 33.0242C108.628 31.5735 106.665 29.6109 105.214 27.1362C103.764 24.6615 103.038 22.0162 103.038 19.2002C103.038 16.3842 103.764 13.7389 105.214 11.2642C106.665 8.78953 108.628 6.82686 111.102 5.37619C113.577 3.92552 116.222 3.20019 119.038 3.20019C121.854 3.20019 124.5 3.92552 126.974 5.37619C129.449 6.82686 131.412 8.78953 132.862 11.2642C134.313 13.7389 135.038 16.3842 135.038 19.2002C135.038 22.0162 134.313 24.6615 132.862 27.1362C131.412 29.6109 129.449 31.5735 126.974 33.0242C124.5 34.4749 121.854 35.2002 119.038 35.2002ZM125.438 35.2002C122.622 35.2002 119.977 34.4749 117.502 33.0242C115.028 31.5735 113.065 29.6109 111.614 27.1362C110.164 24.6615 109.438 22.0162 109.438 19.2002C109.438 16.3842 110.164 13.7389 111.614 11.2642C113.065 8.78953 115.028 6.82686 117.502 5.37619C119.977 3.92552 122.622 3.20019 125.438 3.20019C128.254 3.20019 130.9 3.92552 133.374 5.37619C135.849 6.82686 137.812 8.78953 139.262 11.2642C140.713 13.7389 141.438 16.3842 141.438 19.2002C141.438 22.0162 140.713 24.6615 139.262 27.1362C137.812 29.6109 135.849 31.5735 133.374 33.0242C130.9 34.4749 128.254 35.2002 125.438 35.2002ZM131.838 32.0002C129.022 32.0002 126.377 31.2749 123.902 29.8242C121.428 28.3735 119.465 26.4109 118.014 23.9362C116.564 21.4615 115.838 18.8162 115.838 16.0002C115.838 13.1842 116.564 10.5389 118.014 8.06419C119.465 5.58952 121.428 3.62686 123.902 2.17619C126.377 0.725525 129.022 0.000190735 131.838 0.000190735C134.654 0.000190735 137.3 0.725525 139.774 2.17619C142.249 3.62686 144.212 5.58952 145.662 8.06419C147.113 10.5389 147.838 13.1842 147.838 16.0002C147.838 18.8162 147.113 21.4615 145.662 23.9362C144.212 26.4109 142.249 28.3735 139.774 29.8242C137.3 31.2749 134.654 32.0002 131.838 32.0002ZM106.238 48.0002C103.422 48.0002 100.777 47.2749 98.3024 45.8242C95.8278 44.3735 93.8651 42.4109 92.4144 39.9362C90.9638 37.4615 90.2384 34.8162 90.2384 32.0002C90.2384 29.1842 90.9638 26.5389 92.4144 24.0642C93.8651 21.5895 95.8278 19.6269 98.3024 18.1762C100.777 16.7255 103.422 16.0002 106.238 16.0002C109.054 16.0002 111.7 16.7255 114.174 18.1762C116.649 19.6269 118.612 21.5895 120.062 24.0642C121.513 26.5389 122.238 29.1842 122.238 32.0002C122.238 34.8162 121.513 37.4615 120.062 39.9362C118.612 42.4109 116.649 44.3735 114.174 45.8242C111.7 47.2749 109.054 48.0002 106.238 48.0002ZM170.238 67.2002C167.422 67.2002 164.777 66.4749 162.302 65.0242C159.828 63.5735 157.865 61.6109 156.414 59.1362C154.964 56.6615 154.238 54.0162 154.238 51.2002C154.238 48.3842 154.964 45.7389 156.414 43.2642C157.865 40.7895 159.828 38.8269 162.302 37.3762C164.777 35.9255 167.422 35.2002 170.238 35.2002C173.054 35.2002 175.7 35.9255 178.174 37.3762C180.649 38.8269 182.612 40.7895 184.062 43.2642C185.513 45.7389 186.238 48.3842 186.238 51.2002C186.238 54.0162 185.513 56.6615 184.062 59.1362C182.612 61.6109 180.649 63.5735 178.174 65.0242C175.7 66.4749 173.054 67.2002 170.238 67.2002ZM170.238 60.8002C167.422 60.8002 164.777 60.0749 162.302 58.6242C159.828 57.1735 157.865 55.2109 156.414 52.7362C154.964 50.2615 154.238 47.6162 154.238 44.8002C154.238 41.9842 154.964 39.3389 156.414 36.8642C157.865 34.3895 159.828 32.4269 162.302 30.9762C164.777 29.5255 167.422 28.8002 170.238 28.8002C173.054 28.8002 175.7 29.5255 178.174 30.9762C180.649 32.4269 182.612 34.3895 184.062 36.8642C185.513 39.3389 186.238 41.9842 186.238 44.8002C186.238 47.6162 185.513 50.2615 184.062 52.7362C182.612 55.2109 180.649 57.1735 178.174 58.6242C175.7 60.0749 173.054 60.8002 170.238 60.8002ZM167.038 54.4002C164.222 54.4002 161.577 53.6749 159.102 52.2242C156.628 50.7735 154.665 48.8109 153.214 46.3362C151.764 43.8615 151.038 41.2162 151.038 38.4002C151.038 35.5842 151.764 32.9389 153.214 30.4642C154.665 27.9895 156.628 26.0269 159.102 24.5762C161.577 23.1255 164.222 22.4002 167.038 22.4002C169.854 22.4002 172.5 23.1255 174.974 24.5762C177.449 26.0269 179.412 27.9895 180.862 30.4642C182.313 32.9389 183.038 35.5842 183.038 38.4002C183.038 41.2162 182.313 43.8615 180.862 46.3362C179.412 48.8109 177.449 50.7735 174.974 52.2242C172.5 53.6749 169.854 54.4002 167.038 54.4002ZM160.638 44.8002C157.822 44.8002 155.177 44.0749 152.702 42.6242C150.228 41.1735 148.265 39.2109 146.814 36.7362C145.364 34.2615 144.638 31.6162 144.638 28.8002C144.638 25.9842 145.364 23.3389 146.814 20.8642C148.265 18.3895 150.228 16.4269 152.702 14.9762C155.177 13.5255 157.822 12.8002 160.638 12.8002C163.454 12.8002 166.1 13.5255 168.574 14.9762C171.049 16.4269 173.012 18.3895 174.462 20.8642C175.913 23.3389 176.638 25.9842 176.638 28.8002C176.638 31.6162 175.913 34.2615 174.462 36.7362C173.012 39.2109 171.049 41.1735 168.574 42.6242C166.1 44.0749 163.454 44.8002 160.638 44.8002ZM154.238 38.4002C151.422 38.4002 148.777 37.6749 146.302 36.2242C143.828 34.7735 141.865 32.8109 140.414 30.3362C138.964 27.8615 138.238 25.2162 138.238 22.4002C138.238 19.5842 138.964 16.9389 140.414 14.4642C141.865 11.9895 143.828 10.0269 146.302 8.57619C148.777 7.12553 151.422 6.40019 154.238 6.40019C157.054 6.40019 159.7 7.12553 162.174 8.57619C164.649 10.0269 166.612 11.9895 168.062 14.4642C169.513 16.9389 170.238 19.5842 170.238 22.4002C170.238 25.2162 169.513 27.8615 168.062 30.3362C166.612 32.8109 164.649 34.7735 162.174 36.2242C159.7 37.6749 157.054 38.4002 154.238 38.4002ZM151.038 35.2002C148.222 35.2002 145.577 34.4749 143.102 33.0242C140.628 31.5735 138.665 29.6109 137.214 27.1362C135.764 24.6615 135.038 22.0162 135.038 19.2002C135.038 16.3842 135.764 13.7389 137.214 11.2642C138.665 8.78953 140.628 6.82686 143.102 5.37619C145.577 3.92552 148.222 3.20019 151.038 3.20019C153.854 3.20019 156.5 3.92552 158.974 5.37619C161.449 6.82686 163.412 8.78953 164.862 11.2642C166.313 13.7389 167.038 16.3842 167.038 19.2002C167.038 22.0162 166.313 24.6615 164.862 27.1362C163.412 29.6109 161.449 31.5735 158.974 33.0242C156.5 34.4749 153.854 35.2002 151.038 35.2002ZM144.638 35.2002C141.822 35.2002 139.177 34.4749 136.702 33.0242C134.228 31.5735 132.265 29.6109 130.814 27.1362C129.364 24.6615 128.638 22.0162 128.638 19.2002C128.638 16.3842 129.364 13.7389 130.814 11.2642C132.265 8.78953 134.228 6.82686 136.702 5.37619C139.177 3.92552 141.822 3.20019 144.638 3.20019C147.454 3.20019 150.1 3.92552 152.574 5.37619C155.049 6.82686 157.012 8.78953 158.462 11.2642C159.913 13.7389 160.638 16.3842 160.638 19.2002C160.638 22.0162 159.913 24.6615 158.462 27.1362C157.012 29.6109 155.049 31.5735 152.574 33.0242C150.1 34.4749 147.454 35.2002 144.638 35.2002ZM138.238 32.0002C135.422 32.0002 132.777 31.2749 130.302 29.8242C127.828 28.3735 125.865 26.4109 124.414 23.9362C122.964 21.4615 122.238 18.8162 122.238 16.0002C122.238 13.1842 122.964 10.5389 124.414 8.06419C125.865 5.58952 127.828 3.62686 130.302 2.17619C132.777 0.725525 135.422 0.000190735 138.238 0.000190735C141.054 0.000190735 143.7 0.725525 146.174 2.17619C148.649 3.62686 150.612 5.58952 152.062 8.06419C153.513 10.5389 154.238 13.1842 154.238 16.0002C154.238 18.8162 153.513 21.4615 152.062 23.9362C150.612 26.4109 148.649 28.3735 146.174 29.8242C143.7 31.2749 141.054 32.0002 138.238 32.0002ZM163.838 48.0002C161.022 48.0002 158.377 47.2749 155.902 45.8242C153.428 44.3735 151.465 42.4109 150.014 39.9362C148.564 37.4615 147.838 34.8162 147.838 32.0002C147.838 29.1842 148.564 26.5389 150.014 24.0642C151.465 21.5895 153.428 19.6269 155.902 18.1762C158.377 16.7255 161.022 16.0002 163.838 16.0002C166.654 16.0002 169.3 16.7255 171.774 18.1762C174.249 19.6269 176.212 21.5895 177.662 24.0642C179.113 26.5389 179.838 29.1842 179.838 32.0002C179.838 34.8162 179.113 37.4615 177.662 39.9362C176.212 42.4109 174.249 44.3735 171.774 45.8242C169.3 47.2749 166.654 48.0002 163.838 48.0002ZM99.8384 73.6002C97.0224 73.6002 94.3771 72.8749 91.9024 71.4242C89.4278 69.9735 87.4651 68.0109 86.0144 65.5362C84.5638 63.0615 83.8384 60.4162 83.8384 57.6002C83.8384 54.7842 84.5638 52.1389 86.0144 49.6642C87.4651 47.1895 89.4278 45.2269 91.9024 43.7762C94.3771 42.3255 97.0224 41.6002 99.8384 41.6002C102.654 41.6002 105.3 42.3255 107.774 43.7762C110.249 45.2269 112.212 47.1895 113.662 49.6642C115.113 52.1389 115.838 54.7842 115.838 57.6002C115.838 60.4162 115.113 63.0615 113.662 65.5362C112.212 68.0109 110.249 69.9735 107.774 71.4242C105.3 72.8749 102.654 73.6002 99.8384 73.6002ZM99.8384 80.0002C97.0224 80.0002 94.3771 79.2749 91.9024 77.8242C89.4278 76.3735 87.4651 74.4109 86.0144 71.9362C84.5638 69.4615 83.8384 66.8162 83.8384 64.0002C83.8384 61.1842 84.5638 58.5389 86.0144 56.0642C87.4651 53.5895 89.4278 51.6269 91.9024 50.1762C94.3771 48.7255 97.0224 48.0002 99.8384 48.0002C102.654 48.0002 105.3 48.7255 107.774 50.1762C110.249 51.6269 112.212 53.5895 113.662 56.0642C115.113 58.5389 115.838 61.1842 115.838 64.0002C115.838 66.8162 115.113 69.4615 113.662 71.9362C112.212 74.4109 110.249 76.3735 107.774 77.8242C105.3 79.2749 102.654 80.0002 99.8384 80.0002ZM103.038 86.4002C100.222 86.4002 97.5771 85.6749 95.1024 84.2242C92.6278 82.7735 90.6651 80.8109 89.2144 78.3362C87.7638 75.8615 87.0384 73.2162 87.0384 70.4002C87.0384 67.5842 87.7638 64.9389 89.2144 62.4642C90.6651 59.9895 92.6278 58.0269 95.1024 56.5762C97.5771 55.1255 100.222 54.4002 103.038 54.4002C105.854 54.4002 108.5 55.1255 110.974 56.5762C113.449 58.0269 115.412 59.9895 116.862 62.4642C118.313 64.9389 119.038 67.5842 119.038 70.4002C119.038 73.2162 118.313 75.8615 116.862 78.3362C115.412 80.8109 113.449 82.7735 110.974 84.2242C108.5 85.6749 105.854 86.4002 103.038 86.4002ZM109.438 96.0002C106.622 96.0002 103.977 95.2749 101.502 93.8242C99.0278 92.3735 97.0651 90.4109 95.6144 87.9362C94.1638 85.4615 93.4384 82.8162 93.4384 80.0002C93.4384 77.1842 94.1638 74.5389 95.6144 72.0642C97.0651 69.5895 99.0278 67.6269 101.502 66.1762C103.977 64.7255 106.622 64.0002 109.438 64.0002C112.254 64.0002 114.9 64.7255 117.374 66.1762C119.849 67.6269 121.812 69.5895 123.262 72.0642C124.713 74.5389 125.438 77.1842 125.438 80.0002C125.438 82.8162 124.713 85.4615 123.262 87.9362C121.812 90.4109 119.849 92.3735 117.374 93.8242C114.9 95.2749 112.254 96.0002 109.438 96.0002ZM115.838 102.4C113.022 102.4 110.377 101.675 107.902 100.224C105.428 98.7735 103.465 96.8109 102.014 94.3362C100.564 91.8615 99.8384 89.2162 99.8384 86.4002C99.8384 83.5842 100.564 80.9389 102.014 78.4642C103.465 75.9895 105.428 74.0269 107.902 72.5762C110.377 71.1255 113.022 70.4002 115.838 70.4002C118.654 70.4002 121.3 71.1255 123.774 72.5762C126.249 74.0269 128.212 75.9895 129.662 78.4642C131.113 80.9389 131.838 83.5842 131.838 86.4002C131.838 89.2162 131.113 91.8615 129.662 94.3362C128.212 96.8109 126.249 98.7735 123.774 100.224C121.3 101.675 118.654 102.4 115.838 102.4ZM119.038 105.6C116.222 105.6 113.577 104.875 111.102 103.424C108.628 101.974 106.665 100.011 105.214 97.5362C103.764 95.0615 103.038 92.4162 103.038 89.6002C103.038 86.7842 103.764 84.1389 105.214 81.6642C106.665 79.1895 108.628 77.2269 111.102 75.7762C113.577 74.3255 116.222 73.6002 119.038 73.6002C121.854 73.6002 124.5 74.3255 126.974 75.7762C129.449 77.2269 131.412 79.1895 132.862 81.6642C134.313 84.1389 135.038 86.7842 135.038 89.6002C135.038 92.4162 134.313 95.0615 132.862 97.5362C131.412 100.011 129.449 101.974 126.974 103.424C124.5 104.875 121.854 105.6 119.038 105.6ZM125.438 105.6C122.622 105.6 119.977 104.875 117.502 103.424C115.028 101.974 113.065 100.011 111.614 97.5362C110.164 95.0615 109.438 92.4162 109.438 89.6002C109.438 86.7842 110.164 84.1389 111.614 81.6642C113.065 79.1895 115.028 77.2269 117.502 75.7762C119.977 74.3255 122.622 73.6002 125.438 73.6002C128.254 73.6002 130.9 74.3255 133.374 75.7762C135.849 77.2269 137.812 79.1895 139.262 81.6642C140.713 84.1389 141.438 86.7842 141.438 89.6002C141.438 92.4162 140.713 95.0615 139.262 97.5362C137.812 100.011 135.849 101.974 133.374 103.424C130.9 104.875 128.254 105.6 125.438 105.6ZM131.838 108.8C129.022 108.8 126.377 108.075 123.902 106.624C121.428 105.174 119.465 103.211 118.014 100.736C116.564 98.2615 115.838 95.6162 115.838 92.8002C115.838 89.9842 116.564 87.3389 118.014 84.8642C119.465 82.3895 121.428 80.4269 123.902 78.9762C126.377 77.5255 129.022 76.8002 131.838 76.8002C134.654 76.8002 137.3 77.5255 139.774 78.9762C142.249 80.4269 144.212 82.3895 145.662 84.8642C147.113 87.3389 147.838 89.9842 147.838 92.8002C147.838 95.6162 147.113 98.2615 145.662 100.736C144.212 103.211 142.249 105.174 139.774 106.624C137.3 108.075 134.654 108.8 131.838 108.8ZM106.238 92.8002C103.422 92.8002 100.777 92.0749 98.3024 90.6242C95.8278 89.1735 93.8651 87.2109 92.4144 84.7362C90.9638 82.2615 90.2384 79.6162 90.2384 76.8002C90.2384 73.9842 90.9638 71.3389 92.4144 68.8642C93.8651 66.3895 95.8278 64.4269 98.3024 62.9762C100.777 61.5255 103.422 60.8002 106.238 60.8002C109.054 60.8002 111.7 61.5255 114.174 62.9762C116.649 64.4269 118.612 66.3895 120.062 68.8642C121.513 71.3389 122.238 73.9842 122.238 76.8002C122.238 79.6162 121.513 82.2615 120.062 84.7362C118.612 87.2109 116.649 89.1735 114.174 90.6242C111.7 92.0749 109.054 92.8002 106.238 92.8002ZM170.238 73.6002C167.422 73.6002 164.777 72.8749 162.302 71.4242C159.828 69.9735 157.865 68.0109 156.414 65.5362C154.964 63.0615 154.238 60.4162 154.238 57.6002C154.238 54.7842 154.964 52.1389 156.414 49.6642C157.865 47.1895 159.828 45.2269 162.302 43.7762C164.777 42.3255 167.422 41.6002 170.238 41.6002C173.054 41.6002 175.7 42.3255 178.174 43.7762C180.649 45.2269 182.612 47.1895 184.062 49.6642C185.513 52.1389 186.238 54.7842 186.238 57.6002C186.238 60.4162 185.513 63.0615 184.062 65.5362C182.612 68.0109 180.649 69.9735 178.174 71.4242C175.7 72.8749 173.054 73.6002 170.238 73.6002ZM170.238 80.0002C167.422 80.0002 164.777 79.2749 162.302 77.8242C159.828 76.3735 157.865 74.4109 156.414 71.9362C154.964 69.4615 154.238 66.8162 154.238 64.0002C154.238 61.1842 154.964 58.5389 156.414 56.0642C157.865 53.5895 159.828 51.6269 162.302 50.1762C164.777 48.7255 167.422 48.0002 170.238 48.0002C173.054 48.0002 175.7 48.7255 178.174 50.1762C180.649 51.6269 182.612 53.5895 184.062 56.0642C185.513 58.5389 186.238 61.1842 186.238 64.0002C186.238 66.8162 185.513 69.4615 184.062 71.9362C182.612 74.4109 180.649 76.3735 178.174 77.8242C175.7 79.2749 173.054 80.0002 170.238 80.0002ZM167.038 86.4002C164.222 86.4002 161.577 85.6749 159.102 84.2242C156.628 82.7735 154.665 80.8109 153.214 78.3362C151.764 75.8615 151.038 73.2162 151.038 70.4002C151.038 67.5842 151.764 64.9389 153.214 62.4642C154.665 59.9895 156.628 58.0269 159.102 56.5762C161.577 55.1255 164.222 54.4002 167.038 54.4002C169.854 54.4002 172.5 55.1255 174.974 56.5762C177.449 58.0269 179.412 59.9895 180.862 62.4642C182.313 64.9389 183.038 67.5842 183.038 70.4002C183.038 73.2162 182.313 75.8615 180.862 78.3362C179.412 80.8109 177.449 82.7735 174.974 84.2242C172.5 85.6749 169.854 86.4002 167.038 86.4002ZM160.638 96.0002C157.822 96.0002 155.177 95.2749 152.702 93.8242C150.228 92.3735 148.265 90.4109 146.814 87.9362C145.364 85.4615 144.638 82.8162 144.638 80.0002C144.638 77.1842 145.364 74.5389 146.814 72.0642C148.265 69.5895 150.228 67.6269 152.702 66.1762C155.177 64.7255 157.822 64.0002 160.638 64.0002C163.454 64.0002 166.1 64.7255 168.574 66.1762C171.049 67.6269 173.012 69.5895 174.462 72.0642C175.913 74.5389 176.638 77.1842 176.638 80.0002C176.638 82.8162 175.913 85.4615 174.462 87.9362C173.012 90.4109 171.049 92.3735 168.574 93.8242C166.1 95.2749 163.454 96.0002 160.638 96.0002ZM154.238 102.4C151.422 102.4 148.777 101.675 146.302 100.224C143.828 98.7735 141.865 96.8109 140.414 94.3362C138.964 91.8615 138.238 89.2162 138.238 86.4002C138.238 83.5842 138.964 80.9389 140.414 78.4642C141.865 75.9895 143.828 74.0269 146.302 72.5762C148.777 71.1255 151.422 70.4002 154.238 70.4002C157.054 70.4002 159.7 71.1255 162.174 72.5762C164.649 74.0269 166.612 75.9895 168.062 78.4642C169.513 80.9389 170.238 83.5842 170.238 86.4002C170.238 89.2162 169.513 91.8615 168.062 94.3362C166.612 96.8109 164.649 98.7735 162.174 100.224C159.7 101.675 157.054 102.4 154.238 102.4ZM151.038 105.6C148.222 105.6 145.577 104.875 143.102 103.424C140.628 101.974 138.665 100.011 137.214 97.5362C135.764 95.0615 135.038 92.4162 135.038 89.6002C135.038 86.7842 135.764 84.1389 137.214 81.6642C138.665 79.1895 140.628 77.2269 143.102 75.7762C145.577 74.3255 148.222 73.6002 151.038 73.6002C153.854 73.6002 156.5 74.3255 158.974 75.7762C161.449 77.2269 163.412 79.1895 164.862 81.6642C166.313 84.1389 167.038 86.7842 167.038 89.6002C167.038 92.4162 166.313 95.0615 164.862 97.5362C163.412 100.011 161.449 101.974 158.974 103.424C156.5 104.875 153.854 105.6 151.038 105.6ZM144.638 105.6C141.822 105.6 139.177 104.875 136.702 103.424C134.228 101.974 132.265 100.011 130.814 97.5362C129.364 95.0615 128.638 92.4162 128.638 89.6002C128.638 86.7842 129.364 84.1389 130.814 81.6642C132.265 79.1895 134.228 77.2269 136.702 75.7762C139.177 74.3255 141.822 73.6002 144.638 73.6002C147.454 73.6002 150.1 74.3255 152.574 75.7762C155.049 77.2269 157.012 79.1895 158.462 81.6642C159.913 84.1389 160.638 86.7842 160.638 89.6002C160.638 92.4162 159.913 95.0615 158.462 97.5362C157.012 100.011 155.049 101.974 152.574 103.424C150.1 104.875 147.454 105.6 144.638 105.6ZM138.238 108.8C135.422 108.8 132.777 108.075 130.302 106.624C127.828 105.174 125.865 103.211 124.414 100.736C122.964 98.2615 122.238 95.6162 122.238 92.8002C122.238 89.9842 122.964 87.3389 124.414 84.8642C125.865 82.3895 127.828 80.4269 130.302 78.9762C132.777 77.5255 135.422 76.8002 138.238 76.8002C141.054 76.8002 143.7 77.5255 146.174 78.9762C148.649 80.4269 150.612 82.3895 152.062 84.8642C153.513 87.3389 154.238 89.9842 154.238 92.8002C154.238 95.6162 153.513 98.2615 152.062 100.736C150.612 103.211 148.649 105.174 146.174 106.624C143.7 108.075 141.054 108.8 138.238 108.8ZM163.838 92.8002C161.022 92.8002 158.377 92.0749 155.902 90.6242C153.428 89.1735 151.465 87.2109 150.014 84.7362C148.564 82.2615 147.838 79.6162 147.838 76.8002C147.838 73.9842 148.564 71.3389 150.014 68.8642C151.465 66.3895 153.428 64.4269 155.902 62.9762C158.377 61.5255 161.022 60.8002 163.838 60.8002C166.654 60.8002 169.3 61.5255 171.774 62.9762C174.249 64.4269 176.212 66.3895 177.662 68.8642C179.113 71.3389 179.838 73.9842 179.838 76.8002C179.838 79.6162 179.113 82.2615 177.662 84.7362C176.212 87.2109 174.249 89.1735 171.774 90.6242C169.3 92.0749 166.654 92.8002 163.838 92.8002ZM204.353 96.0002C201.537 96.0002 198.892 95.2749 196.417 93.8242C193.943 92.3735 191.98 90.4109 190.529 87.9362C189.079 85.4615 188.353 82.8162 188.353 80.0002C188.353 77.1842 189.079 74.5389 190.529 72.0642C191.98 69.5895 193.943 67.6269 196.417 66.1762C198.892 64.7255 201.537 64.0002 204.353 64.0002C207.169 64.0002 209.815 64.7255 212.289 66.1762C214.764 67.6269 216.727 69.5895 218.177 72.0642C219.628 74.5389 220.353 77.1842 220.353 80.0002C220.353 82.8162 219.628 85.4615 218.177 87.9362C216.727 90.4109 214.764 92.3735 212.289 93.8242C209.815 95.2749 207.169 96.0002 204.353 96.0002ZM204.353 102.4C201.537 102.4 198.892 101.675 196.417 100.224C193.943 98.7735 191.98 96.8109 190.529 94.3362C189.079 91.8615 188.353 89.2162 188.353 86.4002C188.353 83.5842 189.079 80.9389 190.529 78.4642C191.98 75.9895 193.943 74.0269 196.417 72.5762C198.892 71.1255 201.537 70.4002 204.353 70.4002C207.169 70.4002 209.815 71.1255 212.289 72.5762C214.764 74.0269 216.727 75.9895 218.177 78.4642C219.628 80.9389 220.353 83.5842 220.353 86.4002C220.353 89.2162 219.628 91.8615 218.177 94.3362C216.727 96.8109 214.764 98.7735 212.289 100.224C209.815 101.675 207.169 102.4 204.353 102.4ZM204.353 89.6002C201.537 89.6002 198.892 88.8749 196.417 87.4242C193.943 85.9735 191.98 84.0109 190.529 81.5362C189.079 79.0615 188.353 76.4162 188.353 73.6002C188.353 70.7842 189.079 68.1389 190.529 65.6642C191.98 63.1895 193.943 61.2269 196.417 59.7762C198.892 58.3255 201.537 57.6002 204.353 57.6002C207.169 57.6002 209.815 58.3255 212.289 59.7762C214.764 61.2269 216.727 63.1895 218.177 65.6642C219.628 68.1389 220.353 70.7842 220.353 73.6002C220.353 76.4162 219.628 79.0615 218.177 81.5362C216.727 84.0109 214.764 85.9735 212.289 87.4242C209.815 88.8749 207.169 89.6002 204.353 89.6002ZM204.353 83.2002C201.537 83.2002 198.892 82.4749 196.417 81.0242C193.943 79.5735 191.98 77.6109 190.529 75.1362C189.079 72.6615 188.353 70.0162 188.353 67.2002C188.353 64.3842 189.079 61.7389 190.529 59.2642C191.98 56.7895 193.943 54.8269 196.417 53.3762C198.892 51.9255 201.537 51.2002 204.353 51.2002C207.169 51.2002 209.815 51.9255 212.289 53.3762C214.764 54.8269 216.727 56.7895 218.177 59.2642C219.628 61.7389 220.353 64.3842 220.353 67.2002C220.353 70.0162 219.628 72.6615 218.177 75.1362C216.727 77.6109 214.764 79.5735 212.289 81.0242C209.815 82.4749 207.169 83.2002 204.353 83.2002ZM204.353 76.8002C201.537 76.8002 198.892 76.0749 196.417 74.6242C193.943 73.1735 191.98 71.2109 190.529 68.7362C189.079 66.2615 188.353 63.6162 188.353 60.8002C188.353 57.9842 189.079 55.3389 190.529 52.8642C191.98 50.3895 193.943 48.4269 196.417 46.9762C198.892 45.5255 201.537 44.8002 204.353 44.8002C207.169 44.8002 209.815 45.5255 212.289 46.9762C214.764 48.4269 216.727 50.3895 218.177 52.8642C219.628 55.3389 220.353 57.9842 220.353 60.8002C220.353 63.6162 219.628 66.2615 218.177 68.7362C216.727 71.2109 214.764 73.1735 212.289 74.6242C209.815 76.0749 207.169 76.8002 204.353 76.8002ZM204.353 64.0002C201.537 64.0002 198.892 63.2749 196.417 61.8242C193.943 60.3735 191.98 58.4109 190.529 55.9362C189.079 53.4615 188.353 50.8162 188.353 48.0002C188.353 45.1842 189.079 42.5389 190.529 40.0642C191.98 37.5895 193.943 35.6269 196.417 34.1762C198.892 32.7255 201.537 32.0002 204.353 32.0002C207.169 32.0002 209.815 32.7255 212.289 34.1762C214.764 35.6269 216.727 37.5895 218.177 40.0642C219.628 42.5389 220.353 45.1842 220.353 48.0002C220.353 50.8162 219.628 53.4615 218.177 55.9362C216.727 58.4109 214.764 60.3735 212.289 61.8242C209.815 63.2749 207.169 64.0002 204.353 64.0002ZM197.953 32.0002C195.137 32.0002 192.492 31.2749 190.017 29.8242C187.543 28.3735 185.58 26.4109 184.129 23.9362C182.679 21.4615 181.953 18.8162 181.953 16.0002C181.953 13.1842 182.679 10.5389 184.129 8.06419C185.58 5.58952 187.543 3.62686 190.017 2.17619C192.492 0.725525 195.137 0.000190735 197.953 0.000190735C200.769 0.000190735 203.415 0.725525 205.889 2.17619C208.364 3.62686 210.327 5.58952 211.777 8.06419C213.228 10.5389 213.953 13.1842 213.953 16.0002C213.953 18.8162 213.228 21.4615 211.777 23.9362C210.327 26.4109 208.364 28.3735 205.889 29.8242C203.415 31.2749 200.769 32.0002 197.953 32.0002ZM191.553 32.0002C188.737 32.0002 186.092 31.2749 183.617 29.8242C181.143 28.3735 179.18 26.4109 177.729 23.9362C176.279 21.4615 175.553 18.8162 175.553 16.0002C175.553 13.1842 176.279 10.5389 177.729 8.06419C179.18 5.58952 181.143 3.62686 183.617 2.17619C186.092 0.725525 188.737 0.000190735 191.553 0.000190735C194.369 0.000190735 197.015 0.725525 199.489 2.17619C201.964 3.62686 203.927 5.58952 205.377 8.06419C206.828 10.5389 207.553 13.1842 207.553 16.0002C207.553 18.8162 206.828 21.4615 205.377 23.9362C203.927 26.4109 201.964 28.3735 199.489 29.8242C197.015 31.2749 194.369 32.0002 191.553 32.0002ZM197.953 108.8C195.137 108.8 192.492 108.075 190.017 106.624C187.543 105.174 185.58 103.211 184.129 100.736C182.679 98.2615 181.953 95.6162 181.953 92.8002C181.953 89.9842 182.679 87.3389 184.129 84.8642C185.58 82.3895 187.543 80.4269 190.017 78.9762C192.492 77.5255 195.137 76.8002 197.953 76.8002C200.769 76.8002 203.415 77.5255 205.889 78.9762C208.364 80.4269 210.327 82.3895 211.777 84.8642C213.228 87.3389 213.953 89.9842 213.953 92.8002C213.953 95.6162 213.228 98.2615 211.777 100.736C210.327 103.211 208.364 105.174 205.889 106.624C203.415 108.075 200.769 108.8 197.953 108.8ZM191.553 108.8C188.737 108.8 186.092 108.075 183.617 106.624C181.143 105.174 179.18 103.211 177.729 100.736C176.279 98.2615 175.553 95.6162 175.553 92.8002C175.553 89.9842 176.279 87.3389 177.729 84.8642C179.18 82.3895 181.143 80.4269 183.617 78.9762C186.092 77.5255 188.737 76.8002 191.553 76.8002C194.369 76.8002 197.015 77.5255 199.489 78.9762C201.964 80.4269 203.927 82.3895 205.377 84.8642C206.828 87.3389 207.553 89.9842 207.553 92.8002C207.553 95.6162 206.828 98.2615 205.377 100.736C203.927 103.211 201.964 105.174 199.489 106.624C197.015 108.075 194.369 108.8 191.553 108.8ZM210.753 108.8C207.937 108.8 205.292 108.075 202.817 106.624C200.343 105.174 198.38 103.211 196.929 100.736C195.479 98.2615 194.753 95.6162 194.753 92.8002C194.753 89.9842 195.479 87.3389 196.929 84.8642C198.38 82.3895 200.343 80.4269 202.817 78.9762C205.292 77.5255 207.937 76.8002 210.753 76.8002C213.569 76.8002 216.215 77.5255 218.689 78.9762C221.164 80.4269 223.127 82.3895 224.577 84.8642C226.028 87.3389 226.753 89.9842 226.753 92.8002C226.753 95.6162 226.028 98.2615 224.577 100.736C223.127 103.211 221.164 105.174 218.689 106.624C216.215 108.075 213.569 108.8 210.753 108.8ZM204.353 70.4002C201.537 70.4002 198.892 69.6749 196.417 68.2242C193.943 66.7735 191.98 64.8109 190.529 62.3362C189.079 59.8615 188.353 57.2162 188.353 54.4002C188.353 51.5842 189.079 48.9389 190.529 46.4642C191.98 43.9895 193.943 42.0269 196.417 40.5762C198.892 39.1255 201.537 38.4002 204.353 38.4002C207.169 38.4002 209.815 39.1255 212.289 40.5762C214.764 42.0269 216.727 43.9895 218.177 46.4642C219.628 48.9389 220.353 51.5842 220.353 54.4002C220.353 57.2162 219.628 59.8615 218.177 62.3362C216.727 64.8109 214.764 66.7735 212.289 68.2242C209.815 69.6749 207.169 70.4002 204.353 70.4002ZM217.153 108.8C214.337 108.8 211.692 108.075 209.217 106.624C206.743 105.174 204.78 103.211 203.329 100.736C201.879 98.2615 201.153 95.6162 201.153 92.8002C201.153 89.9842 201.879 87.3389 203.329 84.8642C204.78 82.3895 206.743 80.4269 209.217 78.9762C211.692 77.5255 214.337 76.8002 217.153 76.8002C219.969 76.8002 222.615 77.5255 225.089 78.9762C227.564 80.4269 229.527 82.3895 230.977 84.8642C232.428 87.3389 233.153 89.9842 233.153 92.8002C233.153 95.6162 232.428 98.2615 230.977 100.736C229.527 103.211 227.564 105.174 225.089 106.624C222.615 108.075 219.969 108.8 217.153 108.8ZM204.353 57.6002C201.537 57.6002 198.892 56.8749 196.417 55.4242C193.943 53.9735 191.98 52.0109 190.529 49.5362C189.079 47.0615 188.353 44.4162 188.353 41.6002C188.353 38.7842 189.079 36.1389 190.529 33.6642C191.98 31.1895 193.943 29.2269 196.417 27.7762C198.892 26.3255 201.537 25.6002 204.353 25.6002C207.169 25.6002 209.815 26.3255 212.289 27.7762C214.764 29.2269 216.727 31.1895 218.177 33.6642C219.628 36.1389 220.353 38.7842 220.353 41.6002C220.353 44.4162 219.628 47.0615 218.177 49.5362C216.727 52.0109 214.764 53.9735 212.289 55.4242C209.815 56.8749 207.169 57.6002 204.353 57.6002ZM204.353 51.2002C201.537 51.2002 198.892 50.4749 196.417 49.0242C193.943 47.5735 191.98 45.6109 190.529 43.1362C189.079 40.6615 188.353 38.0162 188.353 35.2002C188.353 32.3842 189.079 29.7389 190.529 27.2642C191.98 24.7895 193.943 22.8269 196.417 21.3762C198.892 19.9255 201.537 19.2002 204.353 19.2002C207.169 19.2002 209.815 19.9255 212.289 21.3762C214.764 22.8269 216.727 24.7895 218.177 27.2642C219.628 29.7389 220.353 32.3842 220.353 35.2002C220.353 38.0162 219.628 40.6615 218.177 43.1362C216.727 45.6109 214.764 47.5735 212.289 49.0242C209.815 50.4749 207.169 51.2002 204.353 51.2002ZM204.353 44.8002C201.537 44.8002 198.892 44.0749 196.417 42.6242C193.943 41.1735 191.98 39.2109 190.529 36.7362C189.079 34.2615 188.353 31.6162 188.353 28.8002C188.353 25.9842 189.079 23.3389 190.529 20.8642C191.98 18.3895 193.943 16.4269 196.417 14.9762C198.892 13.5255 201.537 12.8002 204.353 12.8002C207.169 12.8002 209.815 13.5255 212.289 14.9762C214.764 16.4269 216.727 18.3895 218.177 20.8642C219.628 23.3389 220.353 25.9842 220.353 28.8002C220.353 31.6162 219.628 34.2615 218.177 36.7362C216.727 39.2109 214.764 41.1735 212.289 42.6242C209.815 44.0749 207.169 44.8002 204.353 44.8002ZM204.353 38.4002C201.537 38.4002 198.892 37.6749 196.417 36.2242C193.943 34.7735 191.98 32.8109 190.529 30.3362C189.079 27.8615 188.353 25.2162 188.353 22.4002C188.353 19.5842 189.079 16.9389 190.529 14.4642C191.98 11.9895 193.943 10.0269 196.417 8.57619C198.892 7.12553 201.537 6.40019 204.353 6.40019C207.169 6.40019 209.815 7.12553 212.289 8.57619C214.764 10.0269 216.727 11.9895 218.177 14.4642C219.628 16.9389 220.353 19.5842 220.353 22.4002C220.353 25.2162 219.628 27.8615 218.177 30.3362C216.727 32.8109 214.764 34.7735 212.289 36.2242C209.815 37.6749 207.169 38.4002 204.353 38.4002ZM217.153 32.0002C214.337 32.0002 211.692 31.2749 209.217 29.8242C206.743 28.3735 204.78 26.4109 203.329 23.9362C201.879 21.4615 201.153 18.8162 201.153 16.0002C201.153 13.1842 201.879 10.5389 203.329 8.06419C204.78 5.58952 206.743 3.62686 209.217 2.17619C211.692 0.725525 214.337 0.000190735 217.153 0.000190735C219.969 0.000190735 222.615 0.725525 225.089 2.17619C227.564 3.62686 229.527 5.58952 230.977 8.06419C232.428 10.5389 233.153 13.1842 233.153 16.0002C233.153 18.8162 232.428 21.4615 230.977 23.9362C229.527 26.4109 227.564 28.3735 225.089 29.8242C222.615 31.2749 219.969 32.0002 217.153 32.0002ZM210.753 32.0002C207.937 32.0002 205.292 31.2749 202.817 29.8242C200.343 28.3735 198.38 26.4109 196.929 23.9362C195.479 21.4615 194.753 18.8162 194.753 16.0002C194.753 13.1842 195.479 10.5389 196.929 8.06419C198.38 5.58952 200.343 3.62686 202.817 2.17619C205.292 0.725525 207.937 0.000190735 210.753 0.000190735C213.569 0.000190735 216.215 0.725525 218.689 2.17619C221.164 3.62686 223.127 5.58952 224.577 8.06419C226.028 10.5389 226.753 13.1842 226.753 16.0002C226.753 18.8162 226.028 21.4615 224.577 23.9362C223.127 26.4109 221.164 28.3735 218.689 29.8242C216.215 31.2749 213.569 32.0002 210.753 32.0002ZM204.353 32.0002C201.537 32.0002 198.892 31.2749 196.417 29.8242C193.943 28.3735 191.98 26.4109 190.529 23.9362C189.079 21.4615 188.353 18.8162 188.353 16.0002C188.353 13.1842 189.079 10.5389 190.529 8.06419C191.98 5.58952 193.943 3.62686 196.417 2.17619C198.892 0.725525 201.537 0.000190735 204.353 0.000190735C207.169 0.000190735 209.815 0.725525 212.289 2.17619C214.764 3.62686 216.727 5.58952 218.177 8.06419C219.628 10.5389 220.353 13.1842 220.353 16.0002C220.353 18.8162 219.628 21.4615 218.177 23.9362C216.727 26.4109 214.764 28.3735 212.289 29.8242C209.815 31.2749 207.169 32.0002 204.353 32.0002ZM204.353 108.8C201.537 108.8 198.892 108.075 196.417 106.624C193.943 105.174 191.98 103.211 190.529 100.736C189.079 98.2615 188.353 95.6162 188.353 92.8002C188.353 89.9842 189.079 87.3389 190.529 84.8642C191.98 82.3895 193.943 80.4269 196.417 78.9762C198.892 77.5255 201.537 76.8002 204.353 76.8002C207.169 76.8002 209.815 77.5255 212.289 78.9762C214.764 80.4269 216.727 82.3895 218.177 84.8642C219.628 87.3389 220.353 89.9842 220.353 92.8002C220.353 95.6162 219.628 98.2615 218.177 100.736C216.727 103.211 214.764 105.174 212.289 106.624C209.815 108.075 207.169 108.8 204.353 108.8ZM223.553 32.0002C220.737 32.0002 218.092 31.2749 215.617 29.8242C213.143 28.3735 211.18 26.4109 209.729 23.9362C208.279 21.4615 207.553 18.8162 207.553 16.0002C207.553 13.1842 208.279 10.5389 209.729 8.06419C211.18 5.58952 213.143 3.62686 215.617 2.17619C218.092 0.725525 220.737 0.000190735 223.553 0.000190735C226.369 0.000190735 229.015 0.725525 231.489 2.17619C233.964 3.62686 235.927 5.58952 237.377 8.06419C238.828 10.5389 239.553 13.1842 239.553 16.0002C239.553 18.8162 238.828 21.4615 237.377 23.9362C235.927 26.4109 233.964 28.3735 231.489 29.8242C229.015 31.2749 226.369 32.0002 223.553 32.0002ZM229.953 32.0002C227.137 32.0002 224.492 31.2749 222.017 29.8242C219.543 28.3735 217.58 26.4109 216.129 23.9362C214.679 21.4615 213.953 18.8162 213.953 16.0002C213.953 13.1842 214.679 10.5389 216.129 8.06419C217.58 5.58952 219.543 3.62686 222.017 2.17619C224.492 0.725525 227.137 0.000190735 229.953 0.000190735C232.769 0.000190735 235.415 0.725525 237.889 2.17619C240.364 3.62686 242.327 5.58952 243.777 8.06419C245.228 10.5389 245.953 13.1842 245.953 16.0002C245.953 18.8162 245.228 21.4615 243.777 23.9362C242.327 26.4109 240.364 28.3735 237.889 29.8242C235.415 31.2749 232.769 32.0002 229.953 32.0002ZM242.753 38.4002C239.937 38.4002 237.292 37.6749 234.817 36.2242C232.343 34.7735 230.38 32.8109 228.929 30.3362C227.479 27.8615 226.753 25.2162 226.753 22.4002C226.753 19.5842 227.479 16.9389 228.929 14.4642C230.38 11.9895 232.343 10.0269 234.817 8.57619C237.292 7.12553 239.937 6.40019 242.753 6.40019C245.569 6.40019 248.215 7.12553 250.689 8.57619C253.164 10.0269 255.127 11.9895 256.577 14.4642C258.028 16.9389 258.753 19.5842 258.753 22.4002C258.753 25.2162 258.028 27.8615 256.577 30.3362C255.127 32.8109 253.164 34.7735 250.689 36.2242C248.215 37.6749 245.569 38.4002 242.753 38.4002ZM245.953 44.8002C243.137 44.8002 240.492 44.0749 238.017 42.6242C235.543 41.1735 233.58 39.2109 232.129 36.7362C230.679 34.2615 229.953 31.6162 229.953 28.8002C229.953 25.9842 230.679 23.3389 232.129 20.8642C233.58 18.3895 235.543 16.4269 238.017 14.9762C240.492 13.5255 243.137 12.8002 245.953 12.8002C248.769 12.8002 251.415 13.5255 253.889 14.9762C256.364 16.4269 258.327 18.3895 259.777 20.8642C261.228 23.3389 261.953 25.9842 261.953 28.8002C261.953 31.6162 261.228 34.2615 259.777 36.7362C258.327 39.2109 256.364 41.1735 253.889 42.6242C251.415 44.0749 248.769 44.8002 245.953 44.8002ZM236.353 35.2002C233.537 35.2002 230.892 34.4749 228.417 33.0242C225.943 31.5735 223.98 29.6109 222.529 27.1362C221.079 24.6615 220.353 22.0162 220.353 19.2002C220.353 16.3842 221.079 13.7389 222.529 11.2642C223.98 8.78953 225.943 6.82686 228.417 5.37619C230.892 3.92552 233.537 3.20019 236.353 3.20019C239.169 3.20019 241.815 3.92552 244.289 5.37619C246.764 6.82686 248.727 8.78953 250.177 11.2642C251.628 13.7389 252.353 16.3842 252.353 19.2002C252.353 22.0162 251.628 24.6615 250.177 27.1362C248.727 29.6109 246.764 31.5735 244.289 33.0242C241.815 34.4749 239.169 35.2002 236.353 35.2002ZM210.753 73.6002C207.937 73.6002 205.292 72.8749 202.817 71.4242C200.343 69.9735 198.38 68.0109 196.929 65.5362C195.479 63.0615 194.753 60.4162 194.753 57.6002C194.753 54.7842 195.479 52.1389 196.929 49.6642C198.38 47.1895 200.343 45.2269 202.817 43.7762C205.292 42.3255 207.937 41.6002 210.753 41.6002C213.569 41.6002 216.215 42.3255 218.689 43.7762C221.164 45.2269 223.127 47.1895 224.577 49.6642C226.028 52.1389 226.753 54.7842 226.753 57.6002C226.753 60.4162 226.028 63.0615 224.577 65.5362C223.127 68.0109 221.164 69.9735 218.689 71.4242C216.215 72.8749 213.569 73.6002 210.753 73.6002ZM217.153 73.6002C214.337 73.6002 211.692 72.8749 209.217 71.4242C206.743 69.9735 204.78 68.0109 203.329 65.5362C201.879 63.0615 201.153 60.4162 201.153 57.6002C201.153 54.7842 201.879 52.1389 203.329 49.6642C204.78 47.1895 206.743 45.2269 209.217 43.7762C211.692 42.3255 214.337 41.6002 217.153 41.6002C219.969 41.6002 222.615 42.3255 225.089 43.7762C227.564 45.2269 229.527 47.1895 230.977 49.6642C232.428 52.1389 233.153 54.7842 233.153 57.6002C233.153 60.4162 232.428 63.0615 230.977 65.5362C229.527 68.0109 227.564 69.9735 225.089 71.4242C222.615 72.8749 219.969 73.6002 217.153 73.6002ZM223.553 73.6002C220.737 73.6002 218.092 72.8749 215.617 71.4242C213.143 69.9735 211.18 68.0109 209.729 65.5362C208.279 63.0615 207.553 60.4162 207.553 57.6002C207.553 54.7842 208.279 52.1389 209.729 49.6642C211.18 47.1895 213.143 45.2269 215.617 43.7762C218.092 42.3255 220.737 41.6002 223.553 41.6002C226.369 41.6002 229.015 42.3255 231.489 43.7762C233.964 45.2269 235.927 47.1895 237.377 49.6642C238.828 52.1389 239.553 54.7842 239.553 57.6002C239.553 60.4162 238.828 63.0615 237.377 65.5362C235.927 68.0109 233.964 69.9735 231.489 71.4242C229.015 72.8749 226.369 73.6002 223.553 73.6002ZM229.953 73.6002C227.137 73.6002 224.492 72.8749 222.017 71.4242C219.543 69.9735 217.58 68.0109 216.129 65.5362C214.679 63.0615 213.953 60.4162 213.953 57.6002C213.953 54.7842 214.679 52.1389 216.129 49.6642C217.58 47.1895 219.543 45.2269 222.017 43.7762C224.492 42.3255 227.137 41.6002 229.953 41.6002C232.769 41.6002 235.415 42.3255 237.889 43.7762C240.364 45.2269 242.327 47.1895 243.777 49.6642C245.228 52.1389 245.953 54.7842 245.953 57.6002C245.953 60.4162 245.228 63.0615 243.777 65.5362C242.327 68.0109 240.364 69.9735 237.889 71.4242C235.415 72.8749 232.769 73.6002 229.953 73.6002ZM242.753 67.2002C239.937 67.2002 237.292 66.4749 234.817 65.0242C232.343 63.5735 230.38 61.6109 228.929 59.1362C227.479 56.6615 226.753 54.0162 226.753 51.2002C226.753 48.3842 227.479 45.7389 228.929 43.2642C230.38 40.7895 232.343 38.8269 234.817 37.3762C237.292 35.9255 239.937 35.2002 242.753 35.2002C245.569 35.2002 248.215 35.9255 250.689 37.3762C253.164 38.8269 255.127 40.7895 256.577 43.2642C258.028 45.7389 258.753 48.3842 258.753 51.2002C258.753 54.0162 258.028 56.6615 256.577 59.1362C255.127 61.6109 253.164 63.5735 250.689 65.0242C248.215 66.4749 245.569 67.2002 242.753 67.2002ZM249.153 54.4002C246.337 54.4002 243.692 53.6749 241.217 52.2242C238.743 50.7735 236.78 48.8109 235.329 46.3362C233.879 43.8615 233.153 41.2162 233.153 38.4002C233.153 35.5842 233.879 32.9389 235.329 30.4642C236.78 27.9895 238.743 26.0269 241.217 24.5762C243.692 23.1255 246.337 22.4002 249.153 22.4002C251.969 22.4002 254.615 23.1255 257.089 24.5762C259.564 26.0269 261.527 27.9895 262.977 30.4642C264.428 32.9389 265.153 35.5842 265.153 38.4002C265.153 41.2162 264.428 43.8615 262.977 46.3362C261.527 48.8109 259.564 50.7735 257.089 52.2242C254.615 53.6749 251.969 54.4002 249.153 54.4002ZM245.953 60.8002C243.137 60.8002 240.492 60.0749 238.017 58.6242C235.543 57.1735 233.58 55.2109 232.129 52.7362C230.679 50.2615 229.953 47.6162 229.953 44.8002C229.953 41.9842 230.679 39.3389 232.129 36.8642C233.58 34.3895 235.543 32.4269 238.017 30.9762C240.492 29.5255 243.137 28.8002 245.953 28.8002C248.769 28.8002 251.415 29.5255 253.889 30.9762C256.364 32.4269 258.327 34.3895 259.777 36.8642C261.228 39.3389 261.953 41.9842 261.953 44.8002C261.953 47.6162 261.228 50.2615 259.777 52.7362C258.327 55.2109 256.364 57.1735 253.889 58.6242C251.415 60.0749 248.769 60.8002 245.953 60.8002ZM236.353 70.4002C233.537 70.4002 230.892 69.6749 228.417 68.2242C225.943 66.7735 223.98 64.8109 222.529 62.3362C221.079 59.8615 220.353 57.2162 220.353 54.4002C220.353 51.5842 221.079 48.9389 222.529 46.4642C223.98 43.9895 225.943 42.0269 228.417 40.5762C230.892 39.1255 233.537 38.4002 236.353 38.4002C239.169 38.4002 241.815 39.1255 244.289 40.5762C246.764 42.0269 248.727 43.9895 250.177 46.4642C251.628 48.9389 252.353 51.5842 252.353 54.4002C252.353 57.2162 251.628 59.8615 250.177 62.3362C248.727 64.8109 246.764 66.7735 244.289 68.2242C241.815 69.6749 239.169 70.4002 236.353 70.4002ZM226.753 80.0002C223.937 80.0002 221.292 79.2749 218.817 77.8242C216.343 76.3735 214.38 74.4109 212.929 71.9362C211.479 69.4615 210.753 66.8162 210.753 64.0002C210.753 61.1842 211.479 58.5389 212.929 56.0642C214.38 53.5895 216.343 51.6269 218.817 50.1762C221.292 48.7255 223.937 48.0002 226.753 48.0002C229.569 48.0002 232.215 48.7255 234.689 50.1762C237.164 51.6269 239.127 53.5895 240.577 56.0642C242.028 58.5389 242.753 61.1842 242.753 64.0002C242.753 66.8162 242.028 69.4615 240.577 71.9362C239.127 74.4109 237.164 76.3735 234.689 77.8242C232.215 79.2749 229.569 80.0002 226.753 80.0002ZM233.153 86.4002C230.337 86.4002 227.692 85.6749 225.217 84.2242C222.743 82.7735 220.78 80.8109 219.329 78.3362C217.879 75.8615 217.153 73.2162 217.153 70.4002C217.153 67.5842 217.879 64.9389 219.329 62.4642C220.78 59.9895 222.743 58.0269 225.217 56.5762C227.692 55.1255 230.337 54.4002 233.153 54.4002C235.969 54.4002 238.615 55.1255 241.089 56.5762C243.564 58.0269 245.527 59.9895 246.977 62.4642C248.428 64.9389 249.153 67.5842 249.153 70.4002C249.153 73.2162 248.428 75.8615 246.977 78.3362C245.527 80.8109 243.564 82.7735 241.089 84.2242C238.615 85.6749 235.969 86.4002 233.153 86.4002ZM236.353 92.8002C233.537 92.8002 230.892 92.0749 228.417 90.6242C225.943 89.1735 223.98 87.2109 222.529 84.7362C221.079 82.2615 220.353 79.6162 220.353 76.8002C220.353 73.9842 221.079 71.3389 222.529 68.8642C223.98 66.3895 225.943 64.4269 228.417 62.9762C230.892 61.5255 233.537 60.8002 236.353 60.8002C239.169 60.8002 241.815 61.5255 244.289 62.9762C246.764 64.4269 248.727 66.3895 250.177 68.8642C251.628 71.3389 252.353 73.9842 252.353 76.8002C252.353 79.6162 251.628 82.2615 250.177 84.7362C248.727 87.2109 246.764 89.1735 244.289 90.6242C241.815 92.0749 239.169 92.8002 236.353 92.8002ZM242.753 99.2002C239.937 99.2002 237.292 98.4749 234.817 97.0242C232.343 95.5735 230.38 93.6109 228.929 91.1362C227.479 88.6615 226.753 86.0162 226.753 83.2002C226.753 80.3842 227.479 77.7389 228.929 75.2642C230.38 72.7895 232.343 70.8269 234.817 69.3762C237.292 67.9255 239.937 67.2002 242.753 67.2002C245.569 67.2002 248.215 67.9255 250.689 69.3762C253.164 70.8269 255.127 72.7895 256.577 75.2642C258.028 77.7389 258.753 80.3842 258.753 83.2002C258.753 86.0162 258.028 88.6615 256.577 91.1362C255.127 93.6109 253.164 95.5735 250.689 97.0242C248.215 98.4749 245.569 99.2002 242.753 99.2002ZM245.953 105.6C243.137 105.6 240.492 104.875 238.017 103.424C235.543 101.974 233.58 100.011 232.129 97.5362C230.679 95.0615 229.953 92.4162 229.953 89.6002C229.953 86.7842 230.679 84.1389 232.129 81.6642C233.58 79.1895 235.543 77.2269 238.017 75.7762C240.492 74.3255 243.137 73.6002 245.953 73.6002C248.769 73.6002 251.415 74.3255 253.889 75.7762C256.364 77.2269 258.327 79.1895 259.777 81.6642C261.228 84.1389 261.953 86.7842 261.953 89.6002C261.953 92.4162 261.228 95.0615 259.777 97.5362C258.327 100.011 256.364 101.974 253.889 103.424C251.415 104.875 248.769 105.6 245.953 105.6ZM252.353 108.8C249.537 108.8 246.892 108.075 244.417 106.624C241.943 105.174 239.98 103.211 238.529 100.736C237.079 98.2615 236.353 95.6162 236.353 92.8002C236.353 89.9842 237.079 87.3389 238.529 84.8642C239.98 82.3895 241.943 80.4269 244.417 78.9762C246.892 77.5255 249.537 76.8002 252.353 76.8002C255.169 76.8002 257.815 77.5255 260.289 78.9762C262.764 80.4269 264.727 82.3895 266.177 84.8642C267.628 87.3389 268.353 89.9842 268.353 92.8002C268.353 95.6162 267.628 98.2615 266.177 100.736C264.727 103.211 262.764 105.174 260.289 106.624C257.815 108.075 255.169 108.8 252.353 108.8ZM276.393 67.2002C273.577 67.2002 270.932 66.4749 268.457 65.0242C265.983 63.5735 264.02 61.6109 262.569 59.1362C261.119 56.6615 260.393 54.0162 260.393 51.2002C260.393 48.3842 261.119 45.7389 262.569 43.2642C264.02 40.7895 265.983 38.8269 268.457 37.3762C270.932 35.9255 273.577 35.2002 276.393 35.2002C279.209 35.2002 281.855 35.9255 284.329 37.3762C286.804 38.8269 288.767 40.7895 290.217 43.2642C291.668 45.7389 292.393 48.3842 292.393 51.2002C292.393 54.0162 291.668 56.6615 290.217 59.1362C288.767 61.6109 286.804 63.5735 284.329 65.0242C281.855 66.4749 279.209 67.2002 276.393 67.2002ZM276.393 60.8002C273.577 60.8002 270.932 60.0749 268.457 58.6242C265.983 57.1735 264.02 55.2109 262.569 52.7362C261.119 50.2615 260.393 47.6162 260.393 44.8002C260.393 41.9842 261.119 39.3389 262.569 36.8642C264.02 34.3895 265.983 32.4269 268.457 30.9762C270.932 29.5255 273.577 28.8002 276.393 28.8002C279.209 28.8002 281.855 29.5255 284.329 30.9762C286.804 32.4269 288.767 34.3895 290.217 36.8642C291.668 39.3389 292.393 41.9842 292.393 44.8002C292.393 47.6162 291.668 50.2615 290.217 52.7362C288.767 55.2109 286.804 57.1735 284.329 58.6242C281.855 60.0749 279.209 60.8002 276.393 60.8002ZM279.593 54.4002C276.777 54.4002 274.132 53.6749 271.657 52.2242C269.183 50.7735 267.22 48.8109 265.769 46.3362C264.319 43.8615 263.593 41.2162 263.593 38.4002C263.593 35.5842 264.319 32.9389 265.769 30.4642C267.22 27.9895 269.183 26.0269 271.657 24.5762C274.132 23.1255 276.777 22.4002 279.593 22.4002C282.409 22.4002 285.055 23.1255 287.529 24.5762C290.004 26.0269 291.967 27.9895 293.417 30.4642C294.868 32.9389 295.593 35.5842 295.593 38.4002C295.593 41.2162 294.868 43.8615 293.417 46.3362C291.967 48.8109 290.004 50.7735 287.529 52.2242C285.055 53.6749 282.409 54.4002 279.593 54.4002ZM285.993 44.8002C283.177 44.8002 280.532 44.0749 278.057 42.6242C275.583 41.1735 273.62 39.2109 272.169 36.7362C270.719 34.2615 269.993 31.6162 269.993 28.8002C269.993 25.9842 270.719 23.3389 272.169 20.8642C273.62 18.3895 275.583 16.4269 278.057 14.9762C280.532 13.5255 283.177 12.8002 285.993 12.8002C288.809 12.8002 291.455 13.5255 293.929 14.9762C296.404 16.4269 298.367 18.3895 299.817 20.8642C301.268 23.3389 301.993 25.9842 301.993 28.8002C301.993 31.6162 301.268 34.2615 299.817 36.7362C298.367 39.2109 296.404 41.1735 293.929 42.6242C291.455 44.0749 288.809 44.8002 285.993 44.8002ZM292.393 38.4002C289.577 38.4002 286.932 37.6749 284.457 36.2242C281.983 34.7735 280.02 32.8109 278.569 30.3362C277.119 27.8615 276.393 25.2162 276.393 22.4002C276.393 19.5842 277.119 16.9389 278.569 14.4642C280.02 11.9895 281.983 10.0269 284.457 8.57619C286.932 7.12553 289.577 6.40019 292.393 6.40019C295.209 6.40019 297.855 7.12553 300.329 8.57619C302.804 10.0269 304.767 11.9895 306.217 14.4642C307.668 16.9389 308.393 19.5842 308.393 22.4002C308.393 25.2162 307.668 27.8615 306.217 30.3362C304.767 32.8109 302.804 34.7735 300.329 36.2242C297.855 37.6749 295.209 38.4002 292.393 38.4002ZM295.593 35.2002C292.777 35.2002 290.132 34.4749 287.657 33.0242C285.183 31.5735 283.22 29.6109 281.769 27.1362C280.319 24.6615 279.593 22.0162 279.593 19.2002C279.593 16.3842 280.319 13.7389 281.769 11.2642C283.22 8.78953 285.183 6.82686 287.657 5.37619C290.132 3.92552 292.777 3.20019 295.593 3.20019C298.409 3.20019 301.055 3.92552 303.529 5.37619C306.004 6.82686 307.967 8.78953 309.417 11.2642C310.868 13.7389 311.593 16.3842 311.593 19.2002C311.593 22.0162 310.868 24.6615 309.417 27.1362C307.967 29.6109 306.004 31.5735 303.529 33.0242C301.055 34.4749 298.409 35.2002 295.593 35.2002ZM301.993 35.2002C299.177 35.2002 296.532 34.4749 294.057 33.0242C291.583 31.5735 289.62 29.6109 288.169 27.1362C286.719 24.6615 285.993 22.0162 285.993 19.2002C285.993 16.3842 286.719 13.7389 288.169 11.2642C289.62 8.78953 291.583 6.82686 294.057 5.37619C296.532 3.92552 299.177 3.20019 301.993 3.20019C304.809 3.20019 307.455 3.92552 309.929 5.37619C312.404 6.82686 314.367 8.78953 315.817 11.2642C317.268 13.7389 317.993 16.3842 317.993 19.2002C317.993 22.0162 317.268 24.6615 315.817 27.1362C314.367 29.6109 312.404 31.5735 309.929 33.0242C307.455 34.4749 304.809 35.2002 301.993 35.2002ZM308.393 32.0002C305.577 32.0002 302.932 31.2749 300.457 29.8242C297.983 28.3735 296.02 26.4109 294.569 23.9362C293.119 21.4615 292.393 18.8162 292.393 16.0002C292.393 13.1842 293.119 10.5389 294.569 8.06419C296.02 5.58952 297.983 3.62686 300.457 2.17619C302.932 0.725525 305.577 0.000190735 308.393 0.000190735C311.209 0.000190735 313.855 0.725525 316.329 2.17619C318.804 3.62686 320.767 5.58952 322.217 8.06419C323.668 10.5389 324.393 13.1842 324.393 16.0002C324.393 18.8162 323.668 21.4615 322.217 23.9362C320.767 26.4109 318.804 28.3735 316.329 29.8242C313.855 31.2749 311.209 32.0002 308.393 32.0002ZM282.793 48.0002C279.977 48.0002 277.332 47.2749 274.857 45.8242C272.383 44.3735 270.42 42.4109 268.969 39.9362C267.519 37.4615 266.793 34.8162 266.793 32.0002C266.793 29.1842 267.519 26.5389 268.969 24.0642C270.42 21.5895 272.383 19.6269 274.857 18.1762C277.332 16.7255 279.977 16.0002 282.793 16.0002C285.609 16.0002 288.255 16.7255 290.729 18.1762C293.204 19.6269 295.167 21.5895 296.617 24.0642C298.068 26.5389 298.793 29.1842 298.793 32.0002C298.793 34.8162 298.068 37.4615 296.617 39.9362C295.167 42.4109 293.204 44.3735 290.729 45.8242C288.255 47.2749 285.609 48.0002 282.793 48.0002ZM346.793 67.2002C343.977 67.2002 341.332 66.4749 338.857 65.0242C336.383 63.5735 334.42 61.6109 332.969 59.1362C331.519 56.6615 330.793 54.0162 330.793 51.2002C330.793 48.3842 331.519 45.7389 332.969 43.2642C334.42 40.7895 336.383 38.8269 338.857 37.3762C341.332 35.9255 343.977 35.2002 346.793 35.2002C349.609 35.2002 352.255 35.9255 354.729 37.3762C357.204 38.8269 359.167 40.7895 360.617 43.2642C362.068 45.7389 362.793 48.3842 362.793 51.2002C362.793 54.0162 362.068 56.6615 360.617 59.1362C359.167 61.6109 357.204 63.5735 354.729 65.0242C352.255 66.4749 349.609 67.2002 346.793 67.2002ZM346.793 60.8002C343.977 60.8002 341.332 60.0749 338.857 58.6242C336.383 57.1735 334.42 55.2109 332.969 52.7362C331.519 50.2615 330.793 47.6162 330.793 44.8002C330.793 41.9842 331.519 39.3389 332.969 36.8642C334.42 34.3895 336.383 32.4269 338.857 30.9762C341.332 29.5255 343.977 28.8002 346.793 28.8002C349.609 28.8002 352.255 29.5255 354.729 30.9762C357.204 32.4269 359.167 34.3895 360.617 36.8642C362.068 39.3389 362.793 41.9842 362.793 44.8002C362.793 47.6162 362.068 50.2615 360.617 52.7362C359.167 55.2109 357.204 57.1735 354.729 58.6242C352.255 60.0749 349.609 60.8002 346.793 60.8002ZM343.593 54.4002C340.777 54.4002 338.132 53.6749 335.657 52.2242C333.183 50.7735 331.22 48.8109 329.769 46.3362C328.319 43.8615 327.593 41.2162 327.593 38.4002C327.593 35.5842 328.319 32.9389 329.769 30.4642C331.22 27.9895 333.183 26.0269 335.657 24.5762C338.132 23.1255 340.777 22.4002 343.593 22.4002C346.409 22.4002 349.055 23.1255 351.529 24.5762C354.004 26.0269 355.967 27.9895 357.417 30.4642C358.868 32.9389 359.593 35.5842 359.593 38.4002C359.593 41.2162 358.868 43.8615 357.417 46.3362C355.967 48.8109 354.004 50.7735 351.529 52.2242C349.055 53.6749 346.409 54.4002 343.593 54.4002ZM337.193 44.8002C334.377 44.8002 331.732 44.0749 329.257 42.6242C326.783 41.1735 324.82 39.2109 323.369 36.7362C321.919 34.2615 321.193 31.6162 321.193 28.8002C321.193 25.9842 321.919 23.3389 323.369 20.8642C324.82 18.3895 326.783 16.4269 329.257 14.9762C331.732 13.5255 334.377 12.8002 337.193 12.8002C340.009 12.8002 342.655 13.5255 345.129 14.9762C347.604 16.4269 349.567 18.3895 351.017 20.8642C352.468 23.3389 353.193 25.9842 353.193 28.8002C353.193 31.6162 352.468 34.2615 351.017 36.7362C349.567 39.2109 347.604 41.1735 345.129 42.6242C342.655 44.0749 340.009 44.8002 337.193 44.8002ZM330.793 38.4002C327.977 38.4002 325.332 37.6749 322.857 36.2242C320.383 34.7735 318.42 32.8109 316.969 30.3362C315.519 27.8615 314.793 25.2162 314.793 22.4002C314.793 19.5842 315.519 16.9389 316.969 14.4642C318.42 11.9895 320.383 10.0269 322.857 8.57619C325.332 7.12553 327.977 6.40019 330.793 6.40019C333.609 6.40019 336.255 7.12553 338.729 8.57619C341.204 10.0269 343.167 11.9895 344.617 14.4642C346.068 16.9389 346.793 19.5842 346.793 22.4002C346.793 25.2162 346.068 27.8615 344.617 30.3362C343.167 32.8109 341.204 34.7735 338.729 36.2242C336.255 37.6749 333.609 38.4002 330.793 38.4002ZM327.593 35.2002C324.777 35.2002 322.132 34.4749 319.657 33.0242C317.183 31.5735 315.22 29.6109 313.769 27.1362C312.319 24.6615 311.593 22.0162 311.593 19.2002C311.593 16.3842 312.319 13.7389 313.769 11.2642C315.22 8.78953 317.183 6.82686 319.657 5.37619C322.132 3.92552 324.777 3.20019 327.593 3.20019C330.409 3.20019 333.055 3.92552 335.529 5.37619C338.004 6.82686 339.967 8.78953 341.417 11.2642C342.868 13.7389 343.593 16.3842 343.593 19.2002C343.593 22.0162 342.868 24.6615 341.417 27.1362C339.967 29.6109 338.004 31.5735 335.529 33.0242C333.055 34.4749 330.409 35.2002 327.593 35.2002ZM321.193 35.2002C318.377 35.2002 315.732 34.4749 313.257 33.0242C310.783 31.5735 308.82 29.6109 307.369 27.1362C305.919 24.6615 305.193 22.0162 305.193 19.2002C305.193 16.3842 305.919 13.7389 307.369 11.2642C308.82 8.78953 310.783 6.82686 313.257 5.37619C315.732 3.92552 318.377 3.20019 321.193 3.20019C324.009 3.20019 326.655 3.92552 329.129 5.37619C331.604 6.82686 333.567 8.78953 335.017 11.2642C336.468 13.7389 337.193 16.3842 337.193 19.2002C337.193 22.0162 336.468 24.6615 335.017 27.1362C333.567 29.6109 331.604 31.5735 329.129 33.0242C326.655 34.4749 324.009 35.2002 321.193 35.2002ZM314.793 32.0002C311.977 32.0002 309.332 31.2749 306.857 29.8242C304.383 28.3735 302.42 26.4109 300.969 23.9362C299.519 21.4615 298.793 18.8162 298.793 16.0002C298.793 13.1842 299.519 10.5389 300.969 8.06419C302.42 5.58952 304.383 3.62686 306.857 2.17619C309.332 0.725525 311.977 0.000190735 314.793 0.000190735C317.609 0.000190735 320.255 0.725525 322.729 2.17619C325.204 3.62686 327.167 5.58952 328.617 8.06419C330.068 10.5389 330.793 13.1842 330.793 16.0002C330.793 18.8162 330.068 21.4615 328.617 23.9362C327.167 26.4109 325.204 28.3735 322.729 29.8242C320.255 31.2749 317.609 32.0002 314.793 32.0002ZM340.393 48.0002C337.577 48.0002 334.932 47.2749 332.457 45.8242C329.983 44.3735 328.02 42.4109 326.569 39.9362C325.119 37.4615 324.393 34.8162 324.393 32.0002C324.393 29.1842 325.119 26.5389 326.569 24.0642C328.02 21.5895 329.983 19.6269 332.457 18.1762C334.932 16.7255 337.577 16.0002 340.393 16.0002C343.209 16.0002 345.855 16.7255 348.329 18.1762C350.804 19.6269 352.767 21.5895 354.217 24.0642C355.668 26.5389 356.393 29.1842 356.393 32.0002C356.393 34.8162 355.668 37.4615 354.217 39.9362C352.767 42.4109 350.804 44.3735 348.329 45.8242C345.855 47.2749 343.209 48.0002 340.393 48.0002ZM276.393 73.6002C273.577 73.6002 270.932 72.8749 268.457 71.4242C265.983 69.9735 264.02 68.0109 262.569 65.5362C261.119 63.0615 260.393 60.4162 260.393 57.6002C260.393 54.7842 261.119 52.1389 262.569 49.6642C264.02 47.1895 265.983 45.2269 268.457 43.7762C270.932 42.3255 273.577 41.6002 276.393 41.6002C279.209 41.6002 281.855 42.3255 284.329 43.7762C286.804 45.2269 288.767 47.1895 290.217 49.6642C291.668 52.1389 292.393 54.7842 292.393 57.6002C292.393 60.4162 291.668 63.0615 290.217 65.5362C288.767 68.0109 286.804 69.9735 284.329 71.4242C281.855 72.8749 279.209 73.6002 276.393 73.6002ZM276.393 80.0002C273.577 80.0002 270.932 79.2749 268.457 77.8242C265.983 76.3735 264.02 74.4109 262.569 71.9362C261.119 69.4615 260.393 66.8162 260.393 64.0002C260.393 61.1842 261.119 58.5389 262.569 56.0642C264.02 53.5895 265.983 51.6269 268.457 50.1762C270.932 48.7255 273.577 48.0002 276.393 48.0002C279.209 48.0002 281.855 48.7255 284.329 50.1762C286.804 51.6269 288.767 53.5895 290.217 56.0642C291.668 58.5389 292.393 61.1842 292.393 64.0002C292.393 66.8162 291.668 69.4615 290.217 71.9362C288.767 74.4109 286.804 76.3735 284.329 77.8242C281.855 79.2749 279.209 80.0002 276.393 80.0002ZM279.593 86.4002C276.777 86.4002 274.132 85.6749 271.657 84.2242C269.183 82.7735 267.22 80.8109 265.769 78.3362C264.319 75.8615 263.593 73.2162 263.593 70.4002C263.593 67.5842 264.319 64.9389 265.769 62.4642C267.22 59.9895 269.183 58.0269 271.657 56.5762C274.132 55.1255 276.777 54.4002 279.593 54.4002C282.409 54.4002 285.055 55.1255 287.529 56.5762C290.004 58.0269 291.967 59.9895 293.417 62.4642C294.868 64.9389 295.593 67.5842 295.593 70.4002C295.593 73.2162 294.868 75.8615 293.417 78.3362C291.967 80.8109 290.004 82.7735 287.529 84.2242C285.055 85.6749 282.409 86.4002 279.593 86.4002ZM285.993 96.0002C283.177 96.0002 280.532 95.2749 278.057 93.8242C275.583 92.3735 273.62 90.4109 272.169 87.9362C270.719 85.4615 269.993 82.8162 269.993 80.0002C269.993 77.1842 270.719 74.5389 272.169 72.0642C273.62 69.5895 275.583 67.6269 278.057 66.1762C280.532 64.7255 283.177 64.0002 285.993 64.0002C288.809 64.0002 291.455 64.7255 293.929 66.1762C296.404 67.6269 298.367 69.5895 299.817 72.0642C301.268 74.5389 301.993 77.1842 301.993 80.0002C301.993 82.8162 301.268 85.4615 299.817 87.9362C298.367 90.4109 296.404 92.3735 293.929 93.8242C291.455 95.2749 288.809 96.0002 285.993 96.0002ZM292.393 102.4C289.577 102.4 286.932 101.675 284.457 100.224C281.983 98.7735 280.02 96.8109 278.569 94.3362C277.119 91.8615 276.393 89.2162 276.393 86.4002C276.393 83.5842 277.119 80.9389 278.569 78.4642C280.02 75.9895 281.983 74.0269 284.457 72.5762C286.932 71.1255 289.577 70.4002 292.393 70.4002C295.209 70.4002 297.855 71.1255 300.329 72.5762C302.804 74.0269 304.767 75.9895 306.217 78.4642C307.668 80.9389 308.393 83.5842 308.393 86.4002C308.393 89.2162 307.668 91.8615 306.217 94.3362C304.767 96.8109 302.804 98.7735 300.329 100.224C297.855 101.675 295.209 102.4 292.393 102.4ZM295.593 105.6C292.777 105.6 290.132 104.875 287.657 103.424C285.183 101.974 283.22 100.011 281.769 97.5362C280.319 95.0615 279.593 92.4162 279.593 89.6002C279.593 86.7842 280.319 84.1389 281.769 81.6642C283.22 79.1895 285.183 77.2269 287.657 75.7762C290.132 74.3255 292.777 73.6002 295.593 73.6002C298.409 73.6002 301.055 74.3255 303.529 75.7762C306.004 77.2269 307.967 79.1895 309.417 81.6642C310.868 84.1389 311.593 86.7842 311.593 89.6002C311.593 92.4162 310.868 95.0615 309.417 97.5362C307.967 100.011 306.004 101.974 303.529 103.424C301.055 104.875 298.409 105.6 295.593 105.6ZM301.993 105.6C299.177 105.6 296.532 104.875 294.057 103.424C291.583 101.974 289.62 100.011 288.169 97.5362C286.719 95.0615 285.993 92.4162 285.993 89.6002C285.993 86.7842 286.719 84.1389 288.169 81.6642C289.62 79.1895 291.583 77.2269 294.057 75.7762C296.532 74.3255 299.177 73.6002 301.993 73.6002C304.809 73.6002 307.455 74.3255 309.929 75.7762C312.404 77.2269 314.367 79.1895 315.817 81.6642C317.268 84.1389 317.993 86.7842 317.993 89.6002C317.993 92.4162 317.268 95.0615 315.817 97.5362C314.367 100.011 312.404 101.974 309.929 103.424C307.455 104.875 304.809 105.6 301.993 105.6ZM308.393 108.8C305.577 108.8 302.932 108.075 300.457 106.624C297.983 105.174 296.02 103.211 294.569 100.736C293.119 98.2615 292.393 95.6162 292.393 92.8002C292.393 89.9842 293.119 87.3389 294.569 84.8642C296.02 82.3895 297.983 80.4269 300.457 78.9762C302.932 77.5255 305.577 76.8002 308.393 76.8002C311.209 76.8002 313.855 77.5255 316.329 78.9762C318.804 80.4269 320.767 82.3895 322.217 84.8642C323.668 87.3389 324.393 89.9842 324.393 92.8002C324.393 95.6162 323.668 98.2615 322.217 100.736C320.767 103.211 318.804 105.174 316.329 106.624C313.855 108.075 311.209 108.8 308.393 108.8ZM282.793 92.8002C279.977 92.8002 277.332 92.0749 274.857 90.6242C272.383 89.1735 270.42 87.2109 268.969 84.7362C267.519 82.2615 266.793 79.6162 266.793 76.8002C266.793 73.9842 267.519 71.3389 268.969 68.8642C270.42 66.3895 272.383 64.4269 274.857 62.9762C277.332 61.5255 279.977 60.8002 282.793 60.8002C285.609 60.8002 288.255 61.5255 290.729 62.9762C293.204 64.4269 295.167 66.3895 296.617 68.8642C298.068 71.3389 298.793 73.9842 298.793 76.8002C298.793 79.6162 298.068 82.2615 296.617 84.7362C295.167 87.2109 293.204 89.1735 290.729 90.6242C288.255 92.0749 285.609 92.8002 282.793 92.8002ZM346.793 73.6002C343.977 73.6002 341.332 72.8749 338.857 71.4242C336.383 69.9735 334.42 68.0109 332.969 65.5362C331.519 63.0615 330.793 60.4162 330.793 57.6002C330.793 54.7842 331.519 52.1389 332.969 49.6642C334.42 47.1895 336.383 45.2269 338.857 43.7762C341.332 42.3255 343.977 41.6002 346.793 41.6002C349.609 41.6002 352.255 42.3255 354.729 43.7762C357.204 45.2269 359.167 47.1895 360.617 49.6642C362.068 52.1389 362.793 54.7842 362.793 57.6002C362.793 60.4162 362.068 63.0615 360.617 65.5362C359.167 68.0109 357.204 69.9735 354.729 71.4242C352.255 72.8749 349.609 73.6002 346.793 73.6002ZM346.793 80.0002C343.977 80.0002 341.332 79.2749 338.857 77.8242C336.383 76.3735 334.42 74.4109 332.969 71.9362C331.519 69.4615 330.793 66.8162 330.793 64.0002C330.793 61.1842 331.519 58.5389 332.969 56.0642C334.42 53.5895 336.383 51.6269 338.857 50.1762C341.332 48.7255 343.977 48.0002 346.793 48.0002C349.609 48.0002 352.255 48.7255 354.729 50.1762C357.204 51.6269 359.167 53.5895 360.617 56.0642C362.068 58.5389 362.793 61.1842 362.793 64.0002C362.793 66.8162 362.068 69.4615 360.617 71.9362C359.167 74.4109 357.204 76.3735 354.729 77.8242C352.255 79.2749 349.609 80.0002 346.793 80.0002ZM343.593 86.4002C340.777 86.4002 338.132 85.6749 335.657 84.2242C333.183 82.7735 331.22 80.8109 329.769 78.3362C328.319 75.8615 327.593 73.2162 327.593 70.4002C327.593 67.5842 328.319 64.9389 329.769 62.4642C331.22 59.9895 333.183 58.0269 335.657 56.5762C338.132 55.1255 340.777 54.4002 343.593 54.4002C346.409 54.4002 349.055 55.1255 351.529 56.5762C354.004 58.0269 355.967 59.9895 357.417 62.4642C358.868 64.9389 359.593 67.5842 359.593 70.4002C359.593 73.2162 358.868 75.8615 357.417 78.3362C355.967 80.8109 354.004 82.7735 351.529 84.2242C349.055 85.6749 346.409 86.4002 343.593 86.4002ZM337.193 96.0002C334.377 96.0002 331.732 95.2749 329.257 93.8242C326.783 92.3735 324.82 90.4109 323.369 87.9362C321.919 85.4615 321.193 82.8162 321.193 80.0002C321.193 77.1842 321.919 74.5389 323.369 72.0642C324.82 69.5895 326.783 67.6269 329.257 66.1762C331.732 64.7255 334.377 64.0002 337.193 64.0002C340.009 64.0002 342.655 64.7255 345.129 66.1762C347.604 67.6269 349.567 69.5895 351.017 72.0642C352.468 74.5389 353.193 77.1842 353.193 80.0002C353.193 82.8162 352.468 85.4615 351.017 87.9362C349.567 90.4109 347.604 92.3735 345.129 93.8242C342.655 95.2749 340.009 96.0002 337.193 96.0002ZM330.793 102.4C327.977 102.4 325.332 101.675 322.857 100.224C320.383 98.7735 318.42 96.8109 316.969 94.3362C315.519 91.8615 314.793 89.2162 314.793 86.4002C314.793 83.5842 315.519 80.9389 316.969 78.4642C318.42 75.9895 320.383 74.0269 322.857 72.5762C325.332 71.1255 327.977 70.4002 330.793 70.4002C333.609 70.4002 336.255 71.1255 338.729 72.5762C341.204 74.0269 343.167 75.9895 344.617 78.4642C346.068 80.9389 346.793 83.5842 346.793 86.4002C346.793 89.2162 346.068 91.8615 344.617 94.3362C343.167 96.8109 341.204 98.7735 338.729 100.224C336.255 101.675 333.609 102.4 330.793 102.4ZM327.593 105.6C324.777 105.6 322.132 104.875 319.657 103.424C317.183 101.974 315.22 100.011 313.769 97.5362C312.319 95.0615 311.593 92.4162 311.593 89.6002C311.593 86.7842 312.319 84.1389 313.769 81.6642C315.22 79.1895 317.183 77.2269 319.657 75.7762C322.132 74.3255 324.777 73.6002 327.593 73.6002C330.409 73.6002 333.055 74.3255 335.529 75.7762C338.004 77.2269 339.967 79.1895 341.417 81.6642C342.868 84.1389 343.593 86.7842 343.593 89.6002C343.593 92.4162 342.868 95.0615 341.417 97.5362C339.967 100.011 338.004 101.974 335.529 103.424C333.055 104.875 330.409 105.6 327.593 105.6ZM321.193 105.6C318.377 105.6 315.732 104.875 313.257 103.424C310.783 101.974 308.82 100.011 307.369 97.5362C305.919 95.0615 305.193 92.4162 305.193 89.6002C305.193 86.7842 305.919 84.1389 307.369 81.6642C308.82 79.1895 310.783 77.2269 313.257 75.7762C315.732 74.3255 318.377 73.6002 321.193 73.6002C324.009 73.6002 326.655 74.3255 329.129 75.7762C331.604 77.2269 333.567 79.1895 335.017 81.6642C336.468 84.1389 337.193 86.7842 337.193 89.6002C337.193 92.4162 336.468 95.0615 335.017 97.5362C333.567 100.011 331.604 101.974 329.129 103.424C326.655 104.875 324.009 105.6 321.193 105.6ZM314.793 108.8C311.977 108.8 309.332 108.075 306.857 106.624C304.383 105.174 302.42 103.211 300.969 100.736C299.519 98.2615 298.793 95.6162 298.793 92.8002C298.793 89.9842 299.519 87.3389 300.969 84.8642C302.42 82.3895 304.383 80.4269 306.857 78.9762C309.332 77.5255 311.977 76.8002 314.793 76.8002C317.609 76.8002 320.255 77.5255 322.729 78.9762C325.204 80.4269 327.167 82.3895 328.617 84.8642C330.068 87.3389 330.793 89.9842 330.793 92.8002C330.793 95.6162 330.068 98.2615 328.617 100.736C327.167 103.211 325.204 105.174 322.729 106.624C320.255 108.075 317.609 108.8 314.793 108.8ZM340.393 92.8002C337.577 92.8002 334.932 92.0749 332.457 90.6242C329.983 89.1735 328.02 87.2109 326.569 84.7362C325.119 82.2615 324.393 79.6162 324.393 76.8002C324.393 73.9842 325.119 71.3389 326.569 68.8642C328.02 66.3895 329.983 64.4269 332.457 62.9762C334.932 61.5255 337.577 60.8002 340.393 60.8002C343.209 60.8002 345.855 61.5255 348.329 62.9762C350.804 64.4269 352.767 66.3895 354.217 68.8642C355.668 71.3389 356.393 73.9842 356.393 76.8002C356.393 79.6162 355.668 82.2615 354.217 84.7362C352.767 87.2109 350.804 89.1735 348.329 90.6242C345.855 92.0749 343.209 92.8002 340.393 92.8002Z" fill="black"/>
</svg>
