<svg width="536" height="489" viewBox="0 0 536 489" fill="none" xmlns="http://www.w3.org/2000/svg">
<g clip-path="url(#clip0_4218_14)">
<path d="M535.894 161.382C534.222 169.123 497.529 202.492 489.808 211.049C462.585 241.315 436.801 273.978 407.661 302.572C401.368 308.733 359.657 342.873 358.531 345.951C358.599 347.185 406.569 381.164 424.228 392.516C454.41 411.962 498.731 428.963 525.521 449.342C529.403 452.304 535.468 456.763 534.757 461.331C531.304 482.738 491.041 462.347 478.739 459.254C429.44 446.897 370.548 432.696 320.601 425.226C315.438 424.434 276.924 419.072 275.521 420.882C275.167 421.326 269.117 439.538 277.038 447.449C279.319 449.697 305.459 462.256 310.208 464.31C311.03 464.643 394.689 507.476 399.644 516.136C399.797 516.425 399.946 516.841 400.078 517.351C392.655 515.524 377.971 515.006 373.904 515.769C372.757 515.982 371.588 516.643 370.42 517.51L370.475 517.048C370.32 514.259 327.663 490.434 322.245 487.934C306.805 480.817 274.166 473.353 262.918 461.911C259.598 458.539 254.778 433.656 254.943 428.956C255.156 421.192 259.668 397.353 267.369 396.332C324.505 402.224 380.168 415.525 436.403 425.664C425.785 417.742 410.256 411.925 399.626 404.806C384.014 394.361 351.528 371.43 338.095 359.524C336.345 357.946 328.836 351.905 328.333 350.694C321.628 335.491 345.922 327.577 354.058 320.717C398.861 282.922 438.605 238.329 477.193 194.408L305.744 270.554C286.497 269.519 291.27 254.553 289.201 240.39C288.671 236.819 288.461 234.891 287.893 231.471C279.402 182.123 263.327 133.241 246.977 85.1868L236.559 274.857C220.721 282.957 221.902 271.091 216.789 266.419C201.59 252.66 165.023 236.641 145.33 228.578C103.635 211.546 59.8643 201.624 17.3049 187.438C32.5318 202.538 50.1664 215.302 67.2566 228.2C72.5484 232.162 80.0851 239.773 87.0867 244.559C119.585 266.892 157.158 283.67 190.55 304.544C190.87 308.46 191.787 313.202 190.379 316.996C187.477 324.92 121.081 345.606 109.162 350.462C81.1875 361.973 54.0293 375.801 25.7938 386.742L230.784 389.742C239.822 394.415 241.531 442.738 236.863 450.048C232.945 456.194 214.414 468.1 207.604 471.538C198.271 476.263 144.397 496.142 141.734 501.737L136.055 509.642L123.208 490.891L131.549 486.084C157.863 470.685 186.496 451.374 215.989 447.807L218.805 409.097C167.584 410.733 116.328 407.809 65.0702 408.805C47.5743 409.129 -17.5437 416.82 -28.7989 412.109C-36.3035 409.014 -34.6786 397.515 -29.7832 392.45C-20.2033 382.437 52.2634 350.75 69.5244 343.283C96.2231 331.74 124.273 322.426 151.147 311.354C152.037 308.989 145.053 305.556 143.211 304.419C104.395 279.9 69.1806 260.95 32.1663 232.078C17.5249 220.719 -34.2282 180.597 -43.0541 169.181C-44.043 167.894 -47.3009 164.403 -47.4326 164.09C-50.7661 152.588 -38.7202 148.15 -29.3283 149.248C13.2048 154.226 72.8372 187.824 115.183 196.093C148.91 206.614 187.287 217.373 216.87 238.676C216.452 186.301 223.279 134.215 225.549 81.8993C226.415 62.2984 223.541 38.7643 225.048 20.1492C225.679 12.0411 229.632 -0.29905 238.865 0.00553236C240.212 0.0914109 247.681 2.53494 248.317 3.24487C250.551 5.65634 259.267 48.2601 261.703 56.2102C272.664 91.6826 287.519 126.413 297.277 161.528C297.502 162.49 300.447 178.807 300.947 180.981C305.583 201.517 310.661 222.142 311.777 243.353L499.373 161.786C507.644 159.436 519.034 147.075 527.005 148.838C527.771 149.013 531.928 151.1 534.161 153.512C536.397 155.969 536.026 160.886 535.894 161.386V161.382Z" fill="black"/>
<path d="M235.96 293.175C239.494 295.884 244.008 340.502 243.701 348.101C243.477 353.629 240.255 376.314 234.878 376.113C224.126 375.708 217.161 318.265 218.081 308.233C218.328 305.551 221.765 295.586 223.637 294.459C225.227 293.501 235.223 292.612 235.959 293.176L235.96 293.175Z" fill="black"/>
<path d="M286.717 304.702C288.644 308.094 286.879 337.283 286.525 344.153C286.23 349.865 287.293 373.58 280.241 372.366C266.511 370.002 259.691 319.698 264.576 306.39C265.544 303.751 265.707 296.571 275.482 298.252C279.938 299.017 286.157 303.716 286.717 304.702Z" fill="black"/>
</g>
<defs>
<clipPath id="clip0_4218_14">
<rect width="584" height="574.236" fill="white" transform="translate(-48)"/>
</clipPath>
</defs>
</svg>
