<svg width="329" height="294" viewBox="0 0 329 294" fill="none" xmlns="http://www.w3.org/2000/svg">
<g clip-path="url(#clip0_8_56)">
<path d="M277 60L261 62.5L257 70L260.5 79.5L257 85L261 90L263 100V105.5L283 110H295L299 100V92V81L297 74L303 66.5L297 60H277Z" fill="#FFFCFC" stroke="white"/>
<mask id="mask0_8_56" style="mask-type:luminance" maskUnits="userSpaceOnUse" x="0" y="0" width="329" height="302">
<path d="M2.70605e-05 30.6968L27.647 301.288L328.083 270.592L300.436 0.000562027L2.70605e-05 30.6968Z" fill="white"/>
</mask>
<g mask="url(#mask0_8_56)">
<path d="M276 190L259 187.5L257 197.5L253 203L246.5 208L250 217L257 224.5L253 232V237.5L259 245L270.5 242.5L291 237.5L302 232L300 217V208V199.5L297 195L276 190Z" fill="white" stroke="white"/>
<path d="M277.496 103.678L277.494 103.653L277.19 103.634C277.292 103.648 277.394 103.663 277.496 103.678Z" fill="black"/>
<path d="M78.88 23.3457C77.805 24.4396 76.9219 26.4222 76.8576 26.782C76.2056 30.5325 82.2247 35.5695 83.4973 39.3756L125.626 124.998C115.753 125.981 106.243 128.795 96.7633 131.404C95.7566 131.683 88.2069 133.413 87.7648 133.534C71.5919 138.845 55.7115 146.523 39.3949 152.404C35.741 153.711 16.0508 158.7 14.9758 159.794C14.654 160.105 13.6766 163.636 13.6654 164.268C13.7268 168.576 19.5688 170.15 23.3682 170.266C32.0843 170.561 43.0055 168.714 52.1684 168.686C76.6277 168.609 101.076 170.653 125.508 169.317C116.207 183.565 112.024 201.68 107.845 217.624C104.905 237.53 90.5223 266.048 89.1241 285.973C88.8158 290.37 91.1467 295.884 96.4418 294.082C96.5866 294.017 98.1404 292.42 98.7218 291.931C103.857 287.571 121.453 262.585 126.437 255.516C139.105 237.644 147.183 220.822 157.779 202.203C158.27 201.32 159.723 197.992 160.846 198.357C166.595 210.638 171.546 223.505 177.512 235.688C181.373 243.57 197.73 276.643 202.608 280.888C205.077 283.058 210.482 283.565 211.759 280.003C213.712 274.657 208.711 244.485 208.181 236.339C206.602 212.48 206.857 188.534 204.978 164.705L223.105 165.174C225.41 178.841 235.038 191.761 242.796 203.685C239.6 204.037 241.09 211.454 241.744 213.406C243.094 217.481 251.324 224.387 251.324 224.387C251.324 224.387 249.173 224.834 248.054 226.235C246.907 227.614 246.398 232.763 246.384 233.117C246.509 240.27 253.598 250.598 261.418 251.01C263.422 251.108 267.626 249.745 271.246 247.861C271.696 247.815 274.863 245.448 277.611 244.914C285.089 243.469 304.398 246.366 306.57 232.039C307.046 228.786 306.21 225.794 304.12 223.383C303.92 223.151 303.695 222.922 303.497 222.715C304.06 222.052 304.591 221.316 305.137 220.478C306.026 219.05 306.44 217.418 306.282 215.87L306.272 215.77C305.931 212.929 304.472 210.756 302.439 209.147C303.649 208.141 304.719 206.997 305.576 205.748C307.315 203.249 307.616 200.998 307.445 199.325C307.36 198.501 307.161 197.79 306.958 197.281C305.347 193.131 300.83 191.674 299.38 191.318L274.445 183.773L274.392 183.753C270.97 182.387 266.1 180.689 266.1 180.689C266.1 180.689 264.736 178.709 264.65 177.86L277.318 177.045L277.378 167.754C271.145 168.037 259.842 166.391 255.342 170.787C255.043 171.07 253.817 171.927 253.659 172.852C253.392 174.191 253.953 175.723 253.953 175.723L256.989 182.705C255.242 182.657 251.377 187.341 251.038 188.713C250.44 191.02 253.381 200.03 249.876 198.596C247.212 197.481 236.763 172.812 234.36 168.566C232.604 165.465 226.647 157.091 223.697 155.399C220.184 153.387 197.673 155.232 195.69 159.548L198.738 255.118C193.025 242.202 185.98 229.852 180.003 217.065C177.477 211.62 166.384 181.138 162.627 179.957C160.826 179.385 158.633 179.911 156.814 180.148C147.794 196.158 140.783 214.032 131.067 229.659C128.987 233.026 125.601 236.702 123.867 239.251C118.22 247.499 112.649 255.991 105.933 263.414C111.628 243.277 115.304 222.666 122.346 202.871C125.684 193.522 132.366 176.136 138.454 168.752C140.523 166.269 146.083 166.559 141.964 159.36L53.2373 158.635C75.3043 149.972 97.7614 141.42 120.603 136.386C122.185 136.048 123.079 135.906 124.738 135.585C131.299 134.309 138.386 136.209 138.453 127.22L99.2013 48.9993C120.534 66.0212 142.199 83.5644 160.811 103.614C164.188 107.256 168.408 118.406 175.351 114.947C175.906 114.688 178.565 111.061 179.261 110.207C184.528 103.689 194.521 88.0589 199.057 80.5558C202.146 75.4461 204.525 68.0876 207.991 62.9646C204.479 89.3881 199.482 115.61 197.973 142.359C198.616 145.926 209.836 147.505 213.465 147.437C215.66 147.415 227.166 144.624 228.668 143.007C233.763 137.516 236.535 122.144 239.522 114.799C240.571 112.219 250.759 91.8254 252.058 91.6927C252.483 91.6492 257.372 96.4989 256.816 98.2211C256.59 98.9759 255.126 99.2264 254.78 100.296C252.635 106.975 258.696 108.223 258.872 109.946C258.905 110.27 254.862 116.663 254.765 116.951C254.183 118.423 252.611 119.593 253.793 122.021C255.013 124.571 277.194 126.165 277.952 125.179C278.264 124.769 277.786 115.154 277.421 114.787C277.223 114.581 272.551 115.563 271.102 114.979C270.735 114.84 272.195 113.807 272.092 113.54C272.494 113.525 275.786 113.617 276.698 113.65C284.962 113.966 302.029 116.916 304.377 103.808C304.876 101.032 304.745 97.2854 304.169 95.0987C303.617 92.9094 302.864 91.7247 301.643 90.8907C303.548 89.7625 304.878 88.693 305.513 87.9972C306.464 86.9161 306.985 85.3489 306.882 83.8455C306.655 81.8754 305.565 79.1103 301.843 76.5385C303.113 75.6265 304.241 74.5525 305.181 73.3715C306.763 71.3174 307.483 68.9729 307.236 66.5507C307.213 66.326 307.19 66.1013 307.14 65.8542C306.242 60.7734 301.438 57.5045 300.47 56.9221C299.604 56.3546 298.569 56.1071 297.539 56.1619L274.452 57.3097C273.37 56.6128 271.415 56.2574 268.087 55.8152C259.027 54.6215 248.578 58.616 252.232 69.4204C252.848 71.2499 256.578 75.3852 256.544 75.7924C256.454 77.1388 251.974 77.5209 251 78.125C247.064 80.6215 228.896 120.528 228.759 120.92C227.904 123.177 222.611 135.628 221.614 136.739C218.095 140.606 209.465 138.182 209.247 138.028C208.376 137.41 210.04 119.351 210.298 116.927C212.701 93.4935 218.047 65.7473 222.742 42.5083C223.918 36.7111 232.561 17.5096 222.496 16.368C220.351 16.133 218.402 19.057 217.104 20.9307C208.173 33.8537 201.206 54.8773 192.788 69.3626C187.871 77.8382 173.06 100.925 172.485 100.983C171.025 100.527 154.192 81.8343 151.18 79.0386C137.206 66.0841 121.406 54.7796 106.694 42.7584C102.533 39.3483 86.1651 22.9798 82.5172 22.3685C82.2846 22.3166 79.98 22.2492 78.88 23.3457ZM260.532 191.679C262.487 186.105 270.203 190.691 274.503 192.749C278.899 195.732 293.203 195.608 295.509 196.684C298.349 198.034 296.525 200.945 296.55 200.943C294.7 202.848 293.258 205.291 290.547 205.694C288.554 205.469 284.578 205.598 283.438 205.563C280.936 205.541 279.395 206.026 279.018 208.512C278.638 210.973 279.83 212.012 282.226 212.726C284.099 213.267 286.516 213.449 288.623 213.309C291.493 213.722 294.077 215.78 295.441 216.524C294.447 217.18 292.633 217.466 287.902 217.369C287.014 217.334 286.357 217.325 285.954 217.341C283.228 217.342 281.005 219.563 280.981 222.29C280.937 225.07 283.108 227.296 285.843 227.37C286.4 227.389 286.958 227.407 287.488 227.404C291.145 227.61 294.557 225.42 297.304 227.839C300.053 230.283 297.858 232.274 297.799 232.683C297.454 234.989 277.307 234.525 275.535 234.479C275.457 234.461 275.407 234.466 275.407 234.466C275.407 234.466 274.901 234.695 274.373 234.724C274.323 234.729 274.298 234.731 274.251 234.761C269.154 236.771 259.86 248.368 256.781 236.521C253.992 225.78 272.055 230.318 267.955 221.83C267.888 221.66 267.819 220.986 266.624 219.922C264.02 217.665 254.66 219.227 251.64 211.663C247.841 202.16 264.47 210.705 267.429 206.542C271.272 201.154 258.497 197.463 260.532 191.679ZM261.555 87.5179C260.784 82.197 268.455 84.87 272.381 82.0214C272.428 81.9914 273.326 81.1426 273.36 80.4832C273.387 80.2533 271.934 76.1629 271.811 75.9484C270.866 74.6067 263.48 71.0214 263.006 70.338C255.989 59.9782 290.079 62.3238 296.173 66.2681C296.591 66.6543 296.934 67.0481 297.117 67.3575C295.068 69.7873 289.795 71.3102 286.165 71.1259C285.498 71.0175 284.78 70.9142 284.038 70.8134C281.397 70.4272 278.927 72.1935 278.41 74.7948C277.898 77.446 279.264 79.0802 281.857 79.7488C282.635 79.9469 285.275 80.3028 286.167 80.3883C289.538 81.0027 291.361 82.6559 293.782 83.6196C291.748 84.9629 289.777 86.9305 284.73 85.478C282.154 84.7319 279.786 87.4972 279.631 90.1875C279.424 92.858 281.467 96.1162 284.061 95.4878C291.621 95.1897 297.075 96.2524 296.778 99.8405C297.629 102.983 295.629 106.644 277.5 103.677C277.397 103.663 277.295 103.648 277.192 103.633C277.167 103.636 277.115 103.616 277.09 103.618L275.413 103.512L275.338 103.52L266.443 102.965C265.821 103.054 265.364 103.025 265.146 102.871L266.443 102.965C269.724 102.453 277.582 98.7991 275.7 97.4271C275.482 97.2727 274.977 96.0375 274.977 96.0375L272.965 93.6441C270.001 92.5592 262.014 90.7764 261.555 87.5179Z" fill="black"/>
<path d="M275.407 234.467C275.407 234.467 274.9 234.695 274.373 234.724C274.735 234.561 275.08 234.475 275.407 234.467Z" fill="black"/>
<path d="M265.143 102.871L266.44 102.966C265.818 103.054 265.361 103.025 265.143 102.871Z" fill="black"/>
<path d="M150.872 158.026C151.965 156.325 171.154 153.322 174.445 153.311C176.841 153.304 186.717 154.349 186.746 156.856C186.804 161.874 162.125 166.278 157.769 166.052C156.604 165.992 152.221 164.59 151.695 163.74C151.248 163.019 150.643 158.38 150.872 158.026Z" fill="black"/>
<path d="M152.965 130.07C154.388 129.104 167.045 129.338 170.022 129.364C172.499 129.386 182.726 128.412 182.355 131.722C181.632 138.167 160.035 142.359 154.177 140.352C153.015 139.953 149.909 140.023 150.422 135.434C150.655 133.344 152.551 130.352 152.967 130.069L152.965 130.07Z" fill="black"/>
<path d="M274.248 234.737L274.372 234.724C274.323 234.729 274.298 234.732 274.25 234.762L274.248 234.737Z" fill="black"/>
<path d="M275.41 103.513C275.89 103.514 276.445 103.508 277.087 103.619L275.41 103.513Z" fill="black"/>
</g>
</g>
<defs>
<clipPath id="clip0_8_56">
<rect width="329" height="294" fill="white"/>
</clipPath>
</defs>
</svg>
