<svg width="536" height="489" viewBox="0 0 536 489" fill="none" xmlns="http://www.w3.org/2000/svg">
<g clip-path="url(#clip0_9_88)">
<mask id="mask0_9_88" style="mask-type:luminance" maskUnits="userSpaceOnUse" x="-48" y="0" width="584" height="575">
<path d="M536 0H-48V574.236H536V0Z" fill="white"/>
</mask>
<g mask="url(#mask0_9_88)">
<rect width="536" height="489" fill="white"/>
<path d="M535.894 161.382C534.222 169.123 497.529 202.492 489.808 211.049C462.585 241.315 436.801 273.978 407.661 302.572C401.368 308.733 359.657 342.873 358.531 345.951C358.599 347.185 406.569 381.164 424.228 392.516C454.41 411.962 496.71 434.621 523.5 455C527.382 457.962 525.211 461.432 524.5 466C521.047 487.407 491.041 462.347 478.739 459.254C429.44 446.897 370.548 432.696 320.601 425.226C315.438 424.434 276.924 419.072 275.521 420.882C275.167 421.326 269.117 439.538 277.038 447.449C279.319 449.697 305.459 462.256 310.208 464.31C311.03 464.643 394.689 507.476 399.644 516.136C399.797 516.425 399.946 516.841 400.078 517.351C392.655 515.524 377.971 515.006 373.904 515.769C372.757 515.982 371.588 516.643 370.42 517.51L370.475 517.048C370.32 514.259 327.663 490.434 322.245 487.934C306.805 480.817 274.166 473.353 262.918 461.911C259.598 458.539 254.778 433.656 254.943 428.956C255.156 421.192 259.668 397.353 267.369 396.332C324.505 402.224 380.168 415.525 436.403 425.664C425.785 417.742 410.256 411.925 399.626 404.806C384.014 394.361 351.528 371.43 338.095 359.524C336.345 357.946 328.836 351.905 328.333 350.694C321.628 335.491 345.922 327.577 354.058 320.717C398.861 282.922 438.605 238.329 477.193 194.408L305.744 270.554C286.497 269.519 291.27 254.553 289.201 240.39C288.671 236.819 288.461 234.891 287.893 231.471C279.402 182.123 263.327 133.241 246.977 85.1868L236.559 274.857C220.721 282.957 221.902 271.091 216.789 266.419C201.59 252.66 165.023 236.641 145.33 228.578C103.635 211.546 59.8643 201.624 17.3049 187.438C32.5318 202.538 50.1664 215.302 67.2566 228.2C72.5484 232.162 80.0851 239.773 87.0867 244.559C119.585 266.892 157.158 283.67 190.55 304.544C190.87 308.46 191.787 313.202 190.379 316.996C187.477 324.92 121.081 345.606 109.162 350.462C81.1875 361.973 54.0293 375.801 25.7938 386.742L230.784 389.742C239.822 394.415 241.531 442.738 236.863 450.048C232.945 456.194 214.414 468.1 207.604 471.538C198.271 476.263 144.397 496.142 141.734 501.737L136.055 509.642L123.208 490.891L131.549 486.084C157.863 470.685 186.496 451.374 215.989 447.807L218.805 409.097C167.584 410.733 116.328 407.809 65.0702 408.805C47.5743 409.129 -17.5437 416.82 -28.7989 412.109C-36.3035 409.014 -34.6786 397.515 -29.7832 392.45C-20.2033 382.437 52.2634 350.75 69.5244 343.283C96.2231 331.74 124.273 322.426 151.147 311.354C152.037 308.989 145.053 305.556 143.211 304.419C104.395 279.9 69.1806 260.95 32.1663 232.078C17.5249 220.719 -34.2282 180.597 -43.0541 169.181C-44.043 167.894 -47.3009 164.403 -47.4326 164.09C-50.7661 152.588 -38.7202 148.15 -29.3283 149.248C13.2048 154.226 72.8372 187.824 115.183 196.093C148.91 206.614 187.287 217.373 216.87 238.676C216.452 186.301 223.279 134.215 225.549 81.8993C226.415 62.2984 217.298 41.6151 218.805 23C219.436 14.8919 221.551 2.94029 230.784 3.24487C232.131 3.33075 247.681 2.53494 248.317 3.24487C250.551 5.65634 259.267 48.2601 261.703 56.2102C272.664 91.6826 287.519 126.413 297.277 161.528C297.502 162.49 300.447 178.807 300.947 180.981C305.583 201.517 310.661 222.142 311.777 243.353L499.373 161.786C507.644 159.436 519.034 147.075 527.005 148.838C527.771 149.013 531.928 151.1 534.161 153.512C536.397 155.969 536.026 160.886 535.894 161.386V161.382Z" fill="white"/>
<path d="M235.96 293.175C239.494 295.884 244.008 340.502 243.701 348.101C243.477 353.629 240.255 376.314 234.878 376.113C224.126 375.708 217.161 318.265 218.081 308.233C218.328 305.551 221.765 295.586 223.637 294.459C225.227 293.501 235.223 292.612 235.959 293.176L235.96 293.175Z" fill="white"/>
<path d="M286.717 304.702C288.644 308.094 286.879 337.283 286.525 344.153C286.23 349.865 287.293 373.58 280.241 372.366C266.511 370.002 259.691 319.698 264.576 306.39C265.544 303.751 265.707 296.571 275.482 298.252C279.938 299.017 286.157 303.716 286.717 304.702Z" fill="white"/>
<path d="M524.344 169.04C522.737 176.669 487.461 209.554 480.038 217.986C453.866 247.813 434.015 273.821 406 302C399.95 308.072 355.583 345.268 354.5 348.301C354.565 349.517 402.023 385.568 419 396.755C448.016 415.919 488.616 432.738 514.372 452.821C518.104 455.74 525.64 458.547 524.956 463.048C521.637 484.145 482.778 463.531 470.952 460.483C423.556 448.305 365.384 436.417 317.366 429.055C312.402 428.275 275.375 422.991 274.027 424.774C273.686 425.212 267.87 443.16 275.485 450.956C277.678 453.171 302.808 465.548 307.374 467.572C308.164 467.9 388.592 510.112 393.356 518.646C393.503 518.931 393.646 519.341 393.773 519.843C386.637 518.043 372.52 517.532 368.61 518.284C367.507 518.494 366.384 519.146 365.261 520L365.314 519.545C365.165 516.796 324.155 493.317 318.946 490.853C304.103 483.84 272.724 476.484 261.91 465.208C258.719 461.885 254.085 437.363 254.243 432.731C254.448 425.08 258.786 401.587 266.19 400.581C321.119 406.387 374.632 419.495 428.695 429.487C418.488 421.68 403.558 415.947 393.339 408.932C378.33 398.638 347.098 376.04 334.184 364.307C332.502 362.752 325.283 356.798 324.799 355.605C318.353 340.622 341.709 332.823 349.531 326.063C392.603 288.816 430.812 244.87 467.91 201.587L303.082 276.628C284.579 275.608 289.167 260.859 287.178 246.902C286.669 243.382 286.467 241.482 285.921 238.112C277.758 189.48 262.304 141.307 246.585 93.9506L236.569 280.868C221.343 288.851 222.478 277.157 217.563 272.553C202.951 258.994 167.796 243.207 148.864 235.261C108.779 218.476 66.6986 208.698 25.7828 194.718C40.4217 209.599 57.3752 222.178 73.8054 234.888C78.8928 238.793 86.1385 246.293 92.8697 251.01C124.113 273.019 160.235 289.553 192.337 310.125C192.645 313.984 193.526 318.657 192.173 322.396C189.383 330.205 125.551 350.591 114.092 355.376C87.1983 366.72 61.0889 380.347 33.9439 391.13L231.017 394.086C239.706 398.691 241.349 446.313 236.862 453.517C233.095 459.574 215.28 471.307 208.733 474.695C199.76 479.352 147.967 498.942 145.406 504.456L139.947 512.246L127.596 493.767L135.615 489.03C160.913 473.855 188.44 454.824 216.794 451.309L219.501 413.16C170.258 414.773 120.982 411.891 71.7034 412.873C54.8832 413.192 -7.71994 420.771 -18.5405 416.129C-25.7552 413.079 -24.1931 401.746 -19.4868 396.755C-10.2768 386.887 59.3912 355.66 75.9856 348.301C101.653 336.926 128.62 327.747 154.456 316.836C155.312 314.505 148.597 311.122 146.826 310.001C109.51 285.838 75.6551 267.163 40.0703 238.71C25.9943 227.516 -23.7601 187.976 -32.2451 176.726C-33.1958 175.458 -36.3279 172.017 -36.4545 171.709C-39.6593 160.374 -28.0786 156 -19.0494 157.082C21.8411 161.988 79.1705 195.098 119.881 203.247C152.305 213.616 189.2 224.219 217.641 245.212C217.239 193.597 223.802 142.267 225.985 90.7108C226.817 71.3943 224.054 48.2018 225.503 29.8568C226.11 21.8664 227.693 8.19984 236.569 8.5C237.864 8.58463 247.262 12.4982 247.873 13.1978C250.021 15.5743 258.4 57.5598 260.742 65.3945C271.28 100.352 285.561 134.579 294.942 169.184C295.159 170.132 297.99 186.212 298.471 188.355C302.928 208.593 307.81 228.918 308.883 249.822L489.234 169.438C497.185 167.122 508.135 154.941 515.798 156.678C516.535 156.851 520.531 158.907 522.678 161.284C524.828 163.706 524.471 168.551 524.344 169.044V169.04Z" fill="black"/>
<path d="M235.96 293.175C239.494 295.884 244.008 340.502 243.701 348.101C243.477 353.629 240.255 376.314 234.878 376.113C224.126 375.708 217.161 318.265 218.081 308.233C218.328 305.551 221.765 295.586 223.637 294.459C225.227 293.501 235.223 292.612 235.959 293.176L235.96 293.175Z" fill="white"/>
<path d="M234.55 298.921C237.436 301.137 241.122 337.641 240.871 343.858C240.689 348.381 238.057 366.941 233.667 366.776C224.886 366.445 219.199 319.448 219.95 311.24C220.152 309.046 222.958 300.893 224.487 299.971C225.785 299.187 233.948 298.46 234.549 298.921L234.55 298.921Z" fill="black"/>
<path d="M286.717 304.702C288.644 308.094 286.879 337.283 286.525 344.153C286.23 349.865 287.293 373.58 280.241 372.366C266.511 370.002 259.691 319.698 264.576 306.39C265.544 303.751 265.707 296.571 275.482 298.252C279.938 299.017 286.157 303.716 286.717 304.702Z" fill="#FDFDFD"/>
<path d="M285.352 309.404C286.762 312.139 285.47 335.675 285.211 341.215C284.996 345.82 285.773 364.943 280.614 363.964C270.569 362.058 265.579 321.496 269.153 310.765C269.861 308.637 269.98 302.848 277.132 304.203C280.392 304.82 284.942 308.609 285.352 309.404Z" fill="black"/>
</g>
</g>
<defs>
<clipPath id="clip0_9_88">
<rect width="536" height="489" rx="20" fill="white"/>
</clipPath>
</defs>
</svg>
